{
.formatVersion = 3;
axes = (
{
name = Weight;
tag = wght;
}
);
classes = (
{
code = "afii57414 afii57415 afii57416 afii57418 afii57420 afii57422 afii57423 afii57425 afii57426 afii57427 afii57428 afii57434 afii57441 afii57442 afii57443 afii57444 afii57445 afii57446 afii57448 afii57555 afii57450 afii57506 afii57507 afii57508 uni06AD afii57509 afii57470 uni06C6 uni06C7 uni06C8 uni06CB uni06D0 afii57534";
name = fina;
},
{
code = "afii62759 afii62760 afii62763 afii62767 afii62773 afii62779 afii62780 afii62782 afii62783 afii62786 afii62789 afii62807 afii62810 afii62813 afii62816 afii62819 afii62822 afii62825 afii62829 afii52364 afii57447 afii62958 afii62961 afii62962 uniFBD4 afii62967 afii62827 uniFBDA uniFBD8 uniFBDC uniFBDF uniFBE5 afii62828";
name = fina2;
},
{
code = "afii62757 afii62761 afii62765 afii62771 afii62777 afii62784 afii62787 afii62805 afii62808 afii62811 afii52305 afii62817 afii62820 afii62823 afii64242 afii62831 afii62956 afii62959 uniFBD5 afii62965 uniFB54";
name = init;
},
{
code = "afii57414 afii57416 afii57418 afii57420 afii57422 afii57427 afii57428 afii57434 afii57441 afii57442 afii57443 afii57444 afii57445 afii57446 afii57555 afii57450 afii57506 afii57507 uni06AD afii57509 uni06D0";
name = init_medi;
},
{
code = "afii62758 afii62762 afii62766 afii62772 afii62778 afii62785 afii62788 afii62806 afii62809 afii62812 afii52306 afii62818 afii62821 afii62824 afii57543 afii62832 afii52957 afii62960 uniFBD6 afii62966 uniFB55";
name = medi;
}
);
familyName = "CST Sans";
customParameters = (
{
name = glyphOrder;
value = (
.notdef,
.null,
nonmarkingreturn,
space,
exclam,
quotedbl,
numbersign,
dollar,
percent,
ampersand,
quotesingle,
parenleft,
parenright,
asterisk,
plus,
comma,
hyphen,
period,
slash,
zero,
one,
two,
three,
four,
five,
six,
seven,
eight,
nine,
colon,
semicolon,
less,
equal,
greater,
question,
at,
A,
B,
C,
D,
E,
F,
G,
H,
I,
J,
K,
L,
M,
N,
O,
P,
Q,
R,
S,
T,
U,
V,
W,
X,
Y,
Z,
bracketleft,
backslash,
bracketright,
asciicircum,
underscore,
grave,

glyphs = (
{
glyphname = .notdef;
layers = (
{
layerId = "0E45D8FB-8EA6-46E4-9786-99D047FDA37D";
shapes = (
{
closed = 1;
nodes = (
(256,0,l),
(256,1536,l),
(1792,1536,l),
(1792,0,l)
);
},
{
closed = 1;
nodes = (
(384,128,l),
(1664,128,l),
(1664,1408,l),
(384,1408,l)
);
}
);
width = 2048;
},
{
layerId = "C991CE7E-6C6E-4D0C-9C0C-9C2488C785EC";
shapes = (
{
closed = 1;
nodes = (
(256,0,l),
(256,1536,l),
(1792,1536,l),
(1792,0,l)
);
},
{
closed = 1;
nodes = (
(384,128,l),
(1664,128,l),
(1664,1408,l),
(384,1408,l)
);
}
);
width = 2048;
},
{
layerId = "9CEFB641-1E07-4D1E-B575-5426CF06F412";
shapes = (
{
closed = 1;
nodes = (
(256,0,l),
(256,1536,l),
(1792,1536,l),
(1792,0,l)
);
},
{
closed = 1;
nodes = (
(384,128,l),
(1664,128,l),
(1664,1408,l),
(384,1408,l)
);
}
);
width = 2048;
},
{
layerId = "1BB6E906-3DFF-4986-8FED-FA70B47B0561";
shapes = (
{
closed = 1;
nodes = (
(256,0,l),
(256,1536,l),
(1792,1536,l),
(1792,0,l)
);
},
{
closed = 1;
nodes = (
(384,128,l),
(1664,128,l),
(1664,1408,l),
(384,1408,l)
);
}
);
width = 2048;
}
);
},
{
glyphname = exclam;
layers = (
{
layerId = "0E45D8FB-8EA6-46E4-9786-99D047FDA37D";
shapes = (
{
closed = 1;
nodes = (
(550,1489,l),
(509,429,l),
(193,429,l),
(152,1489,l)
);
},
{
closed = 1;
nodes = (
(548,0,l),
(154,0,l),
(154,264,l),
(548,264,l)
);
}
);
width = 702;
},
{
layerId = "C991CE7E-6C6E-4D0C-9C0C-9C2488C785EC";
shapes = (
{
closed = 1;
nodes = (
(452,1489,l),
(424,410,l),
(258,410,l),
(228,1489,l)
);
},
{
closed = 1;
nodes = (
(442,0,l),
(238,0,l),
(238,211,l),
(442,211,l)
);
}
);
width = 680;
},
{
layerId = "9CEFB641-1E07-4D1E-B575-5426CF06F412";
shapes = (
{
closed = 1;
nodes = (
(419,1489,l),
(396,404,l),
(280,404,l),
(253,1489,l)
);
},
{
closed = 1;
nodes = (
(407,0,l),
(266,0,l),
(266,193,l),
(407,193,l)
);
}
);
width = 673;
},
{
layerId = "1BB6E906-3DFF-4986-8FED-FA70B47B0561";
shapes = (
{
closed = 1;
nodes = (
(583,1489,l),
(537,435,l),
(171,435,l),
(127,1489,l)
);
},
{
closed = 1;
nodes = (
(583,0,l),
(126,0,l),
(126,282,l),
(583,282,l)
);
}
);
width = 709;
}
);
unicode = 33;
},
{
glyphname = quotedbl;
layers = (
{
layerId = "0E45D8FB-8EA6-46E4-9786-99D047FDA37D";
shapes = (
{
closed = 1;
nodes = (
(874,1556,l),
(814,967,l),
(608,967,l),
(548,1556,l)
);
},
{
closed = 1;
nodes = (
(453,1556,l),
(393,967,l),
(187,967,l),
(127,1556,l)
);
}
);
width = 1002;
},
{
layerId = "C991CE7E-6C6E-4D0C-9C0C-9C2488C785EC";
shapes = (
{
closed = 1;
nodes = (
(708,1556,l),
(665,977,l),
(533,977,l),
(490,1556,l)
);
},
{
closed = 1;
nodes = (
(332,1556,l),
(289,977,l),
(157,977,l),
(114,1556,l)
);
}
);
width = 822;
},
{
layerId = "9CEFB641-1E07-4D1E-B575-5426CF06F412";
shapes = (
{
closed = 1;
nodes = (
(653,1556,l),
(615,980,l),
(508,980,l),
(471,1556,l)
);
},
{
closed = 1;
nodes = (
(292,1556,l),
(254,980,l),
(147,980,l),
(110,1556,l)
);
}
);
width = 762;
},
{
layerId = "1BB6E906-3DFF-4986-8FED-FA70B47B0561";
shapes = (
{
closed = 1;
nodes = (
(929,1556,l),
(864,964,l),
(633,964,l),
(567,1556,l)
);
},
{
closed = 1;
nodes = (
(493,1556,l),
(428,964,l),
(197,964,l),
(131,1556,l)
);
}
);
width = 1062;
}
);
unicode = 34;
},
{
glyphname = numbersign;
layers = (
{
layerId = "0E45D8FB-8EA6-46E4-9786-99D047FDA37D";
shapes = (
{
closed = 1;
nodes = (
(1551,913,l),
(1247,913,l),
(1164,585,l),
(1435,585,l),
(1435,355,l),
(1106,355,l),
(1016,0,l),
(784,0,l),
(873,355,l),
(619,355,l),
(530,0,l),
(295,0,l),
(384,355,l),
(125,355,l),
(125,585,l),
(442,585,l),
(524,913,l),
(242,913,l),
(242,1143,l),
(581,1143,l),
(668,1489,l),
(904,1489,l),
(817,1143,l),
(1070,1143,l),
(1157,1489,l),
(1393,1489,l),
(1305,1143,l),
(1551,1143,l)
);
},
{
closed = 1;
nodes = (
(1016,915,l),
(758,915,l),
(674,583,l),
(932,583,l)
);
}
);
width = 1676;
},
{
layerId = "C991CE7E-6C6E-4D0C-9C0C-9C2488C785EC";
shapes = (
{
closed = 1;
nodes = (
(1348,932,l),
(1055,932,l),
(963,556,l),
(1231,556,l),
(1231,421,l),
(928,421,l),
(823,0,l),
(694,0,l),
(799,421,l),
(529,421,l),
(424,0,l),
(295,0,l),
(400,421,l),
(142,421,l),
(142,556,l),
(435,556,l),
(527,932,l),
(259,932,l),
(259,1067,l),
(562,1067,l),
(667,1489,l),
(796,1489,l),
(691,1067,l),
(961,1067,l),
(1066,1489,l),
(1195,1489,l),
(1090,1067,l),
(1348,1067,l)
);
},
{
closed = 1;
nodes = (
(929,934,l),
(655,934,l),
(561,554,l),
(835,554,l)
);
}
);
width = 1490;
},
{
layerId = "9CEFB641-1E07-4D1E-B575-5426CF06F412";
shapes = (
{
closed = 1;
nodes = (
(1280,938,l),
(991,938,l),
(896,546,l),
(1163,546,l),
(1163,443,l),
(869,443,l),
(759,0,l),
(664,0,l),
(774,443,l),
(499,443,l),
(389,0,l),
(295,0,l),
(405,443,l),
(148,443,l),
(148,546,l),
(433,546,l),
(528,938,l),
(265,938,l),
(265,1042,l),
(556,1042,l),
(667,1489,l),
(760,1489,l),
(649,1042,l),
(925,1042,l),
(1036,1489,l),
(1129,1489,l),
(1018,1042,l),
(1280,1042,l)
);
},
{
closed = 1;
nodes = (
(900,940,l),
(621,940,l),
(523,544,l),
(803,544,l)
);
}
);
width = 1428;
},
{
layerId = "1BB6E906-3DFF-4986-8FED-FA70B47B0561";
shapes = (
{
closed = 1;
nodes = (
(1619,907,l),
(1311,907,l),
(1231,595,l),
(1503,595,l),
(1503,333,l),
(1165,333,l),
(1080,0,l),
(814,0,l),
(898,333,l),
(649,333,l),
(565,0,l),
(295,0,l),
(379,333,l),
(119,333,l),
(119,595,l),
(444,595,l),
(523,907,l),
(236,907,l),
(236,1168,l),
(587,1168,l),
(668,1489,l),
(940,1489,l),
(859,1168,l),
(1106,1168,l),
(1187,1489,l),
(1459,1489,l),
(1377,1168,l),
(1619,1168,l)
);
},
{
closed = 1;
nodes = (
(1045,909,l),
(792,909,l),
(712,593,l),
(964,593,l)
);
}
);
width = 1738;
}
);
unicode = 35;
},
{
glyphname = dollar;
layers = (
{
layerId = "0E45D8FB-8EA6-46E4-9786-99D047FDA37D";
shapes = (
{
closed = 1;
nodes = (
(1226,205,o),
(1034,17,o),
(735,1,c),
(735,-361,l),
(571,-361,l),
(571,-4,l),
(436,-2,o),
(220,38,o),
(122,88,c),
(122,378,l),
(154,378,l),
(214,339,o),
(418,267,o),
(576,261,c),
(576,538,l),
(487,560,l),
(288,608,o),
(96,693,o),
(96,960,cs),
(96,1162,o),
(277,1313,o),
(571,1343,c),
(571,1576,l),
(735,1576,l),
(735,1345,l),
(846,1341,o),
(1044,1301,o),
(1120,1268,c),
(1120,980,l),
(1088,980,l),
(989,1041,o),
(879,1074,o),
(730,1083,c),
(730,829,l),
(818,810,l),
(1090,752,o),
(1226,648,o),
(1226,429,cs)
);
},
{
closed = 1;
nodes = (
(583,1082,l),
(512,1076,o),
(445,1040,o),
(445,968,cs),
(445,903,o),
(472,876,o),
(583,848,c)
);
},
{
closed = 1;
nodes = (
(872,458,o),
(825,500,o),
(723,519,c),
(723,263,l),
(805,270,o),
(872,306,o),
(872,390,cs)
);
}
);
width = 1304;
},
{
layerId = "C991CE7E-6C6E-4D0C-9C0C-9C2488C785EC";
shapes = (
{
closed = 1;
nodes = (
(1024,183,o),
(853,28,o),
(628,1,c),
(628,-361,l),
(514,-361,l),
(514,-4,l),
(373,-2,o),
(212,32,o),
(106,85,c),
(106,287,l),
(121,287,l),
(224,208,o),
(361,156,o),
(514,144,c),
(514,576,l),
(453,590,l),
(209,651,o),
(113,748,o),
(113,935,cs),
(113,1123,o),
(275,1280,o),
(514,1304,c),
(514,1576,l),
(628,1576,l),
(628,1306,l),
(743,1302,o),
(896,1265,o),
(976,1231,c),
(976,1033,l),
(961,1033,l),
(867,1097,o),
(755,1149,o),
(628,1161,c),
(628,731,l),
(689,716,l),
(898,661,o),
(1024,587,o),
(1024,380,cs)
);
},
{
closed = 1;
nodes = (
(514,1160,l),
(395,1148,o),
(302,1081,o),
(302,961,cs),
(302,838,o),
(349,786,o),
(514,746,c)
);
},
{
closed = 1;
nodes = (
(835,480,o),
(777,529,o),
(628,561,c),
(628,146,l),
(763,162,o),
(835,223,o),
(835,354,cs)
);
}
);
width = 1118;
},
{
layerId = "9CEFB641-1E07-4D1E-B575-5426CF06F412";
shapes = (
{
closed = 1;
nodes = (
(957,176,o),
(793,32,o),
(592,1,c),
(592,-361,l),
(495,-361,l),
(495,-4,l),
(352,-2,o),
(209,30,o),
(101,84,c),
(101,257,l),
(110,257,l),
(227,164,o),
(342,119,o),
(493,105,c),
(493,589,l),
(442,600,l),
(183,665,o),
(119,766,o),
(119,927,cs),
(119,1110,o),
(274,1269,o),
(495,1291,c),
(495,1576,l),
(592,1576,l),
(592,1293,l),
(709,1289,o),
(847,1253,o),
(928,1219,c),
(928,1051,l),
(919,1051,l),
(826,1116,o),
(714,1174,o),
(594,1187,c),
(594,698,l),
(646,685,l),
(834,631,o),
(957,567,o),
(957,364,cs)
);
},
{
closed = 1;
nodes = (
(491,1186,l),
(356,1172,o),
(254,1095,o),
(254,959,cs),
(254,816,o),
(308,756,o),
(491,712,c)
);
},
{
closed = 1;
nodes = (
(823,487,o),
(761,539,o),
(596,575,c),
(596,107,l),
(749,126,o),
(823,195,o),
(823,342,cs)
);
}
);
width = 1056;
},
{
layerId = "1BB6E906-3DFF-4986-8FED-FA70B47B0561";
shapes = (
{
closed = 1;
nodes = (
(1293,212,o),
(1094,13,o),
(771,1,c),
(771,-361,l),
(590,-361,l),
(590,-4,l),
(457,-2,o),
(223,40,o),
(127,89,c),
(127,408,l),
(165,408,l),
(211,383,o),
(437,304,o),
(597,300,c),
(597,525,l),
(498,550,l),
(314,594,o),
(90,675,o),
(90,968,cs),
(90,1175,o),
(278,1324,o),
(590,1356,c),
(590,1576,l),
(771,1576,l),
(771,1358,l),
(880,1354,o),
(1093,1313,o),
(1168,1280,c),
(1168,962,l),
(1130,962,l),
(1030,1022,o),
(920,1049,o),
(764,1057,c),
(764,862,l),
(861,841,l),
(1154,782,o),
(1293,668,o),
(1293,445,cs)
);
},
{
closed = 1;
nodes = (
(606,1056,l),
(551,1052,o),
(493,1026,o),
(493,970,cs),
(493,925,o),
(513,906,o),
(606,882,c)
);
},
{
closed = 1;
nodes = (
(884,451,o),
(841,490,o),
(755,505,c),
(755,302,l),
(819,306,o),
(884,334,o),
(884,402,cs)
);
}
);
width = 1366;
}
);
unicode = 36;
},
{
glyphname = percent;
layers = (
{
layerId = "0E45D8FB-8EA6-46E4-9786-99D047FDA37D";
shapes = (
{
closed = 1;
nodes = (
(974,708,o),
(824,547,o),
(543,547,cs),
(258,547,o),
(107,702,o),
(107,1032,cs),
(107,1356,o),
(259,1518,o),
(543,1518,cs),
(831,1518,o),
(974,1357,o),
(974,1036,cs)
);
},
{
closed = 1;
nodes = (
(1748,1489,l),
(968,0,l),
(704,0,l),
(1484,1489,l)
);
},
{
closed = 1;
nodes = (
(2346,130,o),
(2196,-31,o),
(1915,-31,cs),
(1630,-31,o),
(1479,124,o),
(1479,454,cs),
(1479,778,o),
(1631,940,o),
(1915,940,cs),
(2203,940,o),
(2346,779,o),
(2346,458,cs)
);
},
{
closed = 1;
nodes = (
(689,1190,o),
(671,1305,o),
(543,1305,cs),
(425,1305,o),
(397,1216,o),
(397,1032,cs),
(397,876,o),
(408,759,o),
(543,759,cs),
(660,759,o),
(689,845,o),
(689,1033,cs)
);
},
{
closed = 1;
nodes = (
(2061,612,o),
(2043,727,o),
(1915,727,cs),
(1797,727,o),
(1769,638,o),
(1769,454,cs),
(1769,298,o),
(1780,181,o),
(1915,181,cs),
(2032,181,o),
(2061,267,o),
(2061,455,cs)
);
}
);
width = 2455;
},
{
layerId = "C991CE7E-6C6E-4D0C-9C0C-9C2488C785EC";
shapes = (
{
closed = 1;
nodes = (
(807,775,o),
(682,634,o),
(455,634,cs),
(224,634,o),
(102,777,o),
(102,1075,cs),
(102,1371,o),
(225,1517,o),
(455,1517,cs),
(687,1517,o),
(807,1369,o),
(807,1076,cs)
);
},
{
closed = 1;
nodes = (
(1473,1489,l),
(693,0,l),
(528,0,l),
(1308,1489,l)
);
},
{
closed = 1;
nodes = (
(1897,112,o),
(1772,-29,o),
(1545,-29,cs),
(1314,-29,o),
(1192,114,o),
(1192,412,cs),
(1192,708,o),
(1315,854,o),
(1545,854,cs),
(1777,854,o),
(1897,706,o),
(1897,413,cs)
);
},
{
closed = 1;
nodes = (
(629,1276,o),
(593,1384,o),
(455,1384,cs),
(314,1384,o),
(280,1271,o),
(280,1075,cs),
(280,878,o),
(309,767,o),
(455,767,cs),
(592,767,o),
(629,874,o),
(629,1076,cs)
);
},
{
closed = 1;
nodes = (
(1719,613,o),
(1683,721,o),
(1545,721,cs),
(1404,721,o),
(1370,608,o),
(1370,412,cs),
(1370,215,o),
(1399,104,o),
(1545,104,cs),
(1682,104,o),
(1719,211,o),
(1719,413,cs)
);
}
);
width = 2000;
},
{
layerId = "9CEFB641-1E07-4D1E-B575-5426CF06F412";
shapes = (
{
closed = 1;
nodes = (
(751,797,o),
(635,663,o),
(426,663,cs),
(213,663,o),
(100,802,o),
(100,1089,cs),
(100,1376,o),
(214,1517,o),
(426,1517,cs),
(639,1517,o),
(751,1373,o),
(751,1089,cs)
);
},
{
closed = 1;
nodes = (
(1381,1489,l),
(601,0,l),
(469,0,l),
(1249,1489,l)
);
},
{
closed = 1;
nodes = (
(1747,106,o),
(1631,-28,o),
(1422,-28,cs),
(1209,-28,o),
(1096,111,o),
(1096,398,cs),
(1096,685,o),
(1210,825,o),
(1422,825,cs),
(1635,825,o),
(1747,682,o),
(1747,398,cs)
);
},
{
closed = 1;
nodes = (
(609,1305,o),
(567,1410,o),
(426,1410,cs),
(277,1410,o),
(241,1289,o),
(241,1089,cs),
(241,879,o),
(276,770,o),
(426,770,cs),
(569,770,o),
(609,884,o),
(609,1090,cs)
);
},
{
closed = 1;
nodes = (
(1605,613,o),
(1563,719,o),
(1422,719,cs),
(1273,719,o),
(1237,598,o),
(1237,398,cs),
(1237,187,o),
(1272,78,o),
(1422,78,cs),
(1565,78,o),
(1605,192,o),
(1605,399,cs)
);
}
);
width = 1848;
},
{
layerId = "1BB6E906-3DFF-4986-8FED-FA70B47B0561";
shapes = (
{
closed = 1;
nodes = (
(1030,686,o),
(871,518,o),
(572,518,cs),
(269,518,o),
(109,677,o),
(109,1018,cs),
(109,1351,o),
(270,1518,o),
(572,1518,cs),
(879,1518,o),
(1030,1353,o),
(1030,1023,cs)
);
},
{
closed = 1;
nodes = (
(1840,1489,l),
(1060,0,l),
(763,0,l),
(1543,1489,l)
);
},
{
closed = 1;
nodes = (
(2496,136,o),
(2337,-32,o),
(2038,-32,cs),
(1735,-32,o),
(1575,127,o),
(1575,468,cs),
(1575,801,o),
(1736,969,o),
(2038,969,cs),
(2345,969,o),
(2496,803,o),
(2496,473,cs)
);
},
{
closed = 1;
nodes = (
(709,1161,o),
(697,1279,o),
(572,1279,cs),
(462,1279,o),
(436,1198,o),
(436,1018,cs),
(436,875,o),
(441,756,o),
(572,756,cs),
(683,756,o),
(709,835,o),
(709,1019,cs)
);
},
{
closed = 1;
nodes = (
(2175,612,o),
(2163,729,o),
(2038,729,cs),
(1928,729,o),
(1902,648,o),
(1902,468,cs),
(1902,326,o),
(1907,207,o),
(2038,207,cs),
(2149,207,o),
(2175,286,o),
(2175,469,cs)
);
}
);
width = 2607;
}
);
unicode = 37;
},
{
glyphname = ampersand;
layers = (
{
layerId = "0E45D8FB-8EA6-46E4-9786-99D047FDA37D";
shapes = (
{
closed = 1;
nodes = (
(1658,0,l),
(1213,0,l),
(1083,126,l),
(943,13,o),
(799,-31,o),
(638,-31,cs),
(292,-31,o),
(85,155,o),
(85,429,cs),
(85,638,o),
(197,745,o),
(345,834,c),
(234,922,o),
(155,1007,o),
(155,1164,cs),
(155,1336,o),
(290,1520,o),
(656,1520,cs),
(961,1520,o),
(1126,1387,o),
(1126,1198,cs),
(1126,1049,o),
(1044,900,o),
(807,823,c),
(1093,547,l),
(1093,654,o),
(1093,763,o),
(1093,869,c),
(1442,869,l),
(1442,758,ls),
(1442,625,o),
(1408,474,o),
(1302,353,c),
(1658,20,l)
);
},
{
closed = 1;
nodes = (
(518,674,l),
(491,638,o),
(463,553,o),
(463,488,cs),
(463,470,o),
(465,454,o),
(467,438,cs),
(485,310,o),
(596,229,o),
(714,229,cs),
(796,229,o),
(853,245,o),
(918,295,c)
);
},
{
closed = 1;
nodes = (
(669,948,l),
(731,1006,o),
(766,1069,o),
(766,1154,cs),
(766,1275,o),
(700,1307,o),
(640,1307,cs),
(612,1307,o),
(520,1294,o),
(520,1168,cs),
(520,1094,o),
(573,1030,o),
(638,975,c)
);
}
);
width = 1600;
},
{
layerId = "C991CE7E-6C6E-4D0C-9C0C-9C2488C785EC";
shapes = (
{
closed = 1;
nodes = (
(1445,0,l),
(1189,0,l),
(985,213,l),
(849,39,o),
(713,-31,o),
(532,-31,cs),
(264,-31,o),
(67,145,o),
(67,409,cs),
(67,629,o),
(193,749,o),
(343,843,c),
(207,933,o),
(142,1022,o),
(142,1175,cs),
(142,1368,o),
(306,1520,o),
(537,1520,cs),
(755,1520,o),
(913,1389,o),
(913,1211,cs),
(913,1077,o),
(851,921,o),
(626,841,c),
(978,479,l),
(997,593,o),
(998,696,o),
(998,909,c),
(1193,909,l),
(1193,813,ls),
(1193,687,o),
(1161,509,o),
(1088,368,c),
(1374,74,l)
);
},
{
closed = 1;
nodes = (
(438,772,l),
(392,742,o),
(300,677,o),
(276,518,cs),
(273,498,o),
(272,478,o),
(272,457,cs),
(272,268,o),
(392,132,o),
(585,132,cs),
(713,132,o),
(812,182,o),
(898,301,c)
);
},
{
closed = 1;
nodes = (
(674,958,o),
(717,1081,o),
(717,1191,cs),
(717,1318,o),
(628,1394,o),
(529,1394,cs),
(409,1394,o),
(338,1301,o),
(338,1184,cs),
(338,1102,o),
(358,1016,o),
(532,912,c)
);
}
);
width = 1380;
},
{
layerId = "9CEFB641-1E07-4D1E-B575-5426CF06F412";
shapes = (
{
closed = 1;
nodes = (
(1374,0,l),
(1181,0,l),
(952,242,l),
(818,48,o),
(684,-31,o),
(497,-31,cs),
(255,-31,o),
(61,142,o),
(61,402,cs),
(61,626,o),
(192,750,o),
(342,846,c),
(198,937,o),
(138,1027,o),
(138,1179,cs),
(138,1379,o),
(311,1520,o),
(497,1520,cs),
(686,1520,o),
(842,1390,o),
(842,1215,cs),
(842,1086,o),
(787,928,o),
(566,847,c),
(940,456,l),
(965,573,o),
(966,674,o),
(966,922,c),
(1110,922,l),
(1110,831,ls),
(1110,708,o),
(1079,521,o),
(1017,373,c),
(1279,92,l)
);
},
{
closed = 1;
nodes = (
(411,805,l),
(359,777,o),
(246,718,o),
(214,528,cs),
(210,507,o),
(208,486,o),
(207,463,cs),
(201,254,o),
(324,100,o),
(542,100,cs),
(685,100,o),
(798,161,o),
(891,303,c)
);
},
{
closed = 1;
nodes = (
(486,900,l),
(655,942,o),
(701,1085,o),
(701,1203,cs),
(701,1332,o),
(604,1423,o),
(492,1423,cs),
(341,1423,o),
(277,1303,o),
(277,1189,cs),
(277,1105,o),
(286,1011,o),
(497,891,c)
);
}
);
width = 1307;
},
{
layerId = "1BB6E906-3DFF-4986-8FED-FA70B47B0561";
shapes = (
{
closed = 1;
nodes = (
(1729,0,l),
(1221,0,l),
(1116,97,l),
(974,4,o),
(828,-31,o),
(673,-31,cs),
(301,-31,o),
(91,158,o),
(91,436,cs),
(91,641,o),
(198,744,o),
(346,831,c),
(243,918,o),
(159,1002,o),
(159,1160,cs),
(159,1325,o),
(285,1520,o),
(696,1520,cs),
(1030,1520,o),
(1197,1386,o),
(1197,1194,cs),
(1197,1040,o),
(1108,893,o),
(867,817,c),
(1131,570,l),
(1125,674,o),
(1125,785,o),
(1125,856,c),
(1525,856,l),
(1525,740,ls),
(1525,604,o),
(1490,462,o),
(1373,348,c),
(1753,2,l)
);
},
{
closed = 1;
nodes = (
(545,641,l),
(524,603,o),
(517,512,o),
(525,478,c),
(526,461,o),
(529,446,o),
(532,432,cs),
(556,324,o),
(664,261,o),
(757,261,cs),
(824,261,o),
(867,266,o),
(925,293,c)
);
},
{
closed = 1;
nodes = (
(715,960,l),
(750,1022,o),
(782,1065,o),
(782,1142,cs),
(782,1261,o),
(724,1278,o),
(677,1278,c),
(680,1278,o),
(581,1292,o),
(581,1163,cs),
(581,1091,o),
(645,1035,o),
(673,996,c)
);
}
);
width = 1673;
}
);
unicode = 38;
},
{
glyphname = quotesingle;
layers = (
{
layerId = "0E45D8FB-8EA6-46E4-9786-99D047FDA37D";
shapes = (
{
closed = 1;
nodes = (
(445,1556,l),
(385,967,l),
(179,967,l),
(119,1556,l)
);
}
);
width = 564;
},
{
layerId = "C991CE7E-6C6E-4D0C-9C0C-9C2488C785EC";
shapes = (
{
closed = 1;
nodes = (
(327,1556,l),
(284,977,l),
(148,977,l),
(105,1556,l)
);
}
);
width = 432;
},
{
layerId = "9CEFB641-1E07-4D1E-B575-5426CF06F412";
shapes = (
{
closed = 1;
nodes = (
(288,1556,l),
(250,980,l),
(138,980,l),
(100,1556,l)
);
}
);
width = 388;
},
{
layerId = "1BB6E906-3DFF-4986-8FED-FA70B47B0561";
shapes = (
{
closed = 1;
nodes = (
(484,1556,l),
(419,964,l),
(189,964,l),
(124,1556,l)
);
}
);
width = 608;
}
);
unicode = 39;
},
{
glyphname = parenleft;
layers = (
{
layerId = "0E45D8FB-8EA6-46E4-9786-99D047FDA37D";
shapes = (
{
closed = 1;
nodes = (
(850,-412,l),
(483,-412,l),
(259,-146,o),
(110,150,o),
(110,572,cs),
(110,1022,o),
(261,1290,o),
(483,1556,c),
(850,1556,l),
(850,1527,l),
(640,1337,o),
(424,1016,o),
(424,572,cs),
(424,164,o),
(609,-169,o),
(850,-383,c)
);
}
);
width = 930;
},
{
layerId = "C991CE7E-6C6E-4D0C-9C0C-9C2488C785EC";
shapes = (
{
closed = 1;
nodes = (
(710,-412,l),
(481,-412,l),
(247,-134,o),
(108,147,o),
(108,572,cs),
(108,984,o),
(244,1279,o),
(481,1556,c),
(710,1556,l),
(710,1546,l),
(511,1365,o),
(284,1032,o),
(284,572,cs),
(284,138,o),
(487,-205,o),
(710,-402,c)
);
}
);
width = 784;
},
{
layerId = "9CEFB641-1E07-4D1E-B575-5426CF06F412";
shapes = (
{
closed = 1;
nodes = (
(663,-412,l),
(480,-412,l),
(243,-130,o),
(107,146,o),
(107,572,cs),
(107,971,o),
(238,1275,o),
(480,1556,c),
(663,1556,l),
(663,1552,l),
(468,1374,o),
(237,1037,o),
(237,572,cs),
(237,129,o),
(446,-217,o),
(663,-408,c)
);
}
);
width = 735;
},
{
layerId = "1BB6E906-3DFF-4986-8FED-FA70B47B0561";
shapes = (
{
closed = 1;
nodes = (
(897,-412,l),
(484,-412,l),
(263,-150,o),
(111,151,o),
(111,572,cs),
(111,1035,o),
(267,1294,o),
(484,1556,c),
(897,1556,l),
(897,1521,l),
(683,1328,o),
(471,1011,o),
(471,572,cs),
(471,173,o),
(650,-157,o),
(897,-377,c)
);
}
);
width = 979;
}
);
unicode = 40;
},
{
glyphname = parenright;
layers = (
{
layerId = "0E45D8FB-8EA6-46E4-9786-99D047FDA37D";
shapes = (
{
closed = 1;
nodes = (
(819,149,o),
(668,-147,o),
(446,-412,c),
(79,-412,l),
(79,-383,l),
(306,-181,o),
(505,152,o),
(505,572,cs),
(505,998,o),
(297,1332,o),
(79,1527,c),
(79,1556,l),
(446,1556,l),
(668,1288,o),
(819,1022,o),
(819,572,cs)
);
}
);
width = 930;
},
{
layerId = "C991CE7E-6C6E-4D0C-9C0C-9C2488C785EC";
shapes = (
{
closed = 1;
nodes = (
(676,156,o),
(537,-134,o),
(303,-412,c),
(74,-412,l),
(74,-402,l),
(294,-204,o),
(500,152,o),
(500,572,cs),
(500,1012,o),
(284,1353,o),
(74,1546,c),
(74,1556,l),
(303,1556,l),
(536,1278,o),
(676,987,o),
(676,572,cs)
);
}
);
width = 784;
},
{
layerId = "9CEFB641-1E07-4D1E-B575-5426CF06F412";
shapes = (
{
closed = 1;
nodes = (
(628,158,o),
(493,-130,o),
(255,-412,c),
(72,-412,l),
(72,-408,l),
(290,-212,o),
(498,152,o),
(498,572,cs),
(498,1017,o),
(280,1360,o),
(72,1552,c),
(72,1556,l),
(255,1556,l),
(492,1275,o),
(628,975,o),
(628,572,cs)
);
}
);
width = 735;
},
{
layerId = "1BB6E906-3DFF-4986-8FED-FA70B47B0561";
shapes = (
{
closed = 1;
nodes = (
(867,147,o),
(712,-151,o),
(494,-412,c),
(81,-412,l),
(81,-377,l),
(310,-173,o),
(507,152,o),
(507,572,cs),
(507,993,o),
(301,1325,o),
(81,1521,c),
(81,1556,l),
(494,1556,l),
(712,1291,o),
(867,1034,o),
(867,572,cs)
);
}
);
width = 979;
}
);
unicode = 41;
},
{
glyphname = asterisk;
layers = (
{
layerId = "0E45D8FB-8EA6-46E4-9786-99D047FDA37D";
shapes = (
{
closed = 1;
nodes = (
(1133,861,l),
(1030,709,l),
(718,922,l),
(729,574,l),
(529,574,l),
(535,912,l),
(230,708,l),
(128,862,l),
(472,1065,l),
(130,1270,l),
(230,1424,l),
(535,1217,l),
(529,1556,l),
(728,1556,l),
(722,1217,l),
(1030,1423,l),
(1133,1269,l),
(787,1066,l)
);
}
);
width = 1304;
},
{
layerId = "C991CE7E-6C6E-4D0C-9C0C-9C2488C785EC";
shapes = (
{
closed = 1;
nodes = (
(1007,887,l),
(942,777,l),
(615,994,l),
(622,630,l),
(497,630,l),
(503,994,l),
(178,776,l),
(112,886,l),
(466,1093,l),
(112,1300,l),
(178,1410,l),
(504,1191,l),
(497,1556,l),
(622,1556,l),
(614,1191,l),
(942,1409,l),
(1007,1299,l),
(653,1094,l)
);
}
);
width = 1118;
},
{
layerId = "9CEFB641-1E07-4D1E-B575-5426CF06F412";
shapes = (
{
closed = 1;
nodes = (
(965,896,l),
(913,800,l),
(581,1018,l),
(586,649,l),
(486,649,l),
(492,1021,l),
(161,799,l),
(107,894,l),
(464,1102,l),
(106,1310,l),
(161,1405,l),
(494,1182,l),
(486,1556,l),
(587,1556,l),
(578,1182,l),
(913,1404,l),
(965,1309,l),
(608,1103,l)
);
}
);
width = 1056;
},
{
layerId = "1BB6E906-3DFF-4986-8FED-FA70B47B0561";
shapes = (
{
closed = 1;
nodes = (
(1175,852,l),
(1059,686,l),
(752,898,l),
(765,555,l),
(540,555,l),
(546,885,l),
(247,685,l),
(133,854,l),
(474,1056,l),
(136,1260,l),
(247,1429,l),
(545,1226,l),
(540,1556,l),
(763,1556,l),
(758,1226,l),
(1059,1428,l),
(1175,1259,l),
(832,1057,l)
);
}
);
width = 1366;
}
);
unicode = 42;
},
{
glyphname = plus;
layers = (
{
layerId = "0E45D8FB-8EA6-46E4-9786-99D047FDA37D";
shapes = (
{
closed = 1;
nodes = (
(1482,528,l),
(970,528,l),
(970,20,l),
(706,20,l),
(706,528,l),
(194,528,l),
(194,786,l),
(706,786,l),
(706,1294,l),
(970,1294,l),
(970,786,l),
(1482,786,l)
);
}
);
width = 1676;
},
{
layerId = "C991CE7E-6C6E-4D0C-9C0C-9C2488C785EC";
shapes = (
{
closed = 1;
nodes = (
(1333,572,l),
(828,572,l),
(828,67,l),
(662,67,l),
(662,572,l),
(157,572,l),
(157,732,l),
(662,732,l),
(662,1237,l),
(828,1237,l),
(828,732,l),
(1333,732,l)
);
}
);
width = 1490;
},
{
layerId = "9CEFB641-1E07-4D1E-B575-5426CF06F412";
shapes = (
{
closed = 1;
nodes = (
(1283,587,l),
(781,587,l),
(781,83,l),
(647,83,l),
(647,587,l),
(145,587,l),
(145,714,l),
(647,714,l),
(647,1218,l),
(781,1218,l),
(781,714,l),
(1283,714,l)
);
}
);
width = 1428;
},
{
layerId = "1BB6E906-3DFF-4986-8FED-FA70B47B0561";
shapes = (
{
closed = 1;
nodes = (
(1532,513,l),
(1017,513,l),
(1017,4,l),
(721,4,l),
(721,513,l),
(206,513,l),
(206,804,l),
(721,804,l),
(721,1313,l),
(1017,1313,l),
(1017,804,l),
(1532,804,l)
);
}
);
width = 1738;
}
);
unicode = 43;
},
{
glyphname = comma;
layers = (
{
layerId = "0E45D8FB-8EA6-46E4-9786-99D047FDA37D";
shapes = (
{
closed = 1;
nodes = (
(558,393,l),
(208,-370,l),
(-5,-370,l),
(192,393,l)
);
}
);
width = 640;
},
{
layerId = "C991CE7E-6C6E-4D0C-9C0C-9C2488C785EC";
shapes = (
{
closed = 1;
nodes = (
(500,285,l),
(220,-370,l),
(74,-370,l),
(250,285,l)
);
}
);
width = 620;
},
{
layerId = "9CEFB641-1E07-4D1E-B575-5426CF06F412";
shapes = (
{
closed = 1;
nodes = (
(481,249,l),
(224,-370,l),
(100,-370,l),
(269,249,l)
);
}
);
width = 613;
},
{
layerId = "1BB6E906-3DFF-4986-8FED-FA70B47B0561";
shapes = (
{
closed = 1;
nodes = (
(577,429,l),
(204,-370,l),
(-31,-370,l),
(173,429,l)
);
}
);
width = 647;
}
);
unicode = 44;
},
{
glyphname = hyphen;
layers = (
{
layerId = "A417CD05-194C-4445-84A4-F7DDCEBB9456";
name = "#instance";
shapes = (
{
closed = 1;
nodes = (
(813,498,l),
(117,498,l),
(117,808,l),
(813,808,l)
);
}
);
width = 929;
},
{
layerId = "0E45D8FB-8EA6-46E4-9786-99D047FDA37D";
shapes = (
{
closed = 1;
nodes = (
(773,514,l),
(110,514,l),
(110,792,l),
(773,792,l)
);
}
);
width = 883;
},
{
layerId = "C991CE7E-6C6E-4D0C-9C0C-9C2488C785EC";
shapes = (
{
closed = 1;
nodes = (
(654,563,l),
(90,563,l),
(90,744,l),
(654,744,l)
);
}
);
width = 744;
},
{
layerId = "9CEFB641-1E07-4D1E-B575-5426CF06F412";
shapes = (
{
closed = 1;
nodes = (
(614,579,l),
(83,579,l),
(83,728,l),
(614,728,l)
);
}
);
width = 698;
},
{
layerId = "1BB6E906-3DFF-4986-8FED-FA70B47B0561";
shapes = (
{
closed = 1;
nodes = (
(813,498,l),
(117,498,l),
(117,808,l),
(813,808,l)
);
}
);
width = 929;
}
);
unicode = (45,173);
},
{
glyphname = period;
layers = (
{
layerId = "0E45D8FB-8EA6-46E4-9786-99D047FDA37D";
shapes = (
{
closed = 1;
nodes = (
(497,0,l),
(143,0,l),
(143,393,l),
(497,393,l)
);
}
);
width = 640;
},
{
layerId = "C991CE7E-6C6E-4D0C-9C0C-9C2488C785EC";
shapes = (
{
closed = 1;
nodes = (
(429,0,l),
(190,0,l),
(190,285,l),
(429,285,l)
);
}
);
width = 620;
},
{
layerId = "9CEFB641-1E07-4D1E-B575-5426CF06F412";
shapes = (
{
closed = 1;
nodes = (
(406,0,l),
(206,0,l),
(206,249,l),
(406,249,l)
);
}
);
width = 613;
},
{
layerId = "1BB6E906-3DFF-4986-8FED-FA70B47B0561";
shapes = (
{
closed = 1;
nodes = (
(520,0,l),
(127,0,l),
(127,429,l),
(520,429,l)
);
}
);
width = 647;
}
);
unicode = 46;
},
{
glyphname = slash;
layers = (
{
layerId = "0E45D8FB-8EA6-46E4-9786-99D047FDA37D";
shapes = (
{
closed = 1;
nodes = (
(998,1556,l),
(405,-324,l),
(118,-324,l),
(708,1556,l)
);
}
);
width = 1182;
},
{
layerId = "C991CE7E-6C6E-4D0C-9C0C-9C2488C785EC";
shapes = (
{
closed = 1;
nodes = (
(728,1556,l),
(145,-324,l),
(-24,-324,l),
(556,1556,l)
);
}
);
width = 783;
},
{
layerId = "9CEFB641-1E07-4D1E-B575-5426CF06F412";
shapes = (
{
closed = 1;
nodes = (
(638,1556,l),
(58,-324,l),
(-71,-324,l),
(505,1556,l)
);
}
);
width = 650;
},
{
layerId = "1BB6E906-3DFF-4986-8FED-FA70B47B0561";
shapes = (
{
closed = 1;
nodes = (
(1088,1556,l),
(492,-324,l),
(165,-324,l),
(759,1556,l)
);
}
);
width = 1315;
}
);
unicode = 47;
},
{
glyphname = zero;
layers = (
{
layerId = "0E45D8FB-8EA6-46E4-9786-99D047FDA37D";
shapes = (
{
closed = 1;
nodes = (
(1226,231,o),
(1070,-31,o),
(652,-31,cs),
(235,-31,o),
(78,235,o),
(78,744,cs),
(78,1254,o),
(237,1519,o),
(652,1519,cs),
(1078,1519,o),
(1226,1239,o),
(1226,745,cs)
);
},
{
closed = 1;
nodes = (
(836,435,o),
(851,563,o),
(851,745,cs),
(851,1124,o),
(792,1244,o),
(652,1244,cs),
(503,1244,o),
(453,1094,o),
(453,743,cs),
(453,390,o),
(506,244,o),
(652,244,cs),
(721,244,o),
(778,283,o),
(805,357,c)
);
}
);
width = 1304;
},
{
layerId = "C991CE7E-6C6E-4D0C-9C0C-9C2488C785EC";
shapes = (
{
closed = 1;
nodes = (
(1035,209,o),
(882,-31,o),
(559,-31,cs),
(230,-31,o),
(83,219,o),
(83,743,cs),
(83,1281,o),
(235,1519,o),
(559,1519,cs),
(888,1519,o),
(1035,1259,o),
(1035,745,cs)
);
},
{
closed = 1;
nodes = (
(817,389,o),
(832,538,o),
(832,745,cs),
(832,1145,o),
(778,1354,o),
(559,1354,cs),
(331,1354,o),
(286,1133,o),
(286,743,cs),
(286,371,o),
(318,134,o),
(559,134,cs),
(670,134,o),
(739,187,o),
(779,291,cs)
);
}
);
width = 1118;
},
{
layerId = "9CEFB641-1E07-4D1E-B575-5426CF06F412";
shapes = (
{
closed = 1;
nodes = (
(971,202,o),
(819,-31,o),
(528,-31,cs),
(228,-31,o),
(85,214,o),
(85,743,cs),
(85,1290,o),
(234,1519,o),
(528,1519,cs),
(825,1519,o),
(971,1266,o),
(971,745,cs)
);
},
{
closed = 1;
nodes = (
(811,374,o),
(826,530,o),
(826,745,cs),
(826,1152,o),
(773,1391,o),
(528,1391,cs),
(274,1391,o),
(230,1146,o),
(230,743,cs),
(230,365,o),
(255,97,o),
(528,97,cs),
(653,97,o),
(726,155,o),
(770,269,cs)
);
}
);
width = 1056;
},
{
layerId = "1BB6E906-3DFF-4986-8FED-FA70B47B0561";
shapes = (
{
closed = 1;
nodes = (
(1290,238,o),
(1133,-31,o),
(683,-31,cs),
(237,-31,o),
(76,240,o),
(76,744,cs),
(76,1245,o),
(238,1519,o),
(683,1519,cs),
(1141,1519,o),
(1290,1232,o),
(1290,745,cs)
);
},
{
closed = 1;
nodes = (
(842,450,o),
(857,571,o),
(857,745,cs),
(857,1117,o),
(797,1207,o),
(683,1207,cs),
(560,1207,o),
(509,1081,o),
(509,743,cs),
(509,396,o),
(569,281,o),
(683,281,cs),
(738,281,o),
(791,315,o),
(814,379,c)
);
}
);
width = 1366;
}
);
unicode = 48;
},
{
glyphname = one;
layers = (
{
layerId = "0E45D8FB-8EA6-46E4-9786-99D047FDA37D";
shapes = (
{
closed = 1;
nodes = (
(1179,0,l),
(195,0,l),
(195,260,l),
(509,260,l),
(509,1047,l),
(195,1047,l),
(195,1290,l),
(402,1290,o),
(536,1332,o),
(546,1493,c),
(872,1493,l),
(872,260,l),
(1179,260,l)
);
}
);
width = 1304;
},
{
layerId = "C991CE7E-6C6E-4D0C-9C0C-9C2488C785EC";
shapes = (
{
closed = 1;
nodes = (
(952,0,l),
(226,0,l),
(226,152,l),
(496,152,l),
(496,1150,l),
(226,1150,l),
(226,1286,l),
(426,1286,o),
(521,1328,o),
(533,1494,c),
(688,1494,l),
(688,152,l),
(952,152,l)
);
}
);
width = 1118;
},
{
layerId = "9CEFB641-1E07-4D1E-B575-5426CF06F412";
shapes = (
{
closed = 1;
nodes = (
(876,0,l),
(236,0,l),
(236,116,l),
(492,116,l),
(492,1184,l),
(236,1184,l),
(236,1285,l),
(434,1285,o),
(516,1327,o),
(529,1494,c),
(627,1494,l),
(627,116,l),
(876,116,l)
);
}
);
width = 1056;
},
{
layerId = "1BB6E906-3DFF-4986-8FED-FA70B47B0561";
shapes = (
{
closed = 1;
nodes = (
(1255,0,l),
(185,0,l),
(185,296,l),
(513,296,l),
(513,1013,l),
(185,1013,l),
(185,1291,l),
(394,1291,o),
(541,1333,o),
(550,1493,c),
(933,1493,l),
(933,296,l),
(1255,296,l)
);
}
);
width = 1366;
}
);
unicode = 49;
},
{
glyphname = two;
layers = (
{
layerId = "0E45D8FB-8EA6-46E4-9786-99D047FDA37D";
shapes = (
{
closed = 1;
nodes = (
(1245,0,l),
(151,0,l),
(151,243,l),
(480,503,o),
(715,732,o),
(775,883,cs),
(793,927,o),
(802,972,o),
(802,1018,cs),
(802,1150,o),
(723,1233,o),
(567,1233,cs),
(437,1233,o),
(309,1164,o),
(216,1100,c),
(187,1100,l),
(187,1425,l),
(265,1462,o),
(485,1518,o),
(642,1518,cs),
(995,1518,o),
(1180,1354,o),
(1180,1068,cs),
(1180,884,o),
(1100,731,o),
(912,538,cs),
(799,426,o),
(663,318,o),
(614,281,c),
(1245,281,l)
);
}
);
width = 1304;
},
{
layerId = "C991CE7E-6C6E-4D0C-9C0C-9C2488C785EC";
shapes = (
{
closed = 1;
nodes = (
(1028,0,l),
(109,0,l),
(109,209,l),
(355,440,o),
(623,724,o),
(700,867,cs),
(741,942,o),
(762,1019,o),
(762,1100,cs),
(762,1260,o),
(657,1347,o),
(507,1347,cs),
(368,1347,o),
(233,1275,o),
(151,1218,c),
(140,1218,l),
(140,1430,l),
(217,1467,o),
(395,1520,o),
(522,1520,cs),
(796,1520,o),
(966,1362,o),
(966,1110,cs),
(966,866,o),
(837,714,o),
(690,557,cs),
(567,426,o),
(379,248,o),
(296,171,c),
(1028,171,l)
);
}
);
width = 1118;
},
{
layerId = "9CEFB641-1E07-4D1E-B575-5426CF06F412";
shapes = (
{
closed = 1;
nodes = (
(956,0,l),
(95,0,l),
(95,198,l),
(313,419,o),
(592,721,o),
(675,862,c),
(724,947,o),
(749,1035,o),
(749,1127,cs),
(749,1297,o),
(635,1385,o),
(487,1385,cs),
(345,1385,o),
(208,1312,o),
(129,1257,c),
(124,1257,l),
(124,1432,l),
(201,1469,o),
(365,1521,o),
(482,1521,cs),
(730,1521,o),
(895,1365,o),
(895,1124,cs),
(895,860,o),
(749,708,o),
(616,563,cs),
(490,426,o),
(284,225,o),
(190,134,c),
(956,134,l)
);
}
);
width = 1056;
},
{
layerId = "1BB6E906-3DFF-4986-8FED-FA70B47B0561";
shapes = (
{
closed = 1;
nodes = (
(1317,0,l),
(165,0,l),
(165,254,l),
(522,524,o),
(746,735,o),
(800,888,c),
(810,922,o),
(815,956,o),
(815,991,cs),
(815,1113,o),
(745,1195,o),
(587,1195,cs),
(460,1195,o),
(334,1127,o),
(238,1061,c),
(203,1061,l),
(203,1423,l),
(281,1460,o),
(515,1517,o),
(682,1517,cs),
(1061,1517,o),
(1251,1351,o),
(1251,1054,cs),
(1251,890,o),
(1188,737,o),
(986,532,c),
(876,426,o),
(758,341,o),
(720,318,c),
(1317,318,l)
);
}
);
width = 1366;
}
);
unicode = 50;
},
{
glyphname = three;
layers = (
{
layerId = "0E45D8FB-8EA6-46E4-9786-99D047FDA37D";
shapes = (
{
closed = 1;
nodes = (
(420,1233,o),
(283,1171,o),
(177,1107,c),
(146,1107,l),
(146,1426,l),
(244,1469,o),
(448,1520,o),
(620,1520,cs),
(977,1520,o),
(1169,1386,o),
(1169,1147,cs),
(1169,980,o),
(1063,839,o),
(902,801,c),
(902,787,l),
(1026,767,o),
(1208,691,o),
(1208,451,cs),
(1208,161,o),
(995,-31,o),
(604,-31,cs),
(374,-31,o),
(207,14,o),
(103,63,c),
(103,386,l),
(139,386,l),
(245,318,o),
(414,258,o),
(533,258,cs),
(643,258,o),
(789,279,o),
(823,399,cs),
(829,420,o),
(832,444,o),
(832,474,cs),
(832,652,o),
(659,648,o),
(493,648,cs),
(429,648,l),
(429,910,l),
(488,910,ls),
(668,910,o),
(795,932,o),
(795,1085,cs),
(795,1218,o),
(644,1233,o),
(556,1233,cs)
);
}
);
width = 1304;
},
{
layerId = "C991CE7E-6C6E-4D0C-9C0C-9C2488C785EC";
shapes = (
{
closed = 1;
nodes = (
(370,1347,o),
(235,1273,o),
(150,1217,c),
(138,1217,l),
(138,1428,l),
(220,1472,o),
(396,1520,o),
(527,1520,cs),
(792,1520,o),
(973,1397,o),
(973,1161,cs),
(973,998,o),
(846,858,o),
(698,827,c),
(698,813,l),
(818,789,o),
(1002,707,o),
(1002,442,cs),
(1002,159,o),
(795,-31,o),
(504,-31,cs),
(357,-31,o),
(193,11,o),
(97,61,c),
(97,272,l),
(111,272,l),
(191,213,o),
(352,142,o),
(492,142,cs),
(645,142,o),
(799,225,o),
(799,456,cs),
(799,510,o),
(791,554,o),
(775,589,cs),
(720,706,o),
(607,724,o),
(443,724,cs),
(401,724,l),
(401,890,l),
(434,890,ls),
(608,890,o),
(771,946,o),
(771,1140,cs),
(771,1319,o),
(599,1347,o),
(511,1347,cs)
);
}
);
width = 1118;
},
{
layerId = "9CEFB641-1E07-4D1E-B575-5426CF06F412";
shapes = (
{
closed = 1;
nodes = (
(353,1385,o),
(219,1307,o),
(141,1254,c),
(135,1254,l),
(135,1429,l),
(212,1473,o),
(379,1520,o),
(496,1520,cs),
(730,1520,o),
(908,1401,o),
(908,1166,cs),
(908,1004,o),
(774,864,o),
(630,836,c),
(630,822,l),
(749,796,o),
(933,712,o),
(933,439,cs),
(933,158,o),
(728,-31,o),
(471,-31,cs),
(351,-31,o),
(188,10,o),
(95,60,c),
(95,234,l),
(102,234,l),
(173,178,o),
(331,103,o),
(478,103,cs),
(646,103,o),
(802,207,o),
(791,475,c),
(789,540,o),
(777,591,o),
(756,627,c),
(683,724,o),
(590,749,o),
(426,749,cs),
(392,749,l),
(392,883,l),
(416,883,ls),
(588,883,o),
(763,951,o),
(763,1158,cs),
(763,1353,o),
(584,1385,o),
(496,1385,cs)
);
}
);
width = 1056;
},
{
layerId = "1BB6E906-3DFF-4986-8FED-FA70B47B0561";
shapes = (
{
closed = 1;
nodes = (
(437,1195,o),
(299,1137,o),
(186,1070,c),
(149,1070,l),
(149,1425,l),
(252,1468,o),
(465,1520,o),
(651,1520,cs),
(1039,1520,o),
(1234,1382,o),
(1234,1142,cs),
(1234,974,o),
(1135,833,o),
(970,792,c),
(970,778,l),
(1095,760,o),
(1277,686,o),
(1277,454,cs),
(1277,162,o),
(1062,-31,o),
(637,-31,cs),
(380,-31,o),
(212,15,o),
(105,64,c),
(105,424,l),
(148,424,l),
(263,353,o),
(435,297,o),
(547,297,cs),
(642,297,o),
(786,297,o),
(831,380,c),
(839,390,o),
(846,407,o),
(851,436,c),
(869,634,o),
(676,623,o),
(510,623,cs),
(438,623,l),
(438,917,l),
(506,917,ls),
(688,917,o),
(803,927,o),
(803,1067,cs),
(803,1184,o),
(659,1195,o),
(571,1195,cs)
);
}
);
width = 1366;
}
);
unicode = 51;
},
{
glyphname = four;
layers = (
{
layerId = "0E45D8FB-8EA6-46E4-9786-99D047FDA37D";
shapes = (
{
closed = 1;
nodes = (
(1262,347,l),
(1061,347,l),
(1061,-4,l),
(700,-4,l),
(700,347,l),
(45,347,l),
(45,625,l),
(688,1489,l),
(1061,1489,l),
(1061,615,l),
(1262,615,l)
);
},
{
closed = 1;
nodes = (
(700,615,l),
(700,1122,l),
(323,615,l)
);
}
);
width = 1304;
},
{
layerId = "C991CE7E-6C6E-4D0C-9C0C-9C2488C785EC";
shapes = (
{
closed = 1;
nodes = (
(1067,512,l),
(890,512,l),
(890,0,l),
(698,0,l),
(698,512,l),
(40,512,l),
(40,722,l),
(706,1489,l),
(890,1489,l),
(890,672,l),
(1067,672,l)
);
},
{
closed = 1;
nodes = (
(698,672,l),
(698,1254,l),
(196,672,l)
);
}
);
width = 1118;
},
{
layerId = "9CEFB641-1E07-4D1E-B575-5426CF06F412";
shapes = (
{
closed = 1;
nodes = (
(1002,567,l),
(833,567,l),
(833,1,l),
(697,1,l),
(697,567,l),
(38,567,l),
(38,754,l),
(712,1489,l),
(833,1489,l),
(833,691,l),
(1002,691,l)
);
},
{
closed = 1;
nodes = (
(697,691,l),
(697,1298,l),
(154,691,l)
);
}
);
width = 1056;
},
{
layerId = "1BB6E906-3DFF-4986-8FED-FA70B47B0561";
shapes = (
{
closed = 1;
nodes = (
(1327,292,l),
(1118,292,l),
(1118,-5,l),
(701,-5,l),
(701,292,l),
(47,292,l),
(47,593,l),
(682,1489,l),
(1118,1489,l),
(1118,596,l),
(1327,596,l)
);
},
{
closed = 1;
nodes = (
(701,596,l),
(701,1078,l),
(365,596,l)
);
}
);
width = 1366;
}
);
unicode = 52;
},
{
glyphname = five;
layers = (
{
layerId = "0E45D8FB-8EA6-46E4-9786-99D047FDA37D";
shapes = (
{
closed = 1;
nodes = (
(1211,206,o),
(1013,-31,o),
(603,-31,cs),
(385,-31,o),
(224,14,o),
(120,59,c),
(120,384,l),
(154,384,l),
(220,344,o),
(374,258,o),
(538,258,cs),
(677,258,o),
(835,301,o),
(835,491,cs),
(835,652,o),
(672,694,o),
(510,694,c),
(402,694,o),
(294,673,o),
(216,653,c),
(184,653,l),
(184,1489,l),
(1170,1489,l),
(1170,1208,l),
(537,1208,l),
(537,960,l),
(608,963,ls),
(636,964,o),
(658,965,o),
(673,965,cs),
(986,965,o),
(1211,831,o),
(1211,504,cs)
);
}
);
width = 1304;
},
{
layerId = "C991CE7E-6C6E-4D0C-9C0C-9C2488C785EC";
shapes = (
{
closed = 1;
nodes = (
(1011,173,o),
(808,-31,o),
(514,-31,cs),
(374,-31,o),
(221,3,o),
(124,54,c),
(124,265,l),
(138,265,l),
(209,208,o),
(399,142,o),
(517,142,cs),
(661,142,o),
(808,231,o),
(808,475,cs),
(808,694,o),
(664,758,o),
(479,758,c),
(400,757,o),
(308,746,o),
(242,733,cs),
(185,722,l),
(185,1489,l),
(1002,1489,l),
(1002,1314,l),
(378,1314,l),
(378,918,l),
(449,924,ls),
(472,926,o),
(493,926,o),
(513,926,cs),
(776,926,o),
(1011,833,o),
(1011,474,cs)
);
}
);
width = 1118;
},
{
layerId = "9CEFB641-1E07-4D1E-B575-5426CF06F412";
shapes = (
{
closed = 1;
nodes = (
(944,162,o),
(740,-31,o),
(484,-31,cs),
(370,-31,o),
(220,-1,o),
(125,52,c),
(125,225,l),
(133,225,l),
(205,163,o),
(407,103,o),
(510,103,cs),
(656,103,o),
(799,208,o),
(799,470,cs),
(799,708,o),
(661,779,o),
(469,779,c),
(399,778,o),
(313,770,o),
(251,760,c),
(185,745,l),
(185,1489,l),
(946,1489,l),
(946,1349,l),
(325,1349,l),
(325,904,l),
(396,911,ls),
(417,913,o),
(438,913,o),
(460,913,cs),
(706,913,o),
(944,834,o),
(944,464,cs)
);
}
);
width = 1056;
},
{
layerId = "1BB6E906-3DFF-4986-8FED-FA70B47B0561";
shapes = (
{
closed = 1;
nodes = (
(1278,217,o),
(1081,-31,o),
(633,-31,cs),
(389,-31,o),
(225,18,o),
(119,61,c),
(119,424,l),
(159,424,l),
(224,389,o),
(366,297,o),
(545,297,cs),
(682,297,o),
(844,324,o),
(844,496,cs),
(844,638,o),
(675,673,o),
(520,673,c),
(403,673,o),
(289,649,o),
(207,626,c),
(184,630,l),
(184,1489,l),
(1226,1489,l),
(1226,1173,l),
(590,1173,l),
(590,974,l),
(661,976,ls),
(691,977,o),
(713,978,o),
(726,978,cs),
(1056,978,o),
(1278,830,o),
(1278,514,cs)
);
}
);
width = 1366;
}
);
unicode = 53;
},
{
glyphname = six;
layers = (
{
layerId = "0E45D8FB-8EA6-46E4-9786-99D047FDA37D";
shapes = (
{
closed = 1;
nodes = (
(1236,209,o),
(1041,-31,o),
(678,-31,cs),
(309,-31,o),
(98,200,o),
(98,664,cs),
(98,1144,o),
(294,1517,o),
(863,1517,cs),
(953,1517,o),
(1078,1499,o),
(1110,1492,c),
(1110,1199,l),
(1083,1199,l),
(1051,1216,o),
(958,1245,o),
(860,1245,cs),
(626,1245,o),
(501,1117,o),
(473,889,c),
(542,933,o),
(609,968,o),
(690,983,cs),
(722,989,o),
(756,992,o),
(792,992,cs),
(1047,992,o),
(1236,832,o),
(1236,507,cs)
);
},
{
closed = 1;
nodes = (
(862,640,o),
(802,713,o),
(675,730,cs),
(660,732,o),
(645,732,o),
(629,732,cs),
(575,732,o),
(519,717,o),
(471,697,c),
(471,684,o),
(469,650,o),
(469,606,cs),
(469,573,l),
(475,303,o),
(575,222,o),
(678,222,cs),
(783,222,o),
(862,318,o),
(862,489,cs)
);
}
);
width = 1304;
},
{
layerId = "C991CE7E-6C6E-4D0C-9C0C-9C2488C785EC";
shapes = (
{
closed = 1;
nodes = (
(1051,145,o),
(809,-31,o),
(578,-31,cs),
(280,-31,o),
(85,190,o),
(85,654,cs),
(85,1146,o),
(283,1517,o),
(753,1517,cs),
(817,1517,o),
(877,1510,o),
(922,1496,c),
(922,1305,l),
(913,1305,l),
(878,1324,o),
(800,1345,o),
(726,1345,cs),
(478,1345,o),
(318,1175,o),
(290,847,c),
(385,913,o),
(480,951,o),
(600,951,cs),
(629,951,o),
(656,949,o),
(681,946,cs),
(857,925,o),
(1051,792,o),
(1051,483,cs)
);
},
{
closed = 1;
nodes = (
(848,665,o),
(768,787,o),
(556,787,cs),
(532,787,o),
(510,786,o),
(487,782,cs),
(417,771,o),
(353,743,o),
(290,705,c),
(287,682,o),
(286,662,o),
(286,639,cs),
(286,611,ls),
(286,166,o),
(491,132,o),
(579,132,cs),
(737,132,o),
(848,246,o),
(848,475,cs)
);
}
);
width = 1118;
},
{
layerId = "9CEFB641-1E07-4D1E-B575-5426CF06F412";
shapes = (
{
closed = 1;
nodes = (
(989,124,o),
(732,-31,o),
(545,-31,cs),
(270,-31,o),
(81,187,o),
(81,651,cs),
(81,1147,o),
(279,1517,o),
(716,1517,cs),
(772,1517,o),
(810,1514,o),
(859,1497,c),
(859,1340,l),
(856,1340,l),
(820,1360,o),
(747,1378,o),
(681,1378,cs),
(429,1378,o),
(257,1194,o),
(229,833,c),
(333,906,o),
(437,945,o),
(570,940,c),
(598,938,o),
(623,935,o),
(644,931,cs),
(794,903,o),
(989,779,o),
(989,475,cs)
);
},
{
closed = 1;
nodes = (
(843,673,o),
(757,812,o),
(516,806,cs),
(489,805,o),
(465,804,o),
(440,799,cs),
(364,784,o),
(298,752,o),
(230,708,c),
(226,681,o),
(225,666,o),
(225,650,cs),
(225,624,l),
(223,120,o),
(463,102,o),
(546,102,cs),
(722,102,o),
(843,222,o),
(843,470,cs)
);
}
);
width = 1056;
},
{
layerId = "1BB6E906-3DFF-4986-8FED-FA70B47B0561";
shapes = (
{
closed = 1;
nodes = (
(1298,230,o),
(1118,-31,o),
(711,-31,cs),
(319,-31,o),
(102,203,o),
(102,667,cs),
(102,1143,o),
(298,1517,o),
(900,1517,cs),
(998,1517,o),
(1145,1495,o),
(1173,1491,c),
(1173,1164,l),
(1140,1164,l),
(1109,1180,o),
(1011,1212,o),
(905,1212,cs),
(675,1212,o),
(562,1098,o),
(534,903,c),
(594,940,o),
(652,974,o),
(720,994,c),
(753,1002,o),
(789,1006,o),
(829,1007,cs),
(1110,1014,o),
(1298,845,o),
(1298,515,cs)
);
},
{
closed = 1;
nodes = (
(867,632,o),
(813,688,o),
(715,711,cs),
(703,714,o),
(690,714,o),
(676,715,cs),
(628,719,o),
(574,708,o),
(531,694,c),
(532,685,o),
(530,646,o),
(530,595,cs),
(530,560,l),
(538,349,o),
(603,252,o),
(711,252,cs),
(798,252,o),
(867,342,o),
(867,494,cs)
);
}
);
width = 1366;
}
);
unicode = 54;
},
{
glyphname = seven;
layers = (
{
layerId = "0E45D8FB-8EA6-46E4-9786-99D047FDA37D";
shapes = (
{
closed = 1;
nodes = (
(1212,1193,l),
(578,0,l),
(162,0,l),
(827,1208,l),
(117,1208,l),
(117,1489,l),
(1212,1489,l)
);
}
);
width = 1304;
},
{
layerId = "C991CE7E-6C6E-4D0C-9C0C-9C2488C785EC";
shapes = (
{
closed = 1;
nodes = (
(1044,1266,l),
(400,0,l),
(187,0,l),
(869,1314,l),
(99,1314,l),
(99,1489,l),
(1044,1489,l)
);
}
);
width = 1118;
},
{
layerId = "9CEFB641-1E07-4D1E-B575-5426CF06F412";
shapes = (
{
closed = 1;
nodes = (
(988,1290,l),
(341,0,l),
(195,0,l),
(883,1349,l),
(93,1349,l),
(93,1489,l),
(988,1489,l)
);
}
);
width = 1056;
},
{
layerId = "1BB6E906-3DFF-4986-8FED-FA70B47B0561";
shapes = (
{
closed = 1;
nodes = (
(1268,1169,l),
(637,0,l),
(154,0,l),
(813,1173,l),
(123,1173,l),
(123,1489,l),
(1268,1489,l)
);
}
);
width = 1366;
}
);
unicode = 55;
},
{
glyphname = eight;
layers = (
{
layerId = "0E45D8FB-8EA6-46E4-9786-99D047FDA37D";
shapes = (
{
closed = 1;
nodes = (
(841,1205,o),
(769,1270,o),
(655,1270,cs),
(554,1270,o),
(472,1213,o),
(472,1128,cs),
(472,1037,o),
(527,988,o),
(644,943,cs),
(674,931,o),
(713,916,o),
(766,896,c),
(817,965,o),
(841,1018,o),
(841,1103,cs)
);
},
{
closed = 1;
nodes = (
(872,518,o),
(828,549,o),
(624,634,cs),
(588,648,o),
(556,661,o),
(528,673,c),
(475,620,o),
(428,539,o),
(428,450,cs),
(428,313,o),
(524,222,o),
(668,222,cs),
(760,222,o),
(872,276,o),
(872,399,cs)
);
},
{
closed = 1;
nodes = (
(268,-34,o),
(63,139,o),
(63,402,cs),
(63,573,o),
(161,682,o),
(338,757,c),
(338,763,l),
(166,846,o),
(103,970,o),
(103,1121,cs),
(103,1332,o),
(293,1523,o),
(654,1523,cs),
(1026,1523,o),
(1203,1357,o),
(1203,1147,cs),
(1203,1003,o),
(1119,887,o),
(953,812,c),
(953,806,l),
(1150,725,o),
(1241,598,o),
(1241,415,cs),
(1241,153,o),
(1018,-34,o),
(650,-34,cs)
);
}
);
width = 1304;
},
{
layerId = "C991CE7E-6C6E-4D0C-9C0C-9C2488C785EC";
shapes = (
{
closed = 1;
nodes = (
(811,1273,o),
(716,1376,o),
(558,1376,cs),
(413,1376,o),
(310,1291,o),
(310,1154,cs),
(310,1020,o),
(384,967,o),
(546,890,cs),
(588,870,o),
(627,854,o),
(662,843,c),
(778,931,o),
(811,1019,o),
(811,1142,cs)
);
},
{
closed = 1;
nodes = (
(839,534,o),
(789,608,o),
(573,693,cs),
(535,708,o),
(493,724,o),
(446,745,c),
(334,671,o),
(275,560,o),
(275,426,cs),
(275,246,o),
(397,115,o),
(561,115,cs),
(727,115,o),
(839,221,o),
(839,396,cs)
);
},
{
closed = 1;
nodes = (
(267,-34,o),
(74,145,o),
(74,411,cs),
(74,571,o),
(162,715,o),
(326,795,c),
(326,801,l),
(179,884,o),
(110,978,o),
(110,1131,cs),
(110,1352,o),
(299,1523,o),
(559,1523,cs),
(827,1523,o),
(1007,1363,o),
(1007,1144,cs),
(1007,1011,o),
(924,864,o),
(780,793,c),
(780,787,l),
(951,705,o),
(1044,600,o),
(1044,415,cs),
(1044,161,o),
(832,-34,o),
(559,-34,cs)
);
}
);
width = 1118;
},
{
layerId = "9CEFB641-1E07-4D1E-B575-5426CF06F412";
shapes = (
{
closed = 1;
nodes = (
(801,1296,o),
(698,1411,o),
(526,1411,cs),
(366,1411,o),
(256,1317,o),
(256,1163,cs),
(256,1014,o),
(336,960,o),
(513,872,cs),
(559,850,o),
(598,833,o),
(627,825,c),
(765,920,o),
(801,1019,o),
(801,1155,cs)
);
},
{
closed = 1;
nodes = (
(828,539,o),
(776,628,o),
(556,713,cs),
(517,728,o),
(472,745,o),
(419,769,c),
(287,688,o),
(224,567,o),
(224,418,cs),
(224,224,o),
(355,79,o),
(525,79,cs),
(716,79,o),
(828,203,o),
(828,395,cs)
);
},
{
closed = 1;
nodes = (
(267,-34,o),
(78,147,o),
(78,414,cs),
(78,570,o),
(162,726,o),
(322,808,c),
(322,814,l),
(183,897,o),
(112,981,o),
(112,1134,cs),
(112,1359,o),
(301,1523,o),
(527,1523,cs),
(761,1523,o),
(942,1365,o),
(942,1143,cs),
(942,1014,o),
(859,856,o),
(722,787,c),
(722,781,l),
(885,698,o),
(978,601,o),
(978,415,cs),
(978,164,o),
(770,-34,o),
(529,-34,cs)
);
}
);
width = 1056;
},
{
layerId = "1BB6E906-3DFF-4986-8FED-FA70B47B0561";
shapes = (
{
closed = 1;
nodes = (
(851,1182,o),
(787,1235,o),
(687,1235,cs),
(601,1235,o),
(526,1187,o),
(526,1119,cs),
(526,1043,o),
(575,995,o),
(677,961,c),
(703,951,o),
(742,937,o),
(801,914,c),
(830,976,o),
(851,1018,o),
(851,1090,cs)
);
},
{
closed = 1;
nodes = (
(883,513,o),
(841,529,o),
(641,614,c),
(606,628,o),
(577,640,o),
(555,649,c),
(522,603,o),
(479,532,o),
(479,458,cs),
(479,335,o),
(566,258,o),
(704,258,cs),
(771,258,o),
(883,294,o),
(883,400,cs)
);
},
{
closed = 1;
nodes = (
(268,-34,o),
(59,137,o),
(59,399,cs),
(59,574,o),
(161,671,o),
(342,744,c),
(342,750,l),
(162,833,o),
(101,967,o),
(101,1118,cs),
(101,1325,o),
(291,1523,o),
(686,1523,cs),
(1092,1523,o),
(1268,1355,o),
(1268,1148,cs),
(1268,1000,o),
(1184,895,o),
(1011,818,c),
(1011,812,l),
(1216,732,o),
(1307,597,o),
(1307,415,cs),
(1307,150,o),
(1080,-34,o),
(680,-34,cs)
);
}
);
width = 1366;
}
);
unicode = 56;
},
{
glyphname = nine;
layers = (
{
layerId = "0E45D8FB-8EA6-46E4-9786-99D047FDA37D";
shapes = (
{
closed = 1;
nodes = (
(836,884,ls),
(836,1150,o),
(755,1266,o),
(629,1266,cs),
(550,1266,o),
(442,1199,o),
(442,998,cs),
(442,821,o),
(533,756,o),
(675,756,cs),
(732,756,o),
(796,775,o),
(833,791,c),
(833,801,o),
(836,820,o),
(836,848,cs)
);
},
{
closed = 1;
nodes = (
(68,1281,o),
(277,1519,o),
(631,1519,cs),
(989,1519,o),
(1206,1305,o),
(1206,828,cs),
(1206,323,o),
(981,-29,o),
(437,-29,cs),
(349,-29,o),
(218,-12,o),
(190,-4,c),
(190,289,l),
(219,289,l),
(256,271,o),
(323,243,o),
(441,243,cs),
(644,243,o),
(799,343,o),
(830,599,c),
(768,560,o),
(704,525,o),
(645,511,cs),
(607,501,o),
(562,496,o),
(511,496,cs),
(264,496,o),
(68,648,o),
(68,979,cs)
);
}
);
width = 1304;
},
{
layerId = "C991CE7E-6C6E-4D0C-9C0C-9C2488C785EC";
shapes = (
{
closed = 1;
nodes = (
(832,1259,o),
(680,1356,o),
(539,1356,cs),
(373,1356,o),
(270,1233,o),
(270,1013,cs),
(270,807,o),
(362,701,o),
(561,701,cs),
(643,701,o),
(755,733,o),
(828,783,c),
(828,803,o),
(832,837,o),
(832,877,c)
);
},
{
closed = 1;
nodes = (
(67,1290,o),
(258,1519,o),
(540,1519,cs),
(857,1519,o),
(1033,1279,o),
(1033,834,cs),
(1033,300,o),
(801,-29,o),
(365,-29,cs),
(311,-29,o),
(245,-23,o),
(196,-8,c),
(196,183,l),
(206,183,l),
(235,164,o),
(320,143,o),
(392,143,cs),
(652,143,o),
(807,321,o),
(827,641,c),
(716,567,o),
(629,537,o),
(517,537,cs),
(489,537,o),
(462,538,o),
(437,541,cs),
(250,564,o),
(67,703,o),
(67,1005,cs)
);
}
);
width = 1118;
},
{
layerId = "9CEFB641-1E07-4D1E-B575-5426CF06F412";
shapes = (
{
closed = 1;
nodes = (
(831,875,l),
(831,1295,o),
(655,1386,o),
(509,1386,cs),
(314,1386,o),
(213,1244,o),
(213,1018,cs),
(213,802,o),
(305,683,o),
(523,683,cs),
(613,683,o),
(741,719,o),
(826,780,c),
(826,804,o),
(831,843,o),
(831,887,c)
);
},
{
closed = 1;
nodes = (
(67,1293,o),
(252,1519,o),
(510,1519,cs),
(813,1519,o),
(975,1270,o),
(975,836,cs),
(975,292,o),
(741,-29,o),
(341,-29,cs),
(298,-29,o),
(254,-27,o),
(198,-9,c),
(198,148,l),
(202,148,l),
(228,128,o),
(319,110,o),
(376,110,cs),
(655,110,o),
(810,314,o),
(826,655,c),
(699,569,o),
(604,541,o),
(474,546,c),
(450,549,o),
(429,552,o),
(412,556,c),
(245,587,o),
(67,721,o),
(67,1014,cs)
);
}
);
width = 1056;
},
{
layerId = "1BB6E906-3DFF-4986-8FED-FA70B47B0561";
shapes = (
{
closed = 1;
nodes = (
(837,886,ls),
(837,1114,o),
(780,1236,o),
(659,1236,cs),
(609,1236,o),
(499,1188,o),
(499,993,cs),
(499,826,o),
(590,774,o),
(713,774,cs),
(762,774,o),
(810,789,o),
(835,794,c),
(835,800,o),
(837,814,o),
(837,838,cs)
);
},
{
closed = 1;
nodes = (
(68,1278,o),
(283,1519,o),
(661,1519,cs),
(1033,1519,o),
(1264,1314,o),
(1264,826,cs),
(1264,331,o),
(1041,-29,o),
(461,-29,cs),
(362,-29,o),
(209,-8,o),
(188,-3,c),
(188,324,l),
(223,324,l),
(263,307,o),
(324,276,o),
(457,276,cs),
(641,276,o),
(796,350,o),
(831,585,c),
(785,558,o),
(729,521,o),
(688,502,c),
(646,489,o),
(595,482,o),
(536,481,c),
(269,473,o),
(68,630,o),
(68,970,cs)
);
}
);
width = 1366;
}
);
unicode = 57;
},
{
glyphname = colon;
layers = (
{
layerId = "0E45D8FB-8EA6-46E4-9786-99D047FDA37D";
shapes = (
{
closed = 1;
nodes = (
(549,730,l),
(195,730,l),
(195,1123,l),
(549,1123,l)
);
},
{
closed = 1;
nodes = (
(549,0,l),
(195,0,l),
(195,393,l),
(549,393,l)
);
}
);
width = 744;
},
{
layerId = "C991CE7E-6C6E-4D0C-9C0C-9C2488C785EC";
shapes = (
{
closed = 1;
nodes = (
(482,832,l),
(243,832,l),
(243,1117,l),
(482,1117,l)
);
},
{
closed = 1;
nodes = (
(482,0,l),
(243,0,l),
(243,285,l),
(482,285,l)
);
}
);
width = 724;
},
{
layerId = "9CEFB641-1E07-4D1E-B575-5426CF06F412";
shapes = (
{
closed = 1;
nodes = (
(460,866,l),
(259,866,l),
(259,1115,l),
(460,1115,l)
);
},
{
closed = 1;
nodes = (
(460,0,l),
(259,0,l),
(259,249,l),
(460,249,l)
);
}
);
width = 717;
},
{
layerId = "1BB6E906-3DFF-4986-8FED-FA70B47B0561";
shapes = (
{
closed = 1;
nodes = (
(571,696,l),
(179,696,l),
(179,1125,l),
(571,1125,l)
);
},
{
closed = 1;
nodes = (
(571,0,l),
(179,0,l),
(179,429,l),
(571,429,l)
);
}
);
width = 751;
}
);
unicode = 58;
},
{
glyphname = semicolon;
layers = (
{
layerId = "0E45D8FB-8EA6-46E4-9786-99D047FDA37D";
shapes = (
{
closed = 1;
nodes = (
(549,730,l),
(195,730,l),
(195,1123,l),
(549,1123,l)
);
},
{
closed = 1;
nodes = (
(610,393,l),
(260,-370,l),
(47,-370,l),
(244,393,l)
);
}
);
width = 744;
},
{
layerId = "C991CE7E-6C6E-4D0C-9C0C-9C2488C785EC";
shapes = (
{
closed = 1;
nodes = (
(482,832,l),
(243,832,l),
(243,1117,l),
(482,1117,l)
);
},
{
closed = 1;
nodes = (
(548,285,l),
(268,-370,l),
(122,-370,l),
(298,285,l)
);
}
);
width = 724;
},
{
layerId = "9CEFB641-1E07-4D1E-B575-5426CF06F412";
shapes = (
{
closed = 1;
nodes = (
(460,866,l),
(259,866,l),
(259,1115,l),
(460,1115,l)
);
},
{
closed = 1;
nodes = (
(527,249,l),
(271,-370,l),
(147,-370,l),
(316,249,l)
);
}
);
width = 717;
},
{
layerId = "1BB6E906-3DFF-4986-8FED-FA70B47B0561";
shapes = (
{
closed = 1;
nodes = (
(571,696,l),
(179,696,l),
(179,1125,l),
(571,1125,l)
);
},
{
closed = 1;
nodes = (
(631,429,l),
(257,-370,l),
(22,-370,l),
(226,429,l)
);
}
);
width = 751;
}
);
unicode = (59,894);
},
{
glyphname = less;
layers = (
{
layerId = "0E45D8FB-8EA6-46E4-9786-99D047FDA37D";
shapes = (
{
closed = 1;
nodes = (
(1465,14,l),
(181,547,l),
(181,767,l),
(1465,1300,l),
(1465,1024,l),
(566,656,l),
(1465,290,l)
);
}
);
width = 1676;
},
{
layerId = "C991CE7E-6C6E-4D0C-9C0C-9C2488C785EC";
shapes = (
{
closed = 1;
nodes = (
(1275,79,l),
(201,592,l),
(201,712,l),
(1275,1225,l),
(1275,1047,l),
(442,652,l),
(1275,257,l)
);
}
);
width = 1490;
},
{
layerId = "9CEFB641-1E07-4D1E-B575-5426CF06F412";
shapes = (
{
closed = 1;
nodes = (
(1212,101,l),
(208,607,l),
(208,694,l),
(1212,1200,l),
(1212,1055,l),
(401,651,l),
(1212,246,l)
);
}
);
width = 1428;
},
{
layerId = "1BB6E906-3DFF-4986-8FED-FA70B47B0561";
shapes = (
{
closed = 1;
nodes = (
(1528,-8,l),
(174,532,l),
(174,785,l),
(1528,1325,l),
(1528,1016,l),
(607,657,l),
(1528,301,l)
);
}
);
width = 1738;
}
);
unicode = 60;
},
{
glyphname = equal;
layers = (
{
layerId = "0E45D8FB-8EA6-46E4-9786-99D047FDA37D";
shapes = (
{
closed = 1;
nodes = (
(1452,776,l),
(224,776,l),
(224,1034,l),
(1452,1034,l)
);
},
{
closed = 1;
nodes = (
(1452,280,l),
(224,280,l),
(224,538,l),
(1452,538,l)
);
}
);
width = 1676;
},
{
layerId = "C991CE7E-6C6E-4D0C-9C0C-9C2488C785EC";
shapes = (
{
closed = 1;
nodes = (
(1298,782,l),
(192,782,l),
(192,942,l),
(1298,942,l)
);
},
{
closed = 1;
nodes = (
(1298,362,l),
(192,362,l),
(192,522,l),
(1298,522,l)
);
}
);
width = 1490;
},
{
layerId = "9CEFB641-1E07-4D1E-B575-5426CF06F412";
shapes = (
{
closed = 1;
nodes = (
(1247,784,l),
(181,784,l),
(181,911,l),
(1247,911,l)
);
},
{
closed = 1;
nodes = (
(1247,389,l),
(181,389,l),
(181,517,l),
(1247,517,l)
);
}
);
width = 1428;
},
{
layerId = "1BB6E906-3DFF-4986-8FED-FA70B47B0561";
shapes = (
{
closed = 1;
nodes = (
(1503,774,l),
(235,774,l),
(235,1065,l),
(1503,1065,l)
);
},
{
closed = 1;
nodes = (
(1503,253,l),
(235,253,l),
(235,543,l),
(1503,543,l)
);
}
);
width = 1738;
}
);
unicode = 61;
},
{
glyphname = greater;
layers = (
{
layerId = "0E45D8FB-8EA6-46E4-9786-99D047FDA37D";
shapes = (
{
closed = 1;
nodes = (
(1495,547,l),
(211,14,l),
(211,290,l),
(1110,657,l),
(211,1024,l),
(211,1300,l),
(1495,767,l)
);
}
);
width = 1676;
},
{
layerId = "C991CE7E-6C6E-4D0C-9C0C-9C2488C785EC";
shapes = (
{
closed = 1;
nodes = (
(1289,592,l),
(215,79,l),
(215,257,l),
(1048,652,l),
(215,1047,l),
(215,1225,l),
(1289,712,l)
);
}
);
width = 1490;
},
{
layerId = "9CEFB641-1E07-4D1E-B575-5426CF06F412";
shapes = (
{
closed = 1;
nodes = (
(1220,607,l),
(216,101,l),
(216,246,l),
(1027,650,l),
(216,1055,l),
(216,1200,l),
(1220,694,l)
);
}
);
width = 1428;
},
{
layerId = "1BB6E906-3DFF-4986-8FED-FA70B47B0561";
shapes = (
{
closed = 1;
nodes = (
(1564,532,l),
(210,-8,l),
(210,301,l),
(1131,659,l),
(210,1016,l),
(210,1325,l),
(1564,785,l)
);
}
);
width = 1738;
}
);
unicode = 62;
},
{
glyphname = question;
layers = (
{
layerId = "0E45D8FB-8EA6-46E4-9786-99D047FDA37D";
shapes = (
{
closed = 1;
nodes = (
(1084,865,o),
(926,727,o),
(677,628,c),
(677,400,l),
(335,400,l),
(335,735,l),
(443,765,o),
(569,813,o),
(645,897,cs),
(683,940,o),
(705,991,o),
(705,1054,cs),
(705,1073,o),
(704,1090,o),
(700,1106,cs),
(680,1200,o),
(594,1243,o),
(467,1243,cs),
(357,1243,o),
(207,1179,o),
(140,1132,c),
(111,1132,l),
(111,1433,l),
(194,1470,o),
(381,1519,o),
(562,1519,cs),
(887,1519,o),
(1084,1360,o),
(1084,1126,cs)
);
},
{
closed = 1;
nodes = (
(705,0,l),
(311,0,l),
(311,264,l),
(705,264,l)
);
}
);
width = 1160;
},
{
layerId = "C991CE7E-6C6E-4D0C-9C0C-9C2488C785EC";
shapes = (
{
closed = 1;
nodes = (
(912,866,o),
(707,736,o),
(526,628,c),
(526,400,l),
(347,400,l),
(347,705,l),
(413,746,o),
(541,823,o),
(594,875,cs),
(647,926,o),
(686,982,o),
(700,1050,cs),
(705,1073,o),
(708,1098,o),
(708,1124,cs),
(708,1276,o),
(600,1348,o),
(452,1348,cs),
(321,1348,o),
(190,1291,o),
(120,1245,c),
(109,1245,l),
(109,1449,l),
(193,1483,o),
(355,1519,o),
(471,1519,cs),
(741,1519,o),
(912,1367,o),
(912,1139,cs)
);
},
{
closed = 1;
nodes = (
(542,0,l),
(338,0,l),
(338,211,l),
(542,211,l)
);
}
);
width = 970;
},
{
layerId = "9CEFB641-1E07-4D1E-B575-5426CF06F412";
shapes = (
{
closed = 1;
nodes = (
(855,866,o),
(634,739,o),
(476,628,c),
(476,400,l),
(351,400,l),
(351,695,l),
(403,740,o),
(532,826,o),
(577,868,cs),
(635,921,o),
(680,979,o),
(698,1049,c),
(705,1073,o),
(709,1101,o),
(711,1130,c),
(717,1301,o),
(602,1383,o),
(447,1383,cs),
(309,1383,o),
(184,1328,o),
(113,1283,c),
(108,1283,l),
(108,1454,l),
(193,1487,o),
(346,1519,o),
(441,1519,cs),
(692,1519,o),
(855,1369,o),
(855,1143,cs)
);
},
{
closed = 1;
nodes = (
(488,0,l),
(347,0,l),
(347,193,l),
(488,193,l)
);
}
);
width = 907;
},
{
layerId = "1BB6E906-3DFF-4986-8FED-FA70B47B0561";
shapes = (
{
closed = 1;
nodes = (
(1141,865,o),
(999,724,o),
(727,628,c),
(727,400,l),
(331,400,l),
(331,745,l),
(453,771,o),
(578,810,o),
(662,904,c),
(695,945,o),
(711,994,o),
(707,1055,c),
(705,1073,o),
(703,1087,o),
(697,1100,c),
(671,1175,o),
(592,1208,o),
(472,1208,cs),
(369,1208,o),
(213,1142,o),
(147,1094,c),
(112,1094,l),
(112,1428,l),
(194,1466,o),
(390,1519,o),
(592,1519,cs),
(936,1519,o),
(1141,1358,o),
(1141,1122,cs)
);
},
{
closed = 1;
nodes = (
(759,0,l),
(302,0,l),
(302,282,l),
(759,282,l)
);
}
);
width = 1223;
}
);
unicode = 63;
},
{
glyphname = at;
layers = (
{
layerId = "0E45D8FB-8EA6-46E4-9786-99D047FDA37D";
shapes = (
{
closed = 1;
nodes = (
(1751,486,o),
(1689,258,o),
(1615,139,c),
(1127,139,l),
(1112,217,l),
(1035,165,o),
(971,131,o),
(857,131,cs),
(651,131,o),
(499,318,o),
(499,631,cs),
(499,924,o),
(677,1143,o),
(905,1143,cs),
(988,1143,o),
(1060,1100,o),
(1096,1064,c),
(1096,1125,l),
(1170,1125,o),
(1243,1126,o),
(1317,1126,c),
(1317,318,l),
(1467,318,l),
(1507,405,o),
(1533,534,o),
(1533,657,cs),
(1533,1095,o),
(1281,1315,o),
(946,1315,cs),
(789,1315,o),
(647,1255,o),
(528,1136,cs),
(415,1021,o),
(340,849,o),
(340,645,cs),
(340,217,o),
(611,-30,o),
(941,-30,cs),
(1051,-30,o),
(1199,-8,o),
(1305,25,c),
(1305,-188,l),
(1180,-217,o),
(1082,-229,o),
(940,-229,cs),
(704,-229,o),
(496,-140,o),
(351,13,cs),
(204,168,o),
(118,389,o),
(118,647,cs),
(118,891,o),
(209,1111,o),
(358,1268,cs),
(506,1424,o),
(716,1518,o),
(945,1518,cs),
(1403,1518,o),
(1751,1174,o),
(1751,663,cs)
);
},
{
closed = 1;
nodes = (
(1091,908,l),
(1035,937,o),
(995,948,o),
(937,948,cs),
(805,948,o),
(736,819,o),
(736,634,cs),
(736,425,o),
(790,324,o),
(922,324,cs),
(989,324,o),
(1037,350,o),
(1091,404,c)
);
}
);
width = 1884;
},
{
layerId = "C991CE7E-6C6E-4D0C-9C0C-9C2488C785EC";
shapes = (
{
closed = 1;
nodes = (
(1739,477,o),
(1686,300,o),
(1592,157,c),
(1171,157,l),
(1146,273,l),
(1046,189,o),
(991,149,o),
(869,149,cs),
(664,149,o),
(519,317,o),
(519,631,cs),
(519,943,o),
(709,1128,o),
(915,1128,cs),
(1011,1128,o),
(1069,1103,o),
(1144,1062,c),
(1144,1110,l),
(1197,1110,o),
(1250,1110,o),
(1303,1110,c),
(1303,268,l),
(1530,268,l),
(1577,357,o),
(1601,538,o),
(1601,657,cs),
(1601,1087,o),
(1373,1383,o),
(956,1383,cs),
(758,1383,o),
(595,1311,o),
(467,1167,cs),
(339,1023,o),
(275,849,o),
(275,645,cs),
(275,208,o),
(547,-94,o),
(951,-94,cs),
(1057,-94,o),
(1186,-79,o),
(1291,-48,c),
(1291,-190,l),
(1180,-216,o),
(1061,-226,o),
(950,-226,cs),
(714,-226,o),
(518,-145,o),
(364,17,cs),
(209,179,o),
(132,389,o),
(132,647,cs),
(132,891,o),
(211,1098,o),
(371,1266,cs),
(531,1434,o),
(725,1518,o),
(955,1518,cs),
(1445,1518,o),
(1739,1165,o),
(1739,663,cs)
);
},
{
closed = 1;
nodes = (
(1142,926,l),
(1064,965,o),
(1009,980,o),
(941,980,cs),
(792,980,o),
(690,871,o),
(690,634,cs),
(690,421,o),
(755,304,o),
(908,304,cs),
(989,304,o),
(1069,347,o),
(1142,408,c)
);
}
);
width = 1862;
},
{
layerId = "9CEFB641-1E07-4D1E-B575-5426CF06F412";
shapes = (
{
closed = 1;
nodes = (
(1735,474,o),
(1685,314,o),
(1584,163,c),
(1186,163,l),
(1157,292,l),
(1050,197,o),
(998,155,o),
(873,155,cs),
(668,155,o),
(526,317,o),
(526,631,cs),
(526,949,o),
(720,1123,o),
(918,1123,cs),
(1019,1123,o),
(1072,1104,o),
(1160,1061,c),
(1160,1105,l),
(1206,1105,o),
(1252,1105,o),
(1298,1105,c),
(1298,251,l),
(1551,251,l),
(1600,341,o),
(1624,539,o),
(1624,657,cs),
(1624,1084,o),
(1404,1406,o),
(959,1406,cs),
(748,1406,o),
(578,1330,o),
(447,1177,cs),
(314,1024,o),
(253,849,o),
(253,645,cs),
(253,205,o),
(526,-115,o),
(954,-115,cs),
(1059,-115,o),
(1182,-103,o),
(1286,-72,c),
(1286,-191,l),
(1180,-216,o),
(1054,-225,o),
(953,-225,cs),
(717,-225,o),
(525,-147,o),
(368,18,cs),
(211,183,o),
(137,389,o),
(137,647,cs),
(137,891,o),
(212,1094,o),
(375,1265,cs),
(539,1437,o),
(728,1518,o),
(958,1518,cs),
(1459,1518,o),
(1735,1162,o),
(1735,663,cs)
);
},
{
closed = 1;
nodes = (
(1159,932,l),
(1074,974,o),
(1014,991,o),
(942,991,cs),
(788,991,o),
(675,888,o),
(675,634,cs),
(675,420,o),
(743,297,o),
(903,297,cs),
(989,297,o),
(1080,346,o),
(1159,409,c)
);
}
);
width = 1855;
},
{
layerId = "1BB6E906-3DFF-4986-8FED-FA70B47B0561";
shapes = (
{
closed = 1;
nodes = (
(1755,489,o),
(1690,244,o),
(1623,133,c),
(1112,133,l),
(1101,198,l),
(1031,157,o),
(964,125,o),
(853,125,cs),
(647,125,o),
(492,318,o),
(492,631,cs),
(492,918,o),
(666,1148,o),
(902,1148,cs),
(980,1148,o),
(1057,1099,o),
(1080,1065,c),
(1080,1130,l),
(1161,1130,o),
(1241,1131,o),
(1322,1131,c),
(1322,335,l),
(1446,335,l),
(1484,421,o),
(1510,533,o),
(1510,657,cs),
(1510,1098,o),
(1250,1292,o),
(943,1292,cs),
(799,1292,o),
(664,1236,o),
(548,1126,c),
(440,1020,o),
(362,849,o),
(362,645,cs),
(362,220,o),
(632,-9,o),
(938,-9,cs),
(1049,-9,o),
(1203,16,o),
(1310,49,c),
(1310,-187,l),
(1180,-217,o),
(1089,-230,o),
(937,-230,cs),
(701,-230,o),
(489,-138,o),
(347,12,cs),
(202,164,o),
(113,389,o),
(113,647,cs),
(113,891,o),
(208,1115,o),
(354,1269,cs),
(498,1421,o),
(713,1518,o),
(942,1518,cs),
(1389,1518,o),
(1755,1177,o),
(1755,663,cs)
);
},
{
closed = 1;
nodes = (
(1074,902,l),
(1025,928,o),
(990,937,o),
(936,937,cs),
(809,937,o),
(751,802,o),
(751,634,cs),
(751,426,o),
(802,331,o),
(927,331,cs),
(989,331,o),
(1026,351,o),
(1074,403,c)
);
}
);
width = 1891;
}
);
unicode = 64;
},
{
glyphname = A;
layers = (
{
layerId = "0E45D8FB-8EA6-46E4-9786-99D047FDA37D";
shapes = (
{
closed = 1;
nodes = (
(-6,0,l),
(497,1489,l),
(905,1489,l),
(1408,0,l),
(1023,0,l),
(930,304,l),
(462,304,l),
(369,0,l)
);
},
{
closed = 1;
nodes = (
(848,574,l),
(696,1065,l),
(544,574,l)
);
}
);
width = 1402;
},
{
layerId = "C991CE7E-6C6E-4D0C-9C0C-9C2488C785EC";
shapes = (
{
closed = 1;
nodes = (
(-10,0,l),
(492,1489,l),
(736,1489,l),
(1238,0,l),
(1029,0,l),
(894,416,l),
(325,416,l),
(190,0,l)
);
},
{
closed = 1;
nodes = (
(839,585,l),
(609,1287,l),
(380,585,l)
);
}
);
width = 1228;
},
{
layerId = "9CEFB641-1E07-4D1E-B575-5426CF06F412";
shapes = (
{
closed = 1;
nodes = (
(-11,0,l),
(490,1489,l),
(680,1489,l),
(1181,0,l),
(1031,0,l),
(882,453,l),
(279,453,l),
(130,0,l)
);
},
{
closed = 1;
nodes = (
(836,589,l),
(580,1361,l),
(325,589,l)
);
}
);
width = 1170;
},
{
layerId = "1BB6E906-3DFF-4986-8FED-FA70B47B0561";
shapes = (
{
closed = 1;
nodes = (
(-5,0,l),
(499,1489,l),
(961,1489,l),
(1465,0,l),
(1021,0,l),
(942,267,l),
(508,267,l),
(429,0,l)
);
},
{
closed = 1;
nodes = (
(851,570,l),
(725,991,l),
(599,570,l)
);
}
);
width = 1460;
}
);
unicode = 65;
},
{
glyphname = B;
layers = (
{
layerId = "0E45D8FB-8EA6-46E4-9786-99D047FDA37D";
shapes = (
{
closed = 1;
nodes = (
(1345,225,o),
(1194,82,o),
(1005,28,cs),
(938,9,o),
(853,0,o),
(750,0,cs),
(154,0,l),
(154,1489,l),
(605,1489,ls),
(875,1489,o),
(974,1486,o),
(1087,1424,cs),
(1194,1367,o),
(1246,1267,o),
(1246,1143,cs),
(1246,1000,o),
(1169,877,o),
(1041,824,c),
(1041,816,l),
(1223,779,o),
(1345,659,o),
(1345,456,cs)
);
},
{
closed = 1;
nodes = (
(866,1209,o),
(747,1216,o),
(552,1216,cs),
(526,1216,l),
(526,901,l),
(573,901,ls),
(709,901,o),
(732,897,o),
(787,924,cs),
(847,952,o),
(866,1004,o),
(866,1068,cs)
);
},
{
closed = 1;
nodes = (
(960,554,o),
(925,602,o),
(848,630,c),
(810,644,o),
(762,646,o),
(684,646,cs),
(526,646,l),
(526,273,l),
(622,273,ls),
(758,273,o),
(786,269,o),
(862,302,cs),
(931,332,o),
(960,393,o),
(960,463,cs)
);
}
);
width = 1405;
},
{
layerId = "C991CE7E-6C6E-4D0C-9C0C-9C2488C785EC";
shapes = (
{
closed = 1;
nodes = (
(1161,217,o),
(997,75,o),
(826,27,cs),
(762,9,o),
(679,0,o),
(578,0,cs),
(151,0,l),
(151,1489,l),
(546,1489,ls),
(763,1489,o),
(835,1484,o),
(937,1429,cs),
(1043,1371,o),
(1091,1277,o),
(1091,1153,cs),
(1091,1012,o),
(1009,896,o),
(882,835,c),
(882,827,l),
(1057,779,o),
(1161,647,o),
(1161,457,cs)
);
},
{
closed = 1;
nodes = (
(885,1319,o),
(729,1320,o),
(444,1320,cs),
(349,1320,l),
(349,884,l),
(461,884,ls),
(644,884,o),
(717,879,o),
(802,933,cs),
(861,970,o),
(885,1032,o),
(885,1125,cs)
);
},
{
closed = 1;
nodes = (
(955,561,o),
(932,627,o),
(834,680,c),
(766,714,o),
(713,719,o),
(574,719,cs),
(349,719,l),
(349,169,l),
(510,169,ls),
(684,169,o),
(769,178,o),
(847,232,cs),
(921,284,o),
(955,342,o),
(955,449,cs)
);
}
);
width = 1207;
},
{
layerId = "9CEFB641-1E07-4D1E-B575-5426CF06F412";
shapes = (
{
closed = 1;
nodes = (
(1100,214,o),
(931,73,o),
(766,27,cs),
(703,9,o),
(621,0,o),
(521,0,cs),
(150,0,l),
(150,1489,l),
(526,1489,ls),
(726,1489,o),
(789,1483,o),
(887,1431,c),
(993,1372,o),
(1039,1280,o),
(1039,1156,cs),
(1039,1016,o),
(956,902,o),
(829,839,c),
(829,831,l),
(1002,779,o),
(1100,643,o),
(1100,457,cs)
);
},
{
closed = 1;
nodes = (
(891,1356,o),
(723,1355,o),
(408,1355,cs),
(290,1355,l),
(290,878,l),
(424,878,ls),
(622,878,o),
(712,873,o),
(807,936,cs),
(866,976,o),
(891,1041,o),
(891,1144,cs)
);
},
{
closed = 1;
nodes = (
(953,563,o),
(934,635,o),
(829,697,c),
(751,737,o),
(697,743,o),
(537,743,cs),
(290,743,l),
(290,134,l),
(473,134,ls),
(659,134,o),
(763,148,o),
(842,209,cs),
(918,268,o),
(953,325,o),
(953,444,cs)
);
}
);
width = 1141;
},
{
layerId = "1BB6E906-3DFF-4986-8FED-FA70B47B0561";
shapes = (
{
closed = 1;
nodes = (
(1406,228,o),
(1260,84,o),
(1065,28,cs),
(997,9,o),
(911,0,o),
(807,0,cs),
(155,0,l),
(155,1489,l),
(625,1489,ls),
(912,1489,o),
(1020,1487,o),
(1137,1422,c),
(1244,1366,o),
(1298,1264,o),
(1298,1140,cs),
(1298,996,o),
(1222,871,o),
(1094,820,c),
(1094,812,l),
(1278,779,o),
(1406,663,o),
(1406,456,cs)
);
},
{
closed = 1;
nodes = (
(860,1172,o),
(753,1181,o),
(588,1181,cs),
(585,1181,l),
(585,907,l),
(610,907,ls),
(731,907,o),
(737,903,o),
(782,921,cs),
(842,946,o),
(860,995,o),
(860,1049,cs)
);
},
{
closed = 1;
nodes = (
(962,552,o),
(923,594,o),
(853,613,cs),
(825,621,o),
(778,622,o),
(721,622,cs),
(585,622,l),
(585,308,l),
(659,308,ls),
(783,308,o),
(792,299,o),
(867,325,cs),
(934,348,o),
(962,410,o),
(962,468,cs)
);
}
);
width = 1471;
}
);
unicode = 66;
},
{
glyphname = C;
layers = (
{
layerId = "0E45D8FB-8EA6-46E4-9786-99D047FDA37D";
shapes = (
{
closed = 1;
nodes = (
(796,-29,ls),
(370,-29,o),
(67,226,o),
(67,743,cs),
(67,1192,o),
(326,1518,o),
(797,1518,cs),
(995,1518,o),
(1132,1482,o),
(1301,1394,c),
(1301,1039,l),
(1263,1039,l),
(1185,1106,o),
(1036,1239,o),
(857,1239,cs),
(658,1239,o),
(453,1108,o),
(453,742,cs),
(453,400,o),
(644,250,o),
(859,250,cs),
(1051,250,o),
(1194,384,o),
(1267,449,c),
(1301,449,l),
(1301,99,l),
(1162,35,o),
(1004,-26,o),
(837,-29,c)
);
}
);
width = 1367;
},
{
layerId = "C991CE7E-6C6E-4D0C-9C0C-9C2488C785EC";
shapes = (
{
closed = 1;
nodes = (
(345,-27,o),
(66,233,o),
(66,743,cs),
(66,1203,o),
(312,1516,o),
(736,1516,cs),
(927,1516,o),
(1064,1462,o),
(1196,1390,c),
(1196,1151,l),
(1180,1151,l),
(1114,1209,o),
(970,1347,o),
(734,1347,cs),
(468,1347,o),
(272,1127,o),
(272,743,cs),
(272,343,o),
(481,144,o),
(734,144,cs),
(947,144,o),
(1098,254,o),
(1181,337,c),
(1196,337,l),
(1196,101,l),
(1075,43,o),
(940,-27,o),
(733,-27,c)
);
}
);
width = 1230;
},
{
layerId = "9CEFB641-1E07-4D1E-B575-5426CF06F412";
shapes = (
{
closed = 1;
nodes = (
(712,-26,l),
(337,-26,o),
(66,235,o),
(66,743,cs),
(66,1207,o),
(307,1515,o),
(716,1515,cs),
(904,1515,o),
(1041,1455,o),
(1161,1389,c),
(1161,1188,l),
(1152,1188,l),
(1090,1243,o),
(948,1383,o),
(693,1383,cs),
(405,1383,o),
(212,1133,o),
(212,743,cs),
(212,324,o),
(427,109,o),
(692,109,cs),
(912,109,o),
(1066,211,o),
(1152,300,c),
(1161,300,l),
(1161,102,l),
(1046,46,o),
(919,-27,o),
(698,-26,c)
);
}
);
width = 1184;
},
{
layerId = "1BB6E906-3DFF-4986-8FED-FA70B47B0561";
shapes = (
{
closed = 1;
nodes = (
(817,-30,ls),
(378,-30,o),
(67,224,o),
(67,743,cs),
(67,1188,o),
(331,1519,o),
(817,1519,cs),
(1018,1519,o),
(1155,1489,o),
(1336,1395,c),
(1336,1002,l),
(1291,1002,l),
(1209,1072,o),
(1058,1203,o),
(898,1203,cs),
(721,1203,o),
(513,1102,o),
(513,742,cs),
(513,419,o),
(698,285,o),
(901,285,cs),
(1086,285,o),
(1226,427,o),
(1296,486,c),
(1336,486,l),
(1336,98,l),
(1191,32,o),
(1025,-26,o),
(872,-30,c)
);
}
);
width = 1413;
}
);
unicode = 67;
},
{
glyphname = D;
layers = (
{
layerId = "0E45D8FB-8EA6-46E4-9786-99D047FDA37D";
shapes = (
{
closed = 1;
nodes = (
(1484,352,o),
(1223,73,o),
(910,21,cs),
(819,7,o),
(723,0,o),
(620,0,cs),
(154,0,l),
(154,1489,l),
(524,1489,ls),
(769,1489,o),
(979,1492,o),
(1167,1372,c),
(1364,1245,o),
(1484,1030,o),
(1484,743,cs)
);
},
{
closed = 1;
nodes = (
(1100,1044,o),
(958,1200,o),
(643,1210,cs),
(610,1211,o),
(573,1211,o),
(535,1211,cs),
(528,1211,l),
(528,279,l),
(535,279,ls),
(707,279,o),
(806,270,o),
(912,337,cs),
(1035,414,o),
(1100,554,o),
(1100,746,cs)
);
}
);
width = 1551;
},
{
layerId = "C991CE7E-6C6E-4D0C-9C0C-9C2488C785EC";
shapes = (
{
closed = 1;
nodes = (
(1325,359,o),
(1091,85,o),
(791,24,cs),
(713,8,o),
(614,0,o),
(494,0,cs),
(151,0,l),
(151,1489,l),
(490,1489,ls),
(773,1489,o),
(908,1445,o),
(1023,1371,c),
(1214,1243,o),
(1325,1033,o),
(1325,743,cs)
);
},
{
closed = 1;
nodes = (
(1119,1127,o),
(909,1319,o),
(500,1319,cs),
(475,1319,o),
(449,1319,o),
(424,1319,cs),
(349,1319,l),
(349,170,l),
(424,170,ls),
(624,170,o),
(776,176,o),
(912,269,cs),
(1048,362,o),
(1119,512,o),
(1119,746,cs)
);
}
);
width = 1389;
},
{
layerId = "9CEFB641-1E07-4D1E-B575-5426CF06F412";
shapes = (
{
closed = 1;
nodes = (
(1272,361,o),
(1047,89,o),
(751,25,cs),
(678,8,o),
(578,0,o),
(452,0,cs),
(150,0,l),
(150,1489,l),
(479,1489,ls),
(774,1489,o),
(884,1429,o),
(975,1371,c),
(1164,1242,o),
(1272,1034,o),
(1272,743,cs)
);
},
{
closed = 1;
nodes = (
(1125,1155,o),
(893,1359,o),
(452,1355,cs),
(430,1355,o),
(408,1355,o),
(387,1355,cs),
(289,1355,l),
(289,134,l),
(387,134,ls),
(596,134,o),
(766,145,o),
(912,246,cs),
(1052,345,o),
(1125,498,o),
(1125,746,cs)
);
}
);
width = 1335;
},
{
layerId = "1BB6E906-3DFF-4986-8FED-FA70B47B0561";
shapes = (
{
closed = 1;
nodes = (
(1537,350,o),
(1267,69,o),
(950,20,c),
(854,7,o),
(759,0,o),
(662,0,cs),
(155,0,l),
(155,1489,l),
(535,1489,ls),
(768,1489,o),
(1003,1508,o),
(1215,1372,cs),
(1414,1246,o),
(1537,1029,o),
(1537,743,cs)
);
},
{
closed = 1;
nodes = (
(1094,1016,o),
(974,1160,o),
(691,1174,cs),
(655,1175,o),
(614,1175,o),
(572,1175,c),
(588,1175,l),
(588,315,l),
(572,315,l),
(735,315,o),
(816,301,o),
(912,360,cs),
(1031,431,o),
(1094,568,o),
(1094,746,cs)
);
}
);
width = 1605;
}
);
unicode = 68;
},
{
glyphname = E;
layers = (
{
layerId = "0E45D8FB-8EA6-46E4-9786-99D047FDA37D";
shapes = (
{
closed = 1;
nodes = (
(154,0,l),
(154,1489,l),
(1161,1489,l),
(1161,1205,l),
(526,1205,l),
(526,944,l),
(1111,944,l),
(1111,660,l),
(526,660,l),
(526,284,l),
(1161,284,l),
(1161,0,l)
);
}
);
width = 1260;
},
{
layerId = "C991CE7E-6C6E-4D0C-9C0C-9C2488C785EC";
shapes = (
{
closed = 1;
nodes = (
(151,0,l),
(151,1489,l),
(1082,1489,l),
(1082,1313,l),
(349,1313,l),
(349,905,l),
(1032,905,l),
(1032,729,l),
(349,729,l),
(349,176,l),
(1082,176,l),
(1082,0,l)
);
}
);
width = 1149;
},
{
layerId = "9CEFB641-1E07-4D1E-B575-5426CF06F412";
shapes = (
{
closed = 1;
nodes = (
(150,0,l),
(150,1489,l),
(1056,1489,l),
(1056,1349,l),
(290,1349,l),
(290,892,l),
(1006,892,l),
(1006,752,l),
(290,752,l),
(290,140,l),
(1056,140,l),
(1056,0,l)
);
}
);
width = 1112;
},
{
layerId = "1BB6E906-3DFF-4986-8FED-FA70B47B0561";
shapes = (
{
closed = 1;
nodes = (
(155,0,l),
(155,1489,l),
(1187,1489,l),
(1187,1169,l),
(585,1169,l),
(585,957,l),
(1137,957,l),
(1137,637,l),
(585,637,l),
(585,320,l),
(1187,320,l),
(1187,0,l)
);
}
);
width = 1297;
}
);
unicode = 69;
},
{
glyphname = F;
layers = (
{
layerId = "0E45D8FB-8EA6-46E4-9786-99D047FDA37D";
shapes = (
{
closed = 1;
nodes = (
(1151,1205,l),
(526,1205,l),
(526,924,l),
(1101,924,l),
(1101,640,l),
(526,640,l),
(526,0,l),
(154,0,l),
(154,1489,l),
(1151,1489,l)
);
}
);
width = 1190;
},
{
layerId = "C991CE7E-6C6E-4D0C-9C0C-9C2488C785EC";
shapes = (
{
closed = 1;
nodes = (
(1042,1313,l),
(349,1313,l),
(349,893,l),
(1013,893,l),
(1013,717,l),
(349,717,l),
(349,0,l),
(151,0,l),
(151,1489,l),
(1042,1489,l)
);
}
);
width = 1068;
},
{
layerId = "9CEFB641-1E07-4D1E-B575-5426CF06F412";
shapes = (
{
closed = 1;
nodes = (
(1006,1349,l),
(290,1349,l),
(290,883,l),
(984,883,l),
(984,743,l),
(290,743,l),
(290,0,l),
(150,0,l),
(150,1489,l),
(1006,1489,l)
);
}
);
width = 1027;
},
{
layerId = "1BB6E906-3DFF-4986-8FED-FA70B47B0561";
shapes = (
{
closed = 1;
nodes = (
(1187,1169,l),
(585,1169,l),
(585,934,l),
(1130,934,l),
(1130,614,l),
(585,614,l),
(585,0,l),
(155,0,l),
(155,1489,l),
(1187,1489,l)
);
}
);
width = 1231;
}
);
unicode = 70;
},
{
glyphname = G;
layers = (
{
layerId = "0E45D8FB-8EA6-46E4-9786-99D047FDA37D";
shapes = (
{
closed = 1;
nodes = (
(387,-31,o),
(67,230,o),
(67,746,cs),
(67,1184,o),
(333,1518,o),
(846,1518,cs),
(1092,1518,o),
(1215,1472,o),
(1392,1386,c),
(1392,1037,l),
(1358,1037,l),
(1275,1102,o),
(1159,1197,o),
(1003,1229,cs),
(969,1236,o),
(933,1240,o),
(897,1240,cs),
(651,1240,o),
(453,1082,o),
(453,752,cs),
(453,474,o),
(570,297,o),
(820,253,cs),
(858,246,o),
(899,243,o),
(942,243,cs),
(969,243,o),
(1009,244,o),
(1036,247,c),
(1036,539,l),
(747,539,l),
(747,818,l),
(1398,818,l),
(1398,85,l),
(1272,31,o),
(1038,-31,o),
(835,-31,cs)
);
}
);
width = 1526;
},
{
layerId = "C991CE7E-6C6E-4D0C-9C0C-9C2488C785EC";
shapes = (
{
closed = 1;
nodes = (
(349,-29,o),
(66,229,o),
(66,746,cs),
(66,1204,o),
(326,1516,o),
(776,1516,cs),
(961,1516,o),
(1095,1465,o),
(1263,1388,c),
(1263,1149,l),
(1246,1149,l),
(1183,1204,o),
(1107,1276,o),
(920,1325,cs),
(868,1339,o),
(811,1345,o),
(752,1345,cs),
(464,1345,o),
(272,1108,o),
(272,752,cs),
(272,360,o),
(465,142,o),
(766,142,cs),
(822,142,o),
(877,146,o),
(933,154,cs),
(988,162,o),
(1035,174,o),
(1073,190,c),
(1073,575,l),
(729,575,l),
(729,749,l),
(1269,749,l),
(1269,99,l),
(1095,19,o),
(914,-29,o),
(774,-29,cs)
);
}
);
width = 1367;
},
{
layerId = "9CEFB641-1E07-4D1E-B575-5426CF06F412";
shapes = (
{
closed = 1;
nodes = (
(336,-28,o),
(66,229,o),
(66,746,cs),
(66,1211,o),
(324,1515,o),
(753,1515,cs),
(917,1515,o),
(1055,1463,o),
(1220,1389,c),
(1220,1186,l),
(1209,1186,l),
(1152,1238,o),
(1090,1302,o),
(892,1357,cs),
(834,1373,o),
(770,1380,o),
(704,1380,cs),
(402,1380,o),
(212,1117,o),
(212,752,cs),
(212,322,o),
(430,90,o),
(748,105,cs),
(810,107,o),
(870,114,o),
(930,124,cs),
(994,135,o),
(1044,151,o),
(1085,171,c),
(1085,587,l),
(723,587,l),
(723,726,l),
(1226,726,l),
(1226,104,l),
(1036,15,o),
(873,-28,o),
(754,-28,cs)
);
}
);
width = 1314;
},
{
layerId = "1BB6E906-3DFF-4986-8FED-FA70B47B0561";
shapes = (
{
closed = 1;
nodes = (
(400,-32,o),
(67,230,o),
(67,746,cs),
(67,1177,o),
(335,1519,o),
(869,1519,cs),
(1136,1519,o),
(1255,1474,o),
(1435,1385,c),
(1435,1000,l),
(1395,1000,l),
(1306,1068,o),
(1176,1171,o),
(1031,1197,cs),
(1003,1202,o),
(974,1205,o),
(945,1205,cs),
(713,1205,o),
(513,1073,o),
(513,752,cs),
(513,512,o),
(605,349,o),
(838,290,c),
(870,281,o),
(906,275,o),
(945,273,c),
(963,270,o),
(1000,267,o),
(1024,266,c),
(1024,527,l),
(753,527,l),
(753,841,l),
(1441,841,l),
(1441,80,l),
(1331,35,o),
(1079,-32,o),
(855,-32,cs)
);
}
);
width = 1579;
}
);
unicode = 71;
},
{
glyphname = H;
layers = (
{
layerId = "0E45D8FB-8EA6-46E4-9786-99D047FDA37D";
shapes = (
{
closed = 1;
nodes = (
(1411,0,l),
(1037,0,l),
(1037,660,l),
(528,660,l),
(528,0,l),
(154,0,l),
(154,1489,l),
(528,1489,l),
(528,944,l),
(1037,944,l),
(1037,1489,l),
(1411,1489,l)
);
}
);
width = 1565;
},
{
layerId = "C991CE7E-6C6E-4D0C-9C0C-9C2488C785EC";
shapes = (
{
closed = 1;
nodes = (
(1232,0,l),
(1034,0,l),
(1034,729,l),
(349,729,l),
(349,0,l),
(151,0,l),
(151,1489,l),
(349,1489,l),
(349,905,l),
(1034,905,l),
(1034,1489,l),
(1232,1489,l)
);
}
);
width = 1383;
},
{
layerId = "9CEFB641-1E07-4D1E-B575-5426CF06F412";
shapes = (
{
closed = 1;
nodes = (
(1172,0,l),
(1033,0,l),
(1033,752,l),
(289,752,l),
(289,0,l),
(150,0,l),
(150,1489,l),
(289,1489,l),
(289,892,l),
(1033,892,l),
(1033,1489,l),
(1172,1489,l)
);
}
);
width = 1322;
},
{
layerId = "1BB6E906-3DFF-4986-8FED-FA70B47B0561";
shapes = (
{
closed = 1;
nodes = (
(1471,0,l),
(1038,0,l),
(1038,637,l),
(588,637,l),
(588,0,l),
(155,0,l),
(155,1489,l),
(588,1489,l),
(588,957,l),
(1038,957,l),
(1038,1489,l),
(1471,1489,l)
);
}
);
width = 1626;
}
);
unicode = 72;
},
{
glyphname = I;
layers = (
{
layerId = "0E45D8FB-8EA6-46E4-9786-99D047FDA37D";
shapes = (
{
closed = 1;
nodes = (
(896,0,l),
(94,0,l),
(94,260,l),
(308,260,l),
(308,1229,l),
(94,1229,l),
(94,1489,l),
(896,1489,l),
(896,1229,l),
(682,1229,l),
(682,260,l),
(896,260,l)
);
}
);
width = 990;
},
{
layerId = "C991CE7E-6C6E-4D0C-9C0C-9C2488C785EC";
shapes = (
{
closed = 1;
nodes = (
(671,0,l),
(93,0,l),
(93,152,l),
(283,152,l),
(283,1337,l),
(93,1337,l),
(93,1489,l),
(671,1489,l),
(671,1337,l),
(481,1337,l),
(481,152,l),
(671,152,l)
);
}
);
width = 764;
},
{
layerId = "9CEFB641-1E07-4D1E-B575-5426CF06F412";
shapes = (
{
closed = 1;
nodes = (
(596,0,l),
(93,0,l),
(93,116,l),
(275,116,l),
(275,1373,l),
(93,1373,l),
(93,1489,l),
(596,1489,l),
(596,1373,l),
(414,1373,l),
(414,116,l),
(596,116,l)
);
}
);
width = 689;
},
{
layerId = "1BB6E906-3DFF-4986-8FED-FA70B47B0561";
shapes = (
{
closed = 1;
nodes = (
(971,0,l),
(94,0,l),
(94,296,l),
(316,296,l),
(316,1193,l),
(94,1193,l),
(94,1489,l),
(971,1489,l),
(971,1193,l),
(749,1193,l),
(749,296,l),
(971,296,l)
);
}
);
width = 1065;
}
);
unicode = 73;
},
{
glyphname = J;
layers = (
{
layerId = "0E45D8FB-8EA6-46E4-9786-99D047FDA37D";
shapes = (
{
closed = 1;
nodes = (
(890,437,ls),
(890,148,o),
(679,-23,o),
(345,-23,cs),
(214,-23,o),
(95,-12,o),
(6,6,c),
(6,308,l),
(40,308,l),
(103,283,o),
(157,259,o),
(260,259,cs),
(517,259,o),
(516,401,o),
(516,622,cs),
(516,1219,l),
(175,1219,l),
(175,1489,l),
(890,1489,l)
);
}
);
width = 1025;
},
{
layerId = "C991CE7E-6C6E-4D0C-9C0C-9C2488C785EC";
shapes = (
{
closed = 1;
nodes = (
(712,387,ls),
(712,123,o),
(536,-21,o),
(272,-21,cs),
(215,-21,o),
(73,-6,o),
(9,8,c),
(9,197,l),
(20,197,l),
(72,177,o),
(163,149,o),
(245,149,cs),
(495,149,o),
(514,266,o),
(514,462,cs),
(514,1331,l),
(199,1331,l),
(199,1489,l),
(712,1489,l)
);
}
);
width = 853;
},
{
layerId = "9CEFB641-1E07-4D1E-B575-5426CF06F412";
shapes = (
{
closed = 1;
nodes = (
(653,370,ls),
(653,115,o),
(488,-20,o),
(248,-20,cs),
(215,-20,o),
(66,-4,o),
(10,9,c),
(10,160,l),
(13,160,l),
(62,142,o),
(165,112,o),
(240,112,cs),
(488,112,o),
(513,221,o),
(513,409,cs),
(513,1368,l),
(207,1368,l),
(207,1489,l),
(653,1489,l)
);
}
);
width = 796;
},
{
layerId = "1BB6E906-3DFF-4986-8FED-FA70B47B0561";
shapes = (
{
closed = 1;
nodes = (
(949,454,ls),
(949,156,o),
(727,-24,o),
(369,-24,cs),
(214,-24,o),
(102,-14,o),
(5,5,c),
(5,345,l),
(47,345,l),
(113,318,o),
(155,296,o),
(265,296,cs),
(524,296,o),
(517,446,o),
(517,675,cs),
(517,1182,l),
(167,1182,l),
(167,1489,l),
(949,1489,l)
);
}
);
width = 1082;
}
);
unicode = 74;
},
{
glyphname = K;
layers = (
{
layerId = "0E45D8FB-8EA6-46E4-9786-99D047FDA37D";
shapes = (
{
closed = 1;
nodes = (
(1459,0,l),
(1007,0,l),
(601,605,l),
(528,503,l),
(528,0,l),
(154,0,l),
(154,1489,l),
(528,1489,l),
(528,828,l),
(1004,1489,l),
(1437,1489,l),
(906,798,l)
);
}
);
width = 1426;
},
{
layerId = "C991CE7E-6C6E-4D0C-9C0C-9C2488C785EC";
shapes = (
{
closed = 1;
nodes = (
(1236,0,l),
(979,0,l),
(436,693,l),
(349,595,l),
(349,0,l),
(151,0,l),
(151,1489,l),
(349,1489,l),
(349,804,l),
(959,1489,l),
(1200,1489,l),
(584,824,l)
);
}
);
width = 1204;
},
{
layerId = "9CEFB641-1E07-4D1E-B575-5426CF06F412";
shapes = (
{
closed = 1;
nodes = (
(1162,0,l),
(970,0,l),
(381,722,l),
(289,626,l),
(289,0,l),
(150,0,l),
(150,1489,l),
(289,1489,l),
(289,796,l),
(944,1489,l),
(1121,1489,l),
(477,833,l)
);
}
);
width = 1130;
},
{
layerId = "1BB6E906-3DFF-4986-8FED-FA70B47B0561";
shapes = (
{
closed = 1;
nodes = (
(1533,0,l),
(1016,0,l),
(656,576,l),
(588,472,l),
(588,0,l),
(155,0,l),
(155,1489,l),
(588,1489,l),
(588,836,l),
(1019,1489,l),
(1516,1489,l),
(1013,789,l)
);
}
);
width = 1500;
}
);
unicode = 75;
},
{
glyphname = L;
layers = (
{
layerId = "0E45D8FB-8EA6-46E4-9786-99D047FDA37D";
shapes = (
{
closed = 1;
nodes = (
(1148,0,l),
(154,0,l),
(154,1489,l),
(528,1489,l),
(528,284,l),
(1148,284,l)
);
}
);
width = 1172;
},
{
layerId = "C991CE7E-6C6E-4D0C-9C0C-9C2488C785EC";
shapes = (
{
closed = 1;
nodes = (
(1014,0,l),
(151,0,l),
(151,1489,l),
(349,1489,l),
(349,176,l),
(1014,176,l)
);
}
);
width = 1019;
},
{
layerId = "9CEFB641-1E07-4D1E-B575-5426CF06F412";
shapes = (
{
closed = 1;
nodes = (
(969,0,l),
(150,0,l),
(150,1489,l),
(289,1489,l),
(289,140,l),
(969,140,l)
);
}
);
width = 968;
},
{
layerId = "1BB6E906-3DFF-4986-8FED-FA70B47B0561";
shapes = (
{
closed = 1;
nodes = (
(1193,0,l),
(155,0,l),
(155,1489,l),
(588,1489,l),
(588,320,l),
(1193,320,l)
);
}
);
width = 1223;
}
);
unicode = 76;
},
{
glyphname = M;
layers = (
{
layerId = "0E45D8FB-8EA6-46E4-9786-99D047FDA37D";
shapes = (
{
closed = 1;
nodes = (
(1675,0,l),
(1303,0,l),
(1303,987,l),
(1032,350,l),
(777,350,l),
(506,987,l),
(506,0,l),
(154,0,l),
(154,1489,l),
(585,1489,l),
(915,754,l),
(1244,1489,l),
(1675,1489,l)
);
}
);
width = 1829;
},
{
layerId = "C991CE7E-6C6E-4D0C-9C0C-9C2488C785EC";
shapes = (
{
closed = 1;
nodes = (
(1427,0,l),
(1229,0,l),
(1229,1283,l),
(841,410,l),
(721,410,l),
(336,1283,l),
(336,0,l),
(151,0,l),
(151,1489,l),
(421,1489,l),
(793,660,l),
(1152,1489,l),
(1427,1489,l)
);
}
);
width = 1578;
},
{
layerId = "9CEFB641-1E07-4D1E-B575-5426CF06F412";
shapes = (
{
closed = 1;
nodes = (
(1344,0,l),
(1204,0,l),
(1204,1382,l),
(777,430,l),
(702,430,l),
(279,1382,l),
(279,0,l),
(150,0,l),
(150,1489,l),
(366,1489,l),
(752,629,l),
(1121,1489,l),
(1344,1489,l)
);
}
);
width = 1494;
},
{
layerId = "1BB6E906-3DFF-4986-8FED-FA70B47B0561";
shapes = (
{
closed = 1;
nodes = (
(1758,0,l),
(1328,0,l),
(1328,888,l),
(1096,330,l),
(796,330,l),
(563,888,l),
(563,0,l),
(155,0,l),
(155,1489,l),
(640,1489,l),
(956,785,l),
(1275,1489,l),
(1758,1489,l)
);
}
);
width = 1913;
}
);
unicode = 77;
},
{
glyphname = N;
layers = (
{
layerId = "0E45D8FB-8EA6-46E4-9786-99D047FDA37D";
shapes = (
{
closed = 1;
nodes = (
(1430,0,l),
(1070,0,l),
(496,1038,l),
(496,0,l),
(154,0,l),
(154,1489,l),
(613,1489,l),
(1088,636,l),
(1088,1489,l),
(1430,1489,l)
);
}
);
width = 1578;
},
{
layerId = "C991CE7E-6C6E-4D0C-9C0C-9C2488C785EC";
shapes = (
{
closed = 1;
nodes = (
(1216,0,l),
(994,0,l),
(336,1284,l),
(336,0,l),
(151,0,l),
(151,1489,l),
(432,1489,l),
(1031,310,l),
(1031,1489,l),
(1216,1489,l)
);
}
);
width = 1367;
},
{
layerId = "9CEFB641-1E07-4D1E-B575-5426CF06F412";
shapes = (
{
closed = 1;
nodes = (
(1145,0,l),
(969,0,l),
(283,1366,l),
(283,0,l),
(150,0,l),
(150,1489,l),
(372,1489,l),
(1012,201,l),
(1012,1489,l),
(1145,1489,l)
);
}
);
width = 1297;
},
{
layerId = "1BB6E906-3DFF-4986-8FED-FA70B47B0561";
shapes = (
{
closed = 1;
nodes = (
(1501,0,l),
(1095,0,l),
(549,956,l),
(549,0,l),
(155,0,l),
(155,1489,l),
(673,1489,l),
(1107,745,l),
(1107,1489,l),
(1501,1489,l)
);
}
);
width = 1648;
}
);
unicode = 78;
},
{
glyphname = O;
layers = (
{
layerId = "0E45D8FB-8EA6-46E4-9786-99D047FDA37D";
shapes = (
{
closed = 1;
nodes = (
(1447,1175,o),
(1510,985,o),
(1510,744,cs),
(1510,285,o),
(1260,-31,o),
(788,-31,cs),
(371,-31,o),
(67,231,o),
(67,744,cs),
(67,1190,o),
(307,1520,o),
(788,1520,cs),
(1011,1520,o),
(1186,1452,o),
(1317,1312,c)
);
},
{
closed = 1;
nodes = (
(1124,1082,o),
(979,1239,o),
(789,1239,cs),
(626,1239,o),
(453,1122,o),
(453,744,cs),
(453,375,o),
(622,250,o),
(789,250,cs),
(979,250,o),
(1124,414,o),
(1124,745,cs)
);
}
);
width = 1577;
},
{
layerId = "C991CE7E-6C6E-4D0C-9C0C-9C2488C785EC";
shapes = (
{
closed = 1;
nodes = (
(1317,1185,o),
(1383,991,o),
(1383,744,cs),
(1383,242,o),
(1114,-31,o),
(724,-31,cs),
(325,-31,o),
(66,244,o),
(66,744,cs),
(66,1223,o),
(308,1520,o),
(724,1520,cs),
(924,1520,o),
(1092,1446,o),
(1204,1318,c)
);
},
{
closed = 1;
nodes = (
(1177,1146,o),
(995,1349,o),
(725,1349,cs),
(454,1349,o),
(272,1152,o),
(272,744,cs),
(272,353,o),
(450,140,o),
(725,140,cs),
(994,140,o),
(1177,344,o),
(1177,744,cs)
);
}
);
width = 1449;
},
{
layerId = "9CEFB641-1E07-4D1E-B575-5426CF06F412";
shapes = (
{
closed = 1;
nodes = (
(1274,1188,o),
(1341,993,o),
(1341,744,cs),
(1341,228,o),
(1065,-31,o),
(703,-31,cs),
(310,-31,o),
(66,248,o),
(66,744,cs),
(66,1234,o),
(308,1520,o),
(703,1520,cs),
(895,1520,o),
(1061,1444,o),
(1166,1320,c)
);
},
{
closed = 1;
nodes = (
(1195,1167,o),
(1000,1386,o),
(704,1386,cs),
(397,1386,o),
(212,1162,o),
(212,744,cs),
(212,346,o),
(393,103,o),
(704,103,cs),
(999,103,o),
(1195,321,o),
(1195,744,cs)
);
}
);
width = 1406;
},
{
layerId = "1BB6E906-3DFF-4986-8FED-FA70B47B0561";
shapes = (
{
closed = 1;
nodes = (
(1490,1172,o),
(1552,983,o),
(1552,744,cs),
(1552,299,o),
(1309,-31,o),
(809,-31,cs),
(386,-31,o),
(67,227,o),
(67,744,cs),
(67,1179,o),
(307,1520,o),
(809,1520,cs),
(1040,1520,o),
(1217,1454,o),
(1355,1310,c)
);
},
{
closed = 1;
nodes = (
(1106,1061,o),
(974,1202,o),
(810,1202,cs),
(683,1202,o),
(513,1112,o),
(513,744,cs),
(513,382,o),
(679,287,o),
(810,287,cs),
(974,287,o),
(1106,437,o),
(1106,745,cs)
);
}
);
width = 1620;
}
);
unicode = 79;
},
{
glyphname = P;
layers = (
{
layerId = "0E45D8FB-8EA6-46E4-9786-99D047FDA37D";
shapes = (
{
closed = 1;
nodes = (
(1300,790,o),
(1185,620,o),
(988,536,cs),
(915,505,o),
(831,487,o),
(724,487,cs),
(528,487,l),
(528,0,l),
(154,0,l),
(154,1489,l),
(567,1489,ls),
(854,1489,o),
(1107,1486,o),
(1234,1277,cs),
(1276,1207,o),
(1300,1119,o),
(1300,1019,c)
);
},
{
closed = 1;
nodes = (
(916,1195,o),
(738,1206,o),
(655,1210,cs),
(633,1211,o),
(608,1211,o),
(581,1211,cs),
(528,1211,l),
(528,765,l),
(622,765,l),
(760,768,o),
(865,790,o),
(902,902,cs),
(911,929,o),
(916,969,o),
(916,1010,cs)
);
}
);
width = 1346;
},
{
layerId = "C991CE7E-6C6E-4D0C-9C0C-9C2488C785EC";
shapes = (
{
closed = 1;
nodes = (
(1091,822,o),
(960,662,o),
(780,594,cs),
(710,568,o),
(623,555,o),
(517,555,cs),
(349,555,l),
(349,0,l),
(151,0,l),
(151,1489,l),
(525,1489,ls),
(785,1489,o),
(952,1419,o),
(1044,1251,cs),
(1075,1193,o),
(1090,1122,o),
(1091,1040,c)
);
},
{
closed = 1;
nodes = (
(885,1232,o),
(759,1319,o),
(513,1319,cs),
(485,1319,o),
(458,1319,o),
(431,1319,cs),
(349,1319,l),
(349,724,l),
(484,724,ls),
(699,724,o),
(811,770,o),
(865,911,cs),
(878,946,o),
(885,987,o),
(885,1035,cs)
);
}
);
width = 1129;
},
{
layerId = "9CEFB641-1E07-4D1E-B575-5426CF06F412";
shapes = (
{
closed = 1;
nodes = (
(1021,833,o),
(885,676,o),
(711,613,cs),
(642,589,o),
(554,578,o),
(448,578,cs),
(289,578,l),
(289,0,l),
(150,0,l),
(150,1489,l),
(511,1489,ls),
(762,1489,o),
(900,1397,o),
(981,1242,cs),
(1008,1188,o),
(1020,1123,o),
(1021,1047,c)
);
},
{
closed = 1;
nodes = (
(875,1244,o),
(766,1357,o),
(466,1355,cs),
(436,1355,o),
(408,1355,o),
(381,1355,cs),
(289,1355,l),
(289,710,l),
(438,710,l),
(679,709,o),
(793,763,o),
(853,914,cs),
(867,952,o),
(875,993,o),
(875,1043,cs)
);
}
);
width = 1057;
},
{
layerId = "1BB6E906-3DFF-4986-8FED-FA70B47B0561";
shapes = (
{
closed = 1;
nodes = (
(1370,779,o),
(1260,606,o),
(1057,517,cs),
(983,484,o),
(900,464,o),
(793,464,cs),
(588,464,l),
(588,0,l),
(155,0,l),
(155,1489,l),
(581,1489,ls),
(877,1489,o),
(1159,1508,o),
(1297,1286,cs),
(1343,1212,o),
(1370,1118,o),
(1370,1012,c)
);
},
{
closed = 1;
nodes = (
(926,1183,o),
(731,1168,o),
(702,1174,c),
(682,1175,o),
(658,1175,o),
(631,1175,cs),
(588,1175,l),
(588,779,l),
(668,779,l),
(780,783,o),
(883,797,o),
(914,899,c),
(922,923,o),
(926,963,o),
(926,1002,cs)
);
}
);
width = 1418;
}
);
unicode = 80;
},
{
glyphname = Q;
layers = (
{
layerId = "0E45D8FB-8EA6-46E4-9786-99D047FDA37D";
shapes = (
{
closed = 1;
nodes = (
(1508,-394,l),
(1420,-416,o),
(1379,-423,o),
(1198,-423,cs),
(886,-423,o),
(756,-251,o),
(746,-27,c),
(463,-12,o),
(235,119,o),
(128,388,cs),
(87,491,o),
(67,609,o),
(67,744,cs),
(67,1203,o),
(321,1520,o),
(788,1520,cs),
(1215,1520,o),
(1510,1248,o),
(1510,744,cs),
(1510,398,o),
(1359,132,o),
(1091,25,c),
(1091,-129,o),
(1159,-167,o),
(1303,-167,cs),
(1359,-167,o),
(1444,-142,o),
(1471,-128,c),
(1508,-128,l)
);
},
{
closed = 1;
nodes = (
(1124,1082,o),
(979,1239,o),
(789,1239,cs),
(626,1239,o),
(453,1122,o),
(453,744,cs),
(453,375,o),
(622,250,o),
(789,250,cs),
(979,250,o),
(1124,414,o),
(1124,745,cs)
);
}
);
width = 1577;
},
{
layerId = "C991CE7E-6C6E-4D0C-9C0C-9C2488C785EC";
shapes = (
{
closed = 1;
nodes = (
(1388,-364,l),
(1316,-382,o),
(1233,-392,o),
(1156,-392,cs),
(937,-392,o),
(782,-266,o),
(770,-30,c),
(455,-30,o),
(215,85,o),
(112,416,cs),
(82,513,o),
(66,621,o),
(66,744,cs),
(66,1223,o),
(308,1520,o),
(724,1520,cs),
(1134,1520,o),
(1383,1225,o),
(1383,744,cs),
(1383,357,o),
(1219,99,o),
(961,12,c),
(974,-154,o),
(1040,-219,o),
(1189,-219,cs),
(1237,-219,o),
(1333,-195,o),
(1361,-184,c),
(1388,-184,l)
);
},
{
closed = 1;
nodes = (
(1177,1146,o),
(995,1349,o),
(725,1349,cs),
(454,1349,o),
(272,1152,o),
(272,744,cs),
(272,353,o),
(450,139,o),
(725,139,cs),
(995,139,o),
(1177,347,o),
(1177,744,cs)
);
}
);
width = 1449;
},
{
layerId = "9CEFB641-1E07-4D1E-B575-5426CF06F412";
shapes = (
{
closed = 1;
nodes = (
(1348,-354,l),
(1281,-371,o),
(1184,-382,o),
(1142,-382,cs),
(954,-382,o),
(791,-271,o),
(778,-31,c),
(452,-36,o),
(208,74,o),
(107,425,c),
(80,520,o),
(66,625,o),
(66,744,cs),
(66,1230,o),
(304,1520,o),
(703,1520,cs),
(1107,1520,o),
(1341,1217,o),
(1341,744,cs),
(1341,343,o),
(1172,88,o),
(918,8,c),
(935,-162,o),
(1000,-236,o),
(1151,-236,cs),
(1196,-236,o),
(1296,-213,o),
(1324,-203,c),
(1348,-203,l)
);
},
{
closed = 1;
nodes = (
(1195,1167,o),
(1000,1386,o),
(704,1386,cs),
(397,1386,o),
(212,1162,o),
(212,744,cs),
(212,346,o),
(393,102,o),
(704,102,cs),
(1000,102,o),
(1195,325,o),
(1195,744,cs)
);
}
);
width = 1406;
},
{
layerId = "1BB6E906-3DFF-4986-8FED-FA70B47B0561";
shapes = (
{
closed = 1;
nodes = (
(1548,-404,l),
(1455,-427,o),
(1428,-433,o),
(1212,-433,cs),
(869,-433,o),
(747,-246,o),
(738,-26,c),
(466,-6,o),
(242,130,o),
(133,379,c),
(89,484,o),
(67,605,o),
(67,744,cs),
(67,1196,o),
(325,1520,o),
(809,1520,cs),
(1242,1520,o),
(1552,1256,o),
(1552,744,cs),
(1552,412,o),
(1406,143,o),
(1134,29,c),
(1130,-121,o),
(1199,-150,o),
(1341,-150,cs),
(1400,-150,o),
(1481,-124,o),
(1508,-109,c),
(1548,-109,l)
);
},
{
closed = 1;
nodes = (
(1106,1061,o),
(974,1202,o),
(810,1202,cs),
(683,1202,o),
(513,1112,o),
(513,744,cs),
(513,382,o),
(679,287,o),
(810,287,cs),
(974,287,o),
(1106,436,o),
(1106,745,cs)
);
}
);
width = 1620;
}
);
unicode = 81;
},
{
glyphname = R;
layers = (
{
layerId = "0E45D8FB-8EA6-46E4-9786-99D047FDA37D";
shapes = (
{
closed = 1;
nodes = (
(1531,0,l),
(1075,0,l),
(660,546,l),
(526,546,l),
(526,0,l),
(154,0,l),
(154,1489,l),
(633,1489,ls),
(888,1489,o),
(1094,1493,o),
(1232,1329,cs),
(1284,1267,o),
(1313,1187,o),
(1313,1080,cs),
(1313,851,o),
(1202,717,o),
(1030,633,c)
);
},
{
closed = 1;
nodes = (
(929,1164,o),
(856,1215,o),
(651,1215,cs),
(526,1215,l),
(526,814,l),
(633,814,ls),
(813,814,o),
(929,853,o),
(929,1033,cs)
);
}
);
width = 1487;
},
{
layerId = "C991CE7E-6C6E-4D0C-9C0C-9C2488C785EC";
shapes = (
{
closed = 1;
nodes = (
(1304,0,l),
(1047,0,l),
(575,592,l),
(349,592,l),
(349,0,l),
(151,0,l),
(151,1489,l),
(535,1489,ls),
(768,1489,o),
(937,1455,o),
(1037,1281,cs),
(1067,1228,o),
(1083,1162,o),
(1083,1085,cs),
(1083,863,o),
(961,717,o),
(774,648,c)
);
},
{
closed = 1;
nodes = (
(876,1235,o),
(773,1319,o),
(545,1319,cs),
(349,1319,l),
(349,757,l),
(523,757,ls),
(708,757,o),
(876,804,o),
(876,1070,cs)
);
}
);
width = 1271;
},
{
layerId = "9CEFB641-1E07-4D1E-B575-5426CF06F412";
shapes = (
{
closed = 1;
nodes = (
(1228,0,l),
(1038,0,l),
(547,607,l),
(290,607,l),
(290,0,l),
(150,0,l),
(150,1489,l),
(502,1489,ls),
(728,1489,o),
(885,1442,o),
(972,1265,c),
(995,1215,o),
(1006,1154,o),
(1006,1087,cs),
(1006,867,o),
(881,717,o),
(689,653,c)
);
},
{
closed = 1;
nodes = (
(858,1259,o),
(745,1354,o),
(510,1354,cs),
(290,1354,l),
(290,738,l),
(486,738,ls),
(673,738,o),
(858,788,o),
(858,1082,cs)
);
}
);
width = 1199;
},
{
layerId = "1BB6E906-3DFF-4986-8FED-FA70B47B0561";
shapes = (
{
closed = 1;
nodes = (
(1607,0,l),
(1084,0,l),
(688,531,l),
(585,531,l),
(585,0,l),
(155,0,l),
(155,1489,l),
(666,1489,ls),
(928,1489,o),
(1146,1506,o),
(1297,1345,c),
(1356,1280,o),
(1390,1195,o),
(1390,1078,cs),
(1390,847,o),
(1282,717,o),
(1115,628,c)
);
},
{
closed = 1;
nodes = (
(947,1140,o),
(884,1180,o),
(686,1180,cs),
(585,1180,l),
(585,833,l),
(670,833,ls),
(848,833,o),
(947,869,o),
(947,1021,cs)
);
}
);
width = 1559;
}
);
unicode = 82;
},
{
glyphname = S;
layers = (
{
layerId = "0E45D8FB-8EA6-46E4-9786-99D047FDA37D";
shapes = (
{
closed = 1;
nodes = (
(392,-27,o),
(226,20,o),
(73,88,c),
(73,442,l),
(107,442,l),
(255,318,o),
(446,245,o),
(616,245,cs),
(759,245,o),
(878,292,o),
(878,402,cs),
(878,481,o),
(806,522,o),
(729,544,cs),
(623,573,o),
(510,590,o),
(405,626,cs),
(185,705,o),
(82,830,o),
(82,1048,cs),
(82,1325,o),
(353,1516,o),
(701,1516,cs),
(875,1516,o),
(1065,1477,o),
(1201,1416,c),
(1201,1076,l),
(1168,1076,l),
(1060,1168,o),
(887,1245,o),
(720,1245,cs),
(624,1245,o),
(464,1216,o),
(464,1093,cs),
(464,950,o),
(581,989,o),
(954,865,c),
(1158,790,o),
(1260,675,o),
(1260,465,cs),
(1260,274,o),
(1159,114,o),
(942,28,cs),
(848,-8,o),
(741,-27,o),
(614,-27,cs)
);
}
);
width = 1297;
},
{
layerId = "C991CE7E-6C6E-4D0C-9C0C-9C2488C785EC";
shapes = (
{
closed = 1;
nodes = (
(347,-27,o),
(211,22,o),
(77,89,c),
(77,337,l),
(91,337,l),
(218,215,o),
(399,144,o),
(552,144,cs),
(768,144,o),
(884,242,o),
(884,393,cs),
(884,511,o),
(828,585,o),
(700,621,cs),
(603,648,o),
(550,658,o),
(431,689,cs),
(236,739,o),
(88,850,o),
(88,1090,cs),
(88,1329,o),
(299,1516,o),
(589,1516,cs),
(755,1516,o),
(903,1480,o),
(1032,1420,c),
(1032,1183,l),
(1017,1183,l),
(923,1267,o),
(762,1345,o),
(602,1345,cs),
(425,1345,o),
(294,1253,o),
(294,1111,cs),
(294,879,o),
(478,895,o),
(794,800,c),
(1000,735,o),
(1090,608,o),
(1090,424,cs),
(1090,232,o),
(966,75,o),
(792,8,cs),
(732,-15,o),
(656,-27,o),
(566,-27,cs)
);
}
);
width = 1141;
},
{
layerId = "9CEFB641-1E07-4D1E-B575-5426CF06F412";
shapes = (
{
closed = 1;
nodes = (
(332,-27,o),
(206,23,o),
(78,89,c),
(78,302,l),
(86,302,l),
(206,181,o),
(383,110,o),
(531,110,cs),
(771,110,o),
(886,225,o),
(886,390,cs),
(886,521,o),
(835,606,o),
(690,647,cs),
(596,673,o),
(563,681,o),
(440,710,c),
(253,750,o),
(90,857,o),
(90,1104,cs),
(90,1330,o),
(281,1516,o),
(552,1516,cs),
(715,1516,o),
(849,1481,o),
(976,1421,c),
(976,1219,l),
(967,1219,l),
(877,1300,o),
(720,1378,o),
(563,1378,cs),
(359,1378,o),
(237,1265,o),
(237,1117,cs),
(237,855,o),
(444,864,o),
(741,778,c),
(947,717,o),
(1033,586,o),
(1033,410,cs),
(1033,218,o),
(902,62,o),
(742,1,cs),
(693,-17,o),
(628,-27,o),
(550,-27,cs)
);
}
);
width = 1089;
},
{
layerId = "1BB6E906-3DFF-4986-8FED-FA70B47B0561";
shapes = (
{
closed = 1;
nodes = (
(407,-27,o),
(231,19,o),
(72,88,c),
(72,477,l),
(112,477,l),
(267,352,o),
(462,279,o),
(637,279,cs),
(756,279,o),
(876,309,o),
(876,405,cs),
(876,471,o),
(799,501,o),
(739,518,c),
(630,548,o),
(497,567,o),
(396,605,c),
(168,694,o),
(80,823,o),
(80,1034,cs),
(80,1324,o),
(371,1516,o),
(738,1516,cs),
(915,1516,o),
(1119,1476,o),
(1257,1415,c),
(1257,1040,l),
(1218,1040,l),
(1106,1135,o),
(929,1212,o),
(759,1212,cs),
(690,1212,o),
(521,1204,o),
(521,1087,cs),
(521,974,o),
(615,1020,o),
(1007,887,c),
(1211,808,o),
(1317,697,o),
(1317,479,cs),
(1317,288,o),
(1223,127,o),
(992,35,c),
(887,-6,o),
(769,-27,o),
(630,-27,cs)
);
}
);
width = 1349;
}
);
unicode = 83;
},
{
glyphname = T;
layers = (
{
layerId = "0E45D8FB-8EA6-46E4-9786-99D047FDA37D";
shapes = (
{
closed = 1;
nodes = (
(440,0,l),
(440,1205,l),
(0,1205,l),
(0,1489,l),
(1254,1489,l),
(1254,1205,l),
(814,1205,l),
(814,0,l)
);
}
);
width = 1254;
},
{
layerId = "C991CE7E-6C6E-4D0C-9C0C-9C2488C785EC";
shapes = (
{
closed = 1;
nodes = (
(499,0,l),
(499,1313,l),
(-1,1313,l),
(-1,1489,l),
(1197,1489,l),
(1197,1313,l),
(697,1313,l),
(697,0,l)
);
}
);
width = 1196;
},
{
layerId = "9CEFB641-1E07-4D1E-B575-5426CF06F412";
shapes = (
{
closed = 1;
nodes = (
(519,0,l),
(519,1349,l),
(-1,1349,l),
(-1,1489,l),
(1178,1489,l),
(1178,1349,l),
(658,1349,l),
(658,0,l)
);
}
);
width = 1177;
},
{
layerId = "1BB6E906-3DFF-4986-8FED-FA70B47B0561";
shapes = (
{
closed = 1;
nodes = (
(420,0,l),
(420,1169,l),
(0,1169,l),
(0,1489,l),
(1273,1489,l),
(1273,1169,l),
(853,1169,l),
(853,0,l)
);
}
);
width = 1273;
}
);
unicode = 84;
},
{
glyphname = U;
layers = (
{
layerId = "0E45D8FB-8EA6-46E4-9786-99D047FDA37D";
shapes = (
{
closed = 1;
nodes = (
(460,-31,o),
(256,77,o),
(174,292,cs),
(147,363,o),
(133,445,o),
(133,538,cs),
(133,1489,l),
(507,1489,l),
(507,715,ls),
(507,462,o),
(495,253,o),
(756,253,cs),
(981,253,o),
(1006,386,o),
(1006,715,cs),
(1006,1489,l),
(1380,1489,l),
(1380,618,ls),
(1380,254,o),
(1280,-31,o),
(756,-31,cs)
);
}
);
width = 1513;
},
{
layerId = "C991CE7E-6C6E-4D0C-9C0C-9C2488C785EC";
shapes = (
{
closed = 1;
nodes = (
(398,-31,o),
(225,90,o),
(165,292,cs),
(143,364,o),
(133,454,o),
(133,560,cs),
(133,1489,l),
(331,1489,l),
(331,560,ls),
(331,298,o),
(399,138,o),
(671,138,cs),
(916,138,o),
(1012,280,o),
(1012,555,cs),
(1012,1489,l),
(1210,1489,l),
(1210,560,ls),
(1210,190,o),
(1067,-31,o),
(671,-31,cs)
);
}
);
width = 1343;
},
{
layerId = "9CEFB641-1E07-4D1E-B575-5426CF06F412";
shapes = (
{
closed = 1;
nodes = (
(377,-31,o),
(215,94,o),
(162,292,c),
(142,364,o),
(133,457,o),
(133,567,cs),
(133,1489,l),
(272,1489,l),
(272,508,ls),
(272,243,o),
(367,100,o),
(643,100,cs),
(894,100,o),
(1014,245,o),
(1014,502,cs),
(1014,1489,l),
(1153,1489,l),
(1153,541,ls),
(1153,169,o),
(996,-31,o),
(643,-31,cs)
);
}
);
width = 1286;
},
{
layerId = "1BB6E906-3DFF-4986-8FED-FA70B47B0561";
shapes = (
{
closed = 1;
nodes = (
(481,-31,o),
(266,73,o),
(177,292,cs),
(148,363,o),
(133,442,o),
(133,531,cs),
(133,1489,l),
(566,1489,l),
(566,767,ls),
(566,517,o),
(527,291,o),
(784,291,cs),
(1003,291,o),
(1004,421,o),
(1004,768,cs),
(1004,1489,l),
(1437,1489,l),
(1437,637,ls),
(1437,275,o),
(1351,-31,o),
(784,-31,cs)
);
}
);
width = 1570;
}
);
unicode = 85;
},
{
glyphname = V;
layers = (
{
layerId = "0E45D8FB-8EA6-46E4-9786-99D047FDA37D";
shapes = (
{
closed = 1;
nodes = (
(1398,1489,l),
(886,0,l),
(496,0,l),
(-16,1489,l),
(372,1489,l),
(696,480,l),
(1020,1489,l)
);
}
);
width = 1382;
},
{
layerId = "C991CE7E-6C6E-4D0C-9C0C-9C2488C785EC";
shapes = (
{
closed = 1;
nodes = (
(1230,1489,l),
(718,0,l),
(504,0,l),
(-8,1489,l),
(204,1489,l),
(616,253,l),
(1028,1489,l)
);
}
);
width = 1222;
},
{
layerId = "9CEFB641-1E07-4D1E-B575-5426CF06F412";
shapes = (
{
closed = 1;
nodes = (
(1174,1489,l),
(662,0,l),
(507,0,l),
(-5,1489,l),
(148,1489,l),
(589,177,l),
(1031,1489,l)
);
}
);
width = 1169;
},
{
layerId = "1BB6E906-3DFF-4986-8FED-FA70B47B0561";
shapes = (
{
closed = 1;
nodes = (
(1454,1489,l),
(942,0,l),
(493,0,l),
(-19,1489,l),
(428,1489,l),
(723,556,l),
(1017,1489,l)
);
}
);
width = 1435;
}
);
unicode = 86;
},
{
glyphname = W;
layers = (
{
layerId = "0E45D8FB-8EA6-46E4-9786-99D047FDA37D";
shapes = (
{
closed = 1;
nodes = (
(2075,1489,l),
(1698,0,l),
(1288,0,l),
(1049,921,l),
(817,0,l),
(407,0,l),
(30,1489,l),
(418,1489,l),
(623,490,l),
(873,1489,l),
(1244,1489,l),
(1481,490,l),
(1697,1489,l)
);
}
);
width = 2105;
},
{
layerId = "C991CE7E-6C6E-4D0C-9C0C-9C2488C785EC";
shapes = (
{
closed = 1;
nodes = (
(1821,1489,l),
(1447,0,l),
(1224,0,l),
(921,1236,l),
(625,0,l),
(407,0,l),
(26,1489,l),
(229,1489,l),
(529,251,l),
(827,1489,l),
(1028,1489,l),
(1329,239,l),
(1627,1489,l)
);
}
);
width = 1847;
},
{
layerId = "9CEFB641-1E07-4D1E-B575-5426CF06F412";
shapes = (
{
closed = 1;
nodes = (
(1736,1489,l),
(1363,0,l),
(1203,0,l),
(878,1341,l),
(561,0,l),
(407,0,l),
(25,1489,l),
(166,1489,l),
(498,171,l),
(812,1489,l),
(956,1489,l),
(1278,155,l),
(1604,1489,l)
);
}
);
width = 1761;
},
{
layerId = "1BB6E906-3DFF-4986-8FED-FA70B47B0561";
shapes = (
{
closed = 1;
nodes = (
(2160,1489,l),
(1782,0,l),
(1309,0,l),
(1092,816,l),
(881,0,l),
(407,0,l),
(31,1489,l),
(481,1489,l),
(654,570,l),
(888,1489,l),
(1316,1489,l),
(1532,574,l),
(1720,1489,l)
);
}
);
width = 2191;
}
);
unicode = 87;
},
{
glyphname = X;
layers = (
{
layerId = "0E45D8FB-8EA6-46E4-9786-99D047FDA37D";
shapes = (
{
closed = 1;
nodes = (
(1414,0,l),
(980,0,l),
(694,475,l),
(402,0,l),
(-12,0,l),
(471,750,l),
(7,1489,l),
(440,1489,l),
(708,1040,l),
(983,1489,l),
(1398,1489,l),
(931,765,l)
);
}
);
width = 1402;
},
{
layerId = "C991CE7E-6C6E-4D0C-9C0C-9C2488C785EC";
shapes = (
{
closed = 1;
nodes = (
(1181,0,l),
(954,0,l),
(591,596,l),
(222,0,l),
(8,0,l),
(481,745,l),
(22,1489,l),
(248,1489,l),
(604,904,l),
(965,1489,l),
(1180,1489,l),
(714,755,l)
);
}
);
width = 1189;
},
{
layerId = "9CEFB641-1E07-4D1E-B575-5426CF06F412";
shapes = (
{
closed = 1;
nodes = (
(1103,0,l),
(945,0,l),
(557,636,l),
(162,0,l),
(15,0,l),
(484,743,l),
(27,1489,l),
(184,1489,l),
(569,859,l),
(959,1489,l),
(1107,1489,l),
(642,752,l)
);
}
);
width = 1118;
},
{
layerId = "1BB6E906-3DFF-4986-8FED-FA70B47B0561";
shapes = (
{
closed = 1;
nodes = (
(1492,0,l),
(989,0,l),
(728,435,l),
(462,0,l),
(-19,0,l),
(468,752,l),
(2,1489,l),
(504,1489,l),
(743,1085,l),
(989,1489,l),
(1471,1489,l),
(1003,768,l)
);
}
);
width = 1473;
}
);
unicode = 88;
},
{
glyphname = Y;
layers = (
{
layerId = "0E45D8FB-8EA6-46E4-9786-99D047FDA37D";
shapes = (
{
closed = 1;
nodes = (
(1392,1489,l),
(878,622,l),
(878,0,l),
(504,0,l),
(504,603,l),
(-19,1489,l),
(407,1489,l),
(699,957,l),
(980,1489,l)
);
}
);
width = 1373;
},
{
layerId = "C991CE7E-6C6E-4D0C-9C0C-9C2488C785EC";
shapes = (
{
closed = 1;
nodes = (
(1193,1489,l),
(690,659,l),
(690,0,l),
(492,0,l),
(492,638,l),
(-11,1489,l),
(209,1489,l),
(593,832,l),
(983,1489,l)
);
}
);
width = 1180;
},
{
layerId = "9CEFB641-1E07-4D1E-B575-5426CF06F412";
shapes = (
{
closed = 1;
nodes = (
(1127,1489,l),
(627,671,l),
(627,0,l),
(488,0,l),
(488,650,l),
(-8,1489,l),
(143,1489,l),
(558,790,l),
(984,1489,l)
);
}
);
width = 1116;
},
{
layerId = "1BB6E906-3DFF-4986-8FED-FA70B47B0561";
shapes = (
{
closed = 1;
nodes = (
(1458,1489,l),
(941,610,l),
(941,0,l),
(508,0,l),
(508,591,l),
(-22,1489,l),
(473,1489,l),
(734,999,l),
(979,1489,l)
);
}
);
width = 1437;
}
);
unicode = 89;
},
{
glyphname = Z;
layers = (
{
layerId = "0E45D8FB-8EA6-46E4-9786-99D047FDA37D";
shapes = (
{
closed = 1;
nodes = (
(1235,0,l),
(54,0,l),
(54,279,l),
(739,1205,l),
(90,1205,l),
(90,1489,l),
(1195,1489,l),
(1195,1205,l),
(511,284,l),
(1235,284,l)
);
}
);
width = 1275;
},
{
layerId = "C991CE7E-6C6E-4D0C-9C0C-9C2488C785EC";
shapes = (
{
closed = 1;
nodes = (
(1100,0,l),
(60,0,l),
(60,184,l),
(857,1313,l),
(96,1313,l),
(96,1489,l),
(1080,1489,l),
(1080,1310,l),
(274,176,l),
(1100,176,l)
);
}
);
width = 1145;
},
{
layerId = "9CEFB641-1E07-4D1E-B575-5426CF06F412";
shapes = (
{
closed = 1;
nodes = (
(1055,0,l),
(62,0,l),
(62,152,l),
(896,1349,l),
(98,1349,l),
(98,1489,l),
(1042,1489,l),
(1042,1345,l),
(195,140,l),
(1055,140,l)
);
}
);
width = 1102;
},
{
layerId = "1BB6E906-3DFF-4986-8FED-FA70B47B0561";
shapes = (
{
closed = 1;
nodes = (
(1280,0,l),
(52,0,l),
(52,311,l),
(700,1169,l),
(88,1169,l),
(88,1489,l),
(1233,1489,l),
(1233,1170,l),
(590,320,l),
(1280,320,l)
);
}
);
width = 1318;
}
);
unicode = 90;
},
{
glyphname = bracketleft;
layers = (
{
layerId = "0E45D8FB-8EA6-46E4-9786-99D047FDA37D";
shapes = (
{
closed = 1;
nodes = (
(794,-392,l),
(166,-392,l),
(166,1556,l),
(794,1556,l),
(794,1320,l),
(469,1320,l),
(469,-156,l),
(794,-156,l)
);
}
);
width = 930;
},
{
layerId = "C991CE7E-6C6E-4D0C-9C0C-9C2488C785EC";
shapes = (
{
closed = 1;
nodes = (
(686,-392,l),
(166,-392,l),
(166,1556,l),
(686,1556,l),
(686,1413,l),
(341,1413,l),
(341,-249,l),
(686,-249,l)
);
}
);
width = 784;
},
{
layerId = "9CEFB641-1E07-4D1E-B575-5426CF06F412";
shapes = (
{
closed = 1;
nodes = (
(650,-392,l),
(166,-392,l),
(166,1556,l),
(650,1556,l),
(650,1444,l),
(298,1444,l),
(298,-280,l),
(650,-280,l)
);
}
);
width = 735;
},
{
layerId = "1BB6E906-3DFF-4986-8FED-FA70B47B0561";
shapes = (
{
closed = 1;
nodes = (
(830,-392,l),
(166,-392,l),
(166,1556,l),
(830,1556,l),
(830,1289,l),
(512,1289,l),
(512,-125,l),
(830,-125,l)
);
}
);
width = 979;
}
);
unicode = 91;
},
{
glyphname = backslash;
layers = (
{
layerId = "0E45D8FB-8EA6-46E4-9786-99D047FDA37D";
shapes = (
{
closed = 1;
nodes = (
(1074,-324,l),
(787,-324,l),
(194,1556,l),
(484,1556,l)
);
}
);
width = 1182;
},
{
layerId = "C991CE7E-6C6E-4D0C-9C0C-9C2488C785EC";
shapes = (
{
closed = 1;
nodes = (
(804,-324,l),
(635,-324,l),
(52,1556,l),
(224,1556,l)
);
}
);
width = 783;
},
{
layerId = "9CEFB641-1E07-4D1E-B575-5426CF06F412";
shapes = (
{
closed = 1;
nodes = (
(714,-324,l),
(584,-324,l),
(5,1556,l),
(137,1556,l)
);
}
);
width = 650;
},
{
layerId = "1BB6E906-3DFF-4986-8FED-FA70B47B0561";
shapes = (
{
closed = 1;
nodes = (
(1164,-324,l),
(838,-324,l),
(241,1556,l),
(571,1556,l)
);
}
);
width = 1315;
}
);
unicode = 92;
},
{
glyphname = bracketright;
layers = (
{
layerId = "0E45D8FB-8EA6-46E4-9786-99D047FDA37D";
shapes = (
{
closed = 1;
nodes = (
(763,-392,l),
(135,-392,l),
(135,-156,l),
(460,-156,l),
(460,1320,l),
(135,1320,l),
(135,1556,l),
(763,1556,l)
);
}
);
width = 930;
},
{
layerId = "C991CE7E-6C6E-4D0C-9C0C-9C2488C785EC";
shapes = (
{
closed = 1;
nodes = (
(618,-392,l),
(98,-392,l),
(98,-249,l),
(443,-249,l),
(443,1413,l),
(98,1413,l),
(98,1556,l),
(618,1556,l)
);
}
);
width = 784;
},
{
layerId = "9CEFB641-1E07-4D1E-B575-5426CF06F412";
shapes = (
{
closed = 1;
nodes = (
(570,-392,l),
(86,-392,l),
(86,-280,l),
(437,-280,l),
(437,1444,l),
(86,1444,l),
(86,1556,l),
(570,1556,l)
);
}
);
width = 735;
},
{
layerId = "1BB6E906-3DFF-4986-8FED-FA70B47B0561";
shapes = (
{
closed = 1;
nodes = (
(811,-392,l),
(147,-392,l),
(147,-125,l),
(466,-125,l),
(466,1289,l),
(147,1289,l),
(147,1556,l),
(811,1556,l)
);
}
);
width = 979;
}
);
unicode = 93;
},
{
glyphname = asciicircum;
layers = (
{
layerId = "0E45D8FB-8EA6-46E4-9786-99D047FDA37D";
shapes = (
{
closed = 1;
nodes = (
(1503,674,l),
(1191,674,l),
(822,1211,l),
(484,672,l),
(173,672,l),
(702,1489,l),
(942,1489,l)
);
}
);
width = 1676;
},
{
layerId = "C991CE7E-6C6E-4D0C-9C0C-9C2488C785EC";
shapes = (
{
closed = 1;
nodes = (
(1357,684,l),
(1159,684,l),
(744,1309,l),
(330,682,l),
(133,682,l),
(682,1489,l),
(808,1489,l)
);
}
);
width = 1490;
},
{
layerId = "9CEFB641-1E07-4D1E-B575-5426CF06F412";
shapes = (
{
closed = 1;
nodes = (
(1308,687,l),
(1148,687,l),
(718,1342,l),
(279,685,l),
(120,685,l),
(675,1489,l),
(763,1489,l)
);
}
);
width = 1428;
},
{
layerId = "1BB6E906-3DFF-4986-8FED-FA70B47B0561";
shapes = (
{
closed = 1;
nodes = (
(1552,671,l),
(1202,671,l),
(848,1178,l),
(535,669,l),
(186,669,l),
(709,1489,l),
(987,1489,l)
);
}
);
width = 1738;
}
);
unicode = 94;
},
{
glyphname = underscore;
layers = (
{
layerId = "0E45D8FB-8EA6-46E4-9786-99D047FDA37D";
shapes = (
{
closed = 1;
nodes = (
(1320,-345,l),
(-16,-345,l),
(-16,-144,l),
(1320,-144,l)
);
}
);
width = 1304;
},
{
layerId = "C991CE7E-6C6E-4D0C-9C0C-9C2488C785EC";
shapes = (
{
closed = 1;
nodes = (
(1134,-300,l),
(-16,-300,l),
(-16,-170,l),
(1134,-170,l)
);
}
);
width = 1118;
},
{
layerId = "9CEFB641-1E07-4D1E-B575-5426CF06F412";
shapes = (
{
closed = 1;
nodes = (
(1072,-285,l),
(-16,-285,l),
(-16,-179,l),
(1072,-179,l)
);
}
);
width = 1056;
},
{
layerId = "1BB6E906-3DFF-4986-8FED-FA70B47B0561";
shapes = (
{
closed = 1;
nodes = (
(1382,-360,l),
(-16,-360,l),
(-16,-135,l),
(1382,-135,l)
);
}
);
width = 1366;
}
);
unicode = 95;
},
{
glyphname = grave;
layers = (
{
layerId = "0E45D8FB-8EA6-46E4-9786-99D047FDA37D";
shapes = (
{
closed = 1;
nodes = (
(808,1283,l),
(570,1283,l),
(270,1676,l),
(601,1676,l)
);
}
);
width = 1118;
},
{
layerId = "C991CE7E-6C6E-4D0C-9C0C-9C2488C785EC";
shapes = (
{
closed = 1;
nodes = (
(670,1302,l),
(521,1302,l),
(248,1676,l),
(491,1676,l)
);
}
);
width = 1118;
},
{
layerId = "9CEFB641-1E07-4D1E-B575-5426CF06F412";
shapes = (
{
closed = 1;
nodes = (
(624,1308,l),
(505,1308,l),
(241,1676,l),
(454,1676,l)
);
}
);
width = 1118;
},
{
layerId = "1BB6E906-3DFF-4986-8FED-FA70B47B0561";
shapes = (
{
closed = 1;
nodes = (
(854,1277,l),
(586,1277,l),
(277,1676,l),
(638,1676,l)
);
}
);
width = 1118;
}
);
unicode = 96;
},
{
glyphname = a;
layers = (
{
layerId = "0E45D8FB-8EA6-46E4-9786-99D047FDA37D";
shapes = (
{
closed = 1;
nodes = (
(753,527,l),
(638,513,o),
(581,513,o),
(501,486,c),
(441,466,o),
(404,422,o),
(404,351,cs),
(404,247,o),
(460,213,o),
(572,213,cs),
(633,213,o),
(702,242,o),
(753,293,c)
);
},
{
closed = 1;
nodes = (
(753,119,l),
(725,97,o),
(702,75,o),
(675,55,cs),
(591,-5,o),
(497,-30,o),
(396,-30,cs),
(219,-30,o),
(50,95,o),
(50,322,cs),
(50,591,o),
(235,682,o),
(532,719,cs),
(602,728,o),
(677,733,o),
(755,738,c),
(755,744,ls),
(755,862,o),
(673,908,o),
(481,908,cs),
(394,908,o),
(274,872,o),
(174,828,c),
(144,828,l),
(144,1099,l),
(209,1117,o),
(397,1155,o),
(546,1155,cs),
(934,1155,o),
(1101,1027,o),
(1101,764,cs),
(1101,0,l),
(753,0,l)
);
}
);
width = 1226;
},
{
layerId = "C991CE7E-6C6E-4D0C-9C0C-9C2488C785EC";
shapes = (
{
closed = 1;
nodes = (
(760,585,l),
(678,578,o),
(502,561,o),
(425,539,c),
(325,507,o),
(252,449,o),
(252,336,cs),
(252,207,o),
(326,142,o),
(464,142,cs),
(582,142,o),
(676,199,o),
(760,275,c)
);
},
{
closed = 1;
nodes = (
(760,119,l),
(730,97,o),
(668,46,o),
(624,23,cs),
(550,-16,o),
(498,-31,o),
(397,-31,cs),
(216,-31,o),
(58,109,o),
(58,324,cs),
(58,542,o),
(187,672,o),
(484,710,cs),
(569,721,o),
(661,729,o),
(760,735,c),
(760,771,ls),
(760,950,o),
(640,978,o),
(489,978,cs),
(402,978,o),
(273,949,o),
(160,902,c),
(149,902,l),
(149,1093,l),
(212,1111,o),
(366,1144,o),
(490,1144,cs),
(763,1144,o),
(947,1063,o),
(947,764,cs),
(947,0,l),
(760,0,l)
);
}
);
width = 1075;
},
{
layerId = "9CEFB641-1E07-4D1E-B575-5426CF06F412";
shapes = (
{
closed = 1;
nodes = (
(762,604,l),
(691,600,o),
(476,577,o),
(400,557,c),
(286,521,o),
(201,458,o),
(201,331,cs),
(201,194,o),
(281,118,o),
(428,118,cs),
(565,118,o),
(667,185,o),
(762,269,c)
);
},
{
closed = 1;
nodes = (
(762,119,l),
(732,97,o),
(657,36,o),
(607,12,c),
(536,-20,o),
(498,-31,o),
(397,-31,cs),
(215,-31,o),
(61,114,o),
(61,325,cs),
(61,526,o),
(171,669,o),
(468,707,cs),
(558,719,o),
(656,728,o),
(762,734,c),
(762,780,ls),
(762,979,o),
(629,1001,o),
(492,1001,cs),
(405,1001,o),
(273,975,o),
(155,927,c),
(151,927,l),
(151,1091,l),
(213,1109,o),
(356,1140,o),
(471,1140,cs),
(706,1140,o),
(896,1075,o),
(896,764,cs),
(896,0,l),
(762,0,l)
);
}
);
width = 1025;
},
{
layerId = "1BB6E906-3DFF-4986-8FED-FA70B47B0561";
shapes = (
{
closed = 1;
nodes = (
(751,508,l),
(625,491,o),
(607,497,o),
(526,468,cs),
(480,452,o),
(455,413,o),
(455,356,cs),
(455,260,o),
(505,237,o),
(608,237,cs),
(650,237,o),
(711,256,o),
(751,299,c)
);
},
{
closed = 1;
nodes = (
(751,119,l),
(723,97,o),
(713,85,o),
(692,66,c),
(605,-1,o),
(497,-30,o),
(396,-30,cs),
(220,-30,o),
(47,90,o),
(47,321,cs),
(47,607,o),
(251,685,o),
(548,722,cs),
(613,730,o),
(682,734,o),
(753,739,c),
(753,735,l),
(753,833,o),
(684,885,o),
(478,885,cs),
(391,885,o),
(274,846,o),
(179,803,c),
(142,803,l),
(142,1101,l),
(208,1119,o),
(407,1159,o),
(565,1159,cs),
(991,1159,o),
(1152,1015,o),
(1152,764,cs),
(1152,0,l),
(751,0,l)
);
}
);
width = 1276;
}
);
unicode = 97;
},
{
glyphname = b;
layers = (
{
layerId = "0E45D8FB-8EA6-46E4-9786-99D047FDA37D";
shapes = (
{
closed = 1;
nodes = (
(877,795,o),
(810,882,o),
(669,882,cs),
(607,882,o),
(543,861,o),
(484,822,c),
(484,258,l),
(528,239,o),
(577,234,o),
(625,234,cs),
(795,234,o),
(877,348,o),
(877,570,cs)
);
},
{
closed = 1;
nodes = (
(1235,224,o),
(1031,-22,o),
(762,-22,cs),
(649,-22,o),
(581,0,o),
(484,56,c),
(469,0,l),
(134,0,l),
(134,1556,l),
(484,1556,l),
(484,1006,l),
(585,1094,o),
(689,1154,o),
(826,1154,cs),
(1090,1154,o),
(1235,931,o),
(1235,577,cs)
);
}
);
width = 1294;
},
{
layerId = "C991CE7E-6C6E-4D0C-9C0C-9C2488C785EC";
shapes = (
{
closed = 1;
nodes = (
(879,827,o),
(802,969,o),
(622,969,cs),
(518,969,o),
(407,913,o),
(324,842,c),
(324,202,l),
(418,154,o),
(479,138,o),
(571,138,cs),
(760,138,o),
(879,266,o),
(879,562,cs)
);
},
{
closed = 1;
nodes = (
(1073,211,o),
(871,-31,o),
(607,-31,cs),
(483,-31,o),
(408,0,o),
(324,52,c),
(312,0,l),
(136,0,l),
(136,1556,l),
(324,1556,l),
(324,1000,l),
(419,1085,o),
(526,1148,o),
(666,1148,cs),
(917,1148,o),
(1073,932,o),
(1073,577,cs)
);
}
);
width = 1132;
},
{
layerId = "9CEFB641-1E07-4D1E-B575-5426CF06F412";
shapes = (
{
closed = 1;
nodes = (
(880,838,o),
(799,998,o),
(606,998,cs),
(488,998,o),
(362,930,o),
(271,849,c),
(271,183,l),
(381,126,o),
(446,106,o),
(553,106,cs),
(748,106,o),
(880,239,o),
(880,559,cs)
);
},
{
closed = 1;
nodes = (
(1019,207,o),
(818,-34,o),
(555,-34,cs),
(428,-34,o),
(350,0,o),
(271,51,c),
(260,0,l),
(137,0,l),
(137,1556,l),
(271,1556,l),
(271,998,l),
(364,1082,o),
(472,1146,o),
(613,1146,cs),
(859,1146,o),
(1019,932,o),
(1019,577,cs)
);
}
);
width = 1078;
},
{
layerId = "1BB6E906-3DFF-4986-8FED-FA70B47B0561";
shapes = (
{
closed = 1;
nodes = (
(876,784,o),
(813,853,o),
(685,853,cs),
(637,853,o),
(588,844,o),
(537,815,c),
(537,277,l),
(565,267,o),
(610,266,o),
(643,266,cs),
(807,266,o),
(876,375,o),
(876,573,cs)
);
},
{
closed = 1;
nodes = (
(1289,228,o),
(1084,-19,o),
(814,-19,cs),
(704,-19,o),
(639,0,o),
(537,57,c),
(521,0,l),
(133,0,l),
(133,1556,l),
(537,1556,l),
(537,1008,l),
(640,1097,o),
(743,1156,o),
(879,1156,cs),
(1148,1156,o),
(1289,931,o),
(1289,577,cs)
);
}
);
width = 1348;
}
);
unicode = 98;
},
{
glyphname = c;
layers = (
{
layerId = "0E45D8FB-8EA6-46E4-9786-99D047FDA37D";
shapes = (
{
closed = 1;
nodes = (
(320,-30,o),
(52,150,o),
(52,557,cs),
(52,980,o),
(338,1154,o),
(675,1154,cs),
(798,1154,o),
(924,1127,o),
(1048,1064,c),
(1048,764,l),
(1003,764,l),
(942,821,o),
(837,902,o),
(692,902,cs),
(513,902,o),
(411,766,o),
(411,557,cs),
(411,335,o),
(520,222,o),
(698,222,cs),
(866,222,o),
(952,306,o),
(1003,357,c),
(1048,357,l),
(1048,57,l),
(937,7,o),
(803,-30,o),
(685,-30,cs)
);
}
);
width = 1080;
},
{
layerId = "C991CE7E-6C6E-4D0C-9C0C-9C2488C785EC";
shapes = (
{
closed = 1;
nodes = (
(271,-25,o),
(59,163,o),
(59,557,cs),
(59,946,o),
(283,1143,o),
(580,1143,cs),
(701,1143,o),
(821,1100,o),
(910,1057,c),
(910,846,l),
(899,846,l),
(857,879,o),
(736,980,o),
(577,980,cs),
(382,980,o),
(254,824,o),
(254,557,cs),
(254,294,o),
(372,138,o),
(577,138,cs),
(697,138,o),
(812,193,o),
(899,274,c),
(910,274,l),
(910,63,l),
(784,3,o),
(681,-25,o),
(580,-25,cs)
);
}
);
width = 945;
},
{
layerId = "9CEFB641-1E07-4D1E-B575-5426CF06F412";
shapes = (
{
closed = 1;
nodes = (
(255,-23,o),
(61,167,o),
(61,557,cs),
(61,935,o),
(265,1139,o),
(548,1139,cs),
(669,1139,o),
(787,1091,o),
(864,1055,c),
(864,873,l),
(857,873,l),
(822,898,o),
(702,1006,o),
(539,1006,cs),
(338,1006,o),
(202,843,o),
(202,557,cs),
(202,280,o),
(323,110,o),
(537,110,cs),
(641,110,o),
(759,155,o),
(858,246,c),
(864,246,l),
(864,65,l),
(733,2,o),
(640,-23,o),
(545,-23,cs)
);
}
);
width = 900;
},
{
layerId = "1BB6E906-3DFF-4986-8FED-FA70B47B0561";
shapes = (
{
closed = 1;
nodes = (
(336,-32,o),
(50,146,o),
(50,557,cs),
(50,991,o),
(356,1158,o),
(707,1158,cs),
(830,1158,o),
(958,1136,o),
(1094,1066,c),
(1094,737,l),
(1038,737,l),
(970,802,o),
(871,876,o),
(730,876,cs),
(557,876,o),
(463,747,o),
(463,557,cs),
(463,349,o),
(569,250,o),
(738,250,cs),
(922,250,o),
(999,344,o),
(1038,385,c),
(1094,385,l),
(1094,55,l),
(988,8,o),
(844,-32,o),
(720,-32,cs)
);
}
);
width = 1125;
}
);
unicode = 99;
},
{
glyphname = d;
layers = (
{
layerId = "0E45D8FB-8EA6-46E4-9786-99D047FDA37D";
shapes = (
{
closed = 1;
nodes = (
(1155,0,l),
(805,0,l),
(805,117,l),
(676,8,o),
(595,-31,o),
(470,-31,cs),
(231,-31,o),
(54,172,o),
(54,553,cs),
(54,909,o),
(253,1154,o),
(529,1154,cs),
(558,1154,o),
(585,1152,o),
(609,1149,cs),
(678,1141,o),
(733,1116,o),
(805,1078,c),
(805,1556,l),
(1155,1556,l)
);
},
{
closed = 1;
nodes = (
(805,861,l),
(773,878,o),
(701,891,o),
(665,891,cs),
(495,891,o),
(412,766,o),
(412,557,cs),
(412,338,o),
(474,243,o),
(626,243,cs),
(689,243,o),
(754,271,o),
(805,310,c)
);
}
);
width = 1289;
},
{
layerId = "C991CE7E-6C6E-4D0C-9C0C-9C2488C785EC";
shapes = (
{
closed = 1;
nodes = (
(996,0,l),
(808,0,l),
(808,114,l),
(708,30,o),
(636,-31,o),
(474,-31,cs),
(228,-31,o),
(59,173,o),
(59,550,cs),
(59,866,o),
(208,1083,o),
(438,1137,cs),
(468,1144,o),
(499,1148,o),
(531,1148,cs),
(641,1148,o),
(713,1126,o),
(808,1072,c),
(808,1556,l),
(996,1556,l)
);
},
{
closed = 1;
nodes = (
(808,916,l),
(712,961,o),
(651,976,o),
(562,976,cs),
(368,976,o),
(253,825,o),
(253,554,cs),
(253,293,o),
(331,148,o),
(518,148,cs),
(617,148,o),
(720,196,o),
(808,272,c)
);
}
);
width = 1132;
},
{
layerId = "9CEFB641-1E07-4D1E-B575-5426CF06F412";
shapes = (
{
closed = 1;
nodes = (
(943,0,l),
(809,0,l),
(809,113,l),
(719,37,o),
(650,-31,o),
(475,-31,cs),
(227,-31,o),
(61,173,o),
(61,549,cs),
(61,852,o),
(193,1059,o),
(408,1131,c),
(438,1141,o),
(470,1147,o),
(505,1148,cs),
(629,1150,o),
(706,1129,o),
(809,1070,c),
(809,1556,l),
(943,1556,l)
);
},
{
closed = 1;
nodes = (
(809,934,l),
(692,989,o),
(634,1004,o),
(528,1004,cs),
(326,1004,o),
(200,845,o),
(200,553,cs),
(200,278,o),
(283,116,o),
(482,116,cs),
(593,116,o),
(709,171,o),
(809,259,c)
);
}
);
width = 1080;
},
{
layerId = "1BB6E906-3DFF-4986-8FED-FA70B47B0561";
shapes = (
{
closed = 1;
nodes = (
(1208,0,l),
(804,0,l),
(804,118,l),
(665,1,o),
(581,-31,o),
(469,-31,cs),
(232,-31,o),
(52,172,o),
(52,554,cs),
(52,923,o),
(268,1178,o),
(559,1160,c),
(588,1157,o),
(614,1153,o),
(635,1149,cs),
(690,1139,o),
(740,1113,o),
(804,1080,c),
(804,1556,l),
(1208,1556,l)
);
},
{
closed = 1;
nodes = (
(804,843,l),
(793,850,o),
(718,863,o),
(699,863,cs),
(537,863,o),
(465,746,o),
(465,558,cs),
(465,353,o),
(522,275,o),
(662,275,cs),
(713,275,o),
(765,296,o),
(804,323,c)
);
}
);
width = 1341;
}
);
unicode = 100;
},
{
glyphname = e;
layers = (
{
layerId = "0E45D8FB-8EA6-46E4-9786-99D047FDA37D";
shapes = (
{
closed = 1;
nodes = (
(288,-30,o),
(52,177,o),
(52,555,cs),
(52,921,o),
(275,1158,o),
(652,1158,cs),
(992,1158,o),
(1170,971,o),
(1170,621,cs),
(1170,495,l),
(403,495,l),
(417,285,o),
(564,223,o),
(746,223,cs),
(900,223,o),
(1039,297,o),
(1113,352,c),
(1150,352,l),
(1150,63,l),
(993,5,o),
(882,-30,o),
(709,-30,cs)
);
},
{
closed = 1;
nodes = (
(825,706,l),
(821,846,o),
(764,933,o),
(625,933,cs),
(499,933,o),
(411,857,o),
(402,706,c)
);
}
);
width = 1216;
},
{
layerId = "C991CE7E-6C6E-4D0C-9C0C-9C2488C785EC";
shapes = (
{
closed = 1;
nodes = (
(264,-26,o),
(59,182,o),
(59,552,cs),
(59,913,o),
(268,1148,o),
(576,1148,cs),
(835,1148,o),
(1024,997,o),
(1024,641,cs),
(1024,539,l),
(250,539,l),
(250,279,o),
(388,138,o),
(619,138,cs),
(750,138,o),
(891,191,o),
(992,273,c),
(1003,273,l),
(1003,68,l),
(870,14,o),
(768,-26,o),
(621,-26,cs)
);
},
{
closed = 1;
nodes = (
(841,683,l),
(833,878,o),
(761,993,o),
(565,993,cs),
(368,993,o),
(265,856,o),
(250,683,c)
);
}
);
width = 1078;
},
{
layerId = "9CEFB641-1E07-4D1E-B575-5426CF06F412";
shapes = (
{
closed = 1;
nodes = (
(256,-25,o),
(61,184,o),
(61,551,cs),
(61,910,o),
(266,1145,o),
(551,1145,cs),
(783,1145,o),
(975,1006,o),
(975,648,cs),
(975,554,l),
(199,554,l),
(194,277,o),
(329,110,o),
(577,110,cs),
(700,110,o),
(838,156,o),
(948,247,c),
(954,247,l),
(954,70,l),
(829,17,o),
(730,-25,o),
(592,-25,cs)
);
},
{
closed = 1;
nodes = (
(846,675,l),
(837,889,o),
(760,1013,o),
(545,1013,cs),
(324,1013,o),
(216,856,o),
(199,675,c)
);
}
);
width = 1032;
},
{
layerId = "1BB6E906-3DFF-4986-8FED-FA70B47B0561";
shapes = (
{
closed = 1;
nodes = (
(296,-31,o),
(50,175,o),
(50,556,cs),
(50,924,o),
(277,1161,o),
(677,1161,cs),
(1044,1161,o),
(1219,962,o),
(1219,614,cs),
(1219,480,l),
(454,480,l),
(473,310,o),
(600,259,o),
(748,247,c),
(912,237,o),
(1069,316,o),
(1153,378,c),
(1199,378,l),
(1199,61,l),
(1032,0,o),
(922,-31,o),
(738,-31,cs)
);
},
{
closed = 1;
nodes = (
(820,714,l),
(817,835,o),
(765,913,o),
(645,913,cs),
(543,913,o),
(460,857,o),
(453,714,c)
);
}
);
width = 1262;
}
);
unicode = 101;
},
{
glyphname = f;
layers = (
{
layerId = "0E45D8FB-8EA6-46E4-9786-99D047FDA37D";
shapes = (
{
closed = 1;
nodes = (
(852,1292,l),
(825,1292,l),
(802,1299,o),
(729,1317,o),
(682,1317,cs),
(539,1317,o),
(499,1275,o),
(499,1132,cs),
(499,1123,l),
(777,1123,l),
(777,879,l),
(511,879,l),
(511,0,l),
(161,0,l),
(161,879,l),
(21,879,l),
(21,1123,l),
(161,1123,l),
(161,1154,ls),
(161,1429,o),
(304,1566,o),
(596,1566,cs),
(696,1566,o),
(786,1559,o),
(852,1546,c)
);
}
);
width = 783;
},
{
layerId = "C991CE7E-6C6E-4D0C-9C0C-9C2488C785EC";
shapes = (
{
closed = 1;
nodes = (
(724,1376,l),
(714,1376,l),
(683,1387,o),
(601,1402,o),
(558,1402,cs),
(399,1402,o),
(338,1342,o),
(338,1155,cs),
(338,1117,l),
(649,1117,l),
(649,961,l),
(344,961,l),
(344,0,l),
(156,0,l),
(156,961,l),
(29,961,l),
(29,1117,l),
(156,1117,l),
(156,1154,ls),
(156,1421,o),
(288,1566,o),
(531,1566,cs),
(597,1566,o),
(668,1556,o),
(724,1548,c)
);
}
);
width = 652;
},
{
layerId = "9CEFB641-1E07-4D1E-B575-5426CF06F412";
shapes = (
{
closed = 1;
nodes = (
(681,1404,l),
(677,1404,l),
(643,1416,o),
(558,1430,o),
(517,1430,cs),
(352,1430,o),
(284,1364,o),
(284,1163,cs),
(284,1115,l),
(606,1115,l),
(606,988,l),
(288,988,l),
(288,0,l),
(154,0,l),
(154,988,l),
(32,988,l),
(32,1115,l),
(154,1115,l),
(154,1154,ls),
(154,1418,o),
(283,1566,o),
(509,1566,cs),
(564,1566,o),
(629,1555,o),
(681,1549,c)
);
}
);
width = 608;
},
{
layerId = "1BB6E906-3DFF-4986-8FED-FA70B47B0561";
shapes = (
{
closed = 1;
nodes = (
(895,1264,l),
(862,1264,l),
(842,1270,o),
(772,1289,o),
(723,1289,cs),
(586,1289,o),
(553,1253,o),
(553,1124,c),
(553,1125,l),
(820,1125,l),
(820,852,l),
(567,852,l),
(567,0,l),
(163,0,l),
(163,852,l),
(18,852,l),
(18,1125,l),
(163,1125,l),
(163,1154,ls),
(163,1432,o),
(309,1566,o),
(618,1566,cs),
(729,1566,o),
(825,1560,o),
(895,1545,c)
);
}
);
width = 827;
}
);
unicode = 102;
},
{
glyphname = g;
layers = (
{
layerId = "0E45D8FB-8EA6-46E4-9786-99D047FDA37D";
shapes = (
{
closed = 1;
nodes = (
(805,863,l),
(771,879,o),
(712,891,o),
(665,891,cs),
(646,891,o),
(629,890,o),
(612,887,cs),
(479,866,o),
(412,754,o),
(412,582,cs),
(412,398,o),
(461,292,o),
(626,292,cs),
(691,292,o),
(750,315,o),
(805,354,c)
);
},
{
closed = 1;
nodes = (
(212,-94,l),
(312,-133,o),
(433,-163,o),
(513,-163,cs),
(708,-163,o),
(805,-110,o),
(805,110,cs),
(805,131,l),
(724,61,o),
(619,16,o),
(509,16,cs),
(217,16,o),
(54,206,o),
(54,590,cs),
(54,924,o),
(246,1154,o),
(525,1154,cs),
(544,1154,o),
(562,1153,o),
(580,1151,cs),
(667,1143,o),
(736,1116,o),
(803,1073,c),
(816,1123,l),
(1155,1123,l),
(1155,129,ls),
(1155,-290,o),
(913,-423,o),
(558,-423,cs),
(411,-423,o),
(270,-401,o),
(171,-375,c),
(171,-94,l)
);
}
);
width = 1289;
},
{
layerId = "C991CE7E-6C6E-4D0C-9C0C-9C2488C785EC";
shapes = (
{
closed = 1;
nodes = (
(808,916,l),
(737,949,o),
(680,967,o),
(619,975,cs),
(599,978,o),
(579,979,o),
(560,979,cs),
(367,979,o),
(253,832,o),
(253,573,cs),
(253,325,o),
(330,193,o),
(518,193,cs),
(614,193,o),
(723,234,o),
(808,303,c)
);
},
{
closed = 1;
nodes = (
(176,-179,l),
(277,-222,o),
(397,-255,o),
(508,-255,cs),
(736,-255,o),
(808,-139,o),
(808,50,cs),
(808,148,l),
(702,57,o),
(624,19,o),
(476,19,cs),
(222,19,o),
(59,213,o),
(59,569,cs),
(59,887,o),
(224,1089,o),
(439,1138,cs),
(468,1145,o),
(499,1148,o),
(530,1148,cs),
(647,1148,o),
(721,1120,o),
(808,1069,c),
(819,1117,l),
(996,1117,l),
(996,127,ls),
(996,-252,o),
(833,-423,o),
(493,-423,cs),
(384,-423,o),
(263,-403,o),
(166,-375,c),
(166,-179,l)
);
}
);
width = 1132;
},
{
layerId = "9CEFB641-1E07-4D1E-B575-5426CF06F412";
shapes = (
{
closed = 1;
nodes = (
(809,934,l),
(726,972,o),
(669,992,o),
(604,1003,cs),
(583,1007,o),
(562,1009,o),
(543,1010,cs),
(330,1017,o),
(200,858,o),
(200,570,cs),
(200,301,o),
(286,160,o),
(482,160,cs),
(588,160,o),
(714,207,o),
(809,286,c)
);
},
{
closed = 1;
nodes = (
(170,-207,l),
(271,-252,o),
(385,-286,o),
(506,-286,cs),
(745,-286,o),
(809,-149,o),
(809,30,cs),
(809,154,l),
(695,56,o),
(626,20,o),
(465,20,cs),
(224,20,o),
(61,215,o),
(61,562,cs),
(61,875,o),
(217,1067,o),
(410,1133,c),
(443,1142,o),
(478,1146,o),
(513,1147,cs),
(640,1150,o),
(716,1121,o),
(810,1068,c),
(820,1115,l),
(943,1115,l),
(943,126,ls),
(943,-239,o),
(806,-423,o),
(471,-423,cs),
(375,-423,o),
(261,-404,o),
(164,-375,c),
(164,-207,l)
);
}
);
width = 1080;
},
{
layerId = "1BB6E906-3DFF-4986-8FED-FA70B47B0561";
shapes = (
{
closed = 1;
nodes = (
(804,845,l),
(782,856,o),
(723,866,o),
(680,863,cs),
(662,862,o),
(646,860,o),
(629,856,cs),
(516,828,o),
(465,728,o),
(465,585,cs),
(465,422,o),
(505,325,o),
(662,325,cs),
(717,325,o),
(759,342,o),
(804,371,c)
);
},
{
closed = 1;
nodes = (
(224,-66,l),
(345,-112,o),
(469,-140,o),
(547,-135,c),
(733,-128,o),
(804,-75,o),
(804,130,c),
(804,125,l),
(731,62,o),
(617,15,o),
(520,15,cs),
(215,15,o),
(52,204,o),
(52,597,cs),
(52,936,o),
(253,1176,o),
(554,1159,c),
(569,1157,o),
(583,1155,o),
(597,1152,c),
(674,1141,o),
(741,1115,o),
(801,1074,c),
(815,1125,l),
(1208,1125,l),
(1208,130,ls),
(1208,-303,o),
(940,-423,o),
(580,-423,cs),
(420,-423,o),
(272,-400,o),
(173,-375,c),
(173,-66,l)
);
}
);
width = 1341;
}
);
unicode = 103;
},
{
glyphname = h;
layers = (
{
layerId = "0E45D8FB-8EA6-46E4-9786-99D047FDA37D";
shapes = (
{
closed = 1;
nodes = (
(1186,0,l),
(834,0,l),
(834,557,ls),
(834,760,o),
(824,863,o),
(665,863,cs),
(606,863,o),
(549,841,o),
(484,796,c),
(484,0,l),
(134,0,l),
(134,1556,l),
(484,1556,l),
(484,999,l),
(598,1094,o),
(696,1154,o),
(832,1154,cs),
(1062,1154,o),
(1186,1005,o),
(1186,731,cs)
);
}
);
width = 1311;
},
{
layerId = "C991CE7E-6C6E-4D0C-9C0C-9C2488C785EC";
shapes = (
{
closed = 1;
nodes = (
(1014,0,l),
(826,0,l),
(826,636,ls),
(826,851,o),
(799,969,o),
(614,969,cs),
(521,969,o),
(416,912,o),
(324,834,c),
(324,0,l),
(136,0,l),
(136,1556,l),
(324,1556,l),
(324,993,l),
(434,1091,o),
(539,1148,o),
(663,1148,cs),
(882,1148,o),
(1014,999,o),
(1014,725,cs)
);
}
);
width = 1142;
},
{
layerId = "9CEFB641-1E07-4D1E-B575-5426CF06F412";
shapes = (
{
closed = 1;
nodes = (
(957,0,l),
(823,0,l),
(823,662,ls),
(823,881,o),
(791,1004,o),
(597,1004,cs),
(493,1004,o),
(372,936,o),
(271,847,c),
(271,0,l),
(137,0,l),
(137,1556,l),
(271,1556,l),
(271,991,l),
(379,1090,o),
(487,1146,o),
(607,1146,cs),
(822,1146,o),
(957,997,o),
(957,723,cs)
);
}
);
width = 1086;
},
{
layerId = "1BB6E906-3DFF-4986-8FED-FA70B47B0561";
shapes = (
{
closed = 1;
nodes = (
(1243,0,l),
(837,0,l),
(837,531,ls),
(837,730,o),
(832,828,o),
(682,828,cs),
(634,828,o),
(593,817,o),
(537,783,c),
(537,0,l),
(133,0,l),
(133,1556,l),
(537,1556,l),
(537,1001,l),
(653,1095,o),
(748,1156,o),
(888,1156,cs),
(1122,1156,o),
(1243,1007,o),
(1243,733,cs)
);
}
);
width = 1367;
}
);
unicode = 104;
},
{
glyphname = i;
layers = (
{
layerId = "0E45D8FB-8EA6-46E4-9786-99D047FDA37D";
shapes = (
{
closed = 1;
nodes = (
(484,0,l),
(134,0,l),
(134,1123,l),
(484,1123,l)
);
},
{
closed = 1;
nodes = (
(494,1283,l),
(124,1283,l),
(124,1556,l),
(494,1556,l)
);
}
);
width = 618;
},
{
layerId = "C991CE7E-6C6E-4D0C-9C0C-9C2488C785EC";
shapes = (
{
closed = 1;
nodes = (
(328,0,l),
(140,0,l),
(140,1117,l),
(328,1117,l)
);
},
{
closed = 1;
nodes = (
(341,1304,l),
(127,1304,l),
(127,1499,l),
(341,1499,l)
);
}
);
width = 468;
},
{
layerId = "9CEFB641-1E07-4D1E-B575-5426CF06F412";
shapes = (
{
closed = 1;
nodes = (
(276,0,l),
(142,0,l),
(142,1115,l),
(276,1115,l)
);
},
{
closed = 1;
nodes = (
(290,1311,l),
(128,1311,l),
(128,1480,l),
(290,1480,l)
);
}
);
width = 418;
},
{
layerId = "1BB6E906-3DFF-4986-8FED-FA70B47B0561";
shapes = (
{
closed = 1;
nodes = (
(536,0,l),
(132,0,l),
(132,1125,l),
(536,1125,l)
);
},
{
closed = 1;
nodes = (
(545,1276,l),
(123,1276,l),
(123,1575,l),
(545,1575,l)
);
}
);
width = 668;
}
);
unicode = 105;
},
{
glyphname = j;
layers = (
{
layerId = "0E45D8FB-8EA6-46E4-9786-99D047FDA37D";
shapes = (
{
closed = 1;
nodes = (
(609,-20,ls),
(609,-273,o),
(440,-423,o),
(204,-423,cs),
(178,-423,o),
(154,-422,o),
(130,-421,cs),
(36,-417,o),
(-46,-407,o),
(-84,-397,c),
(-84,-139,l),
(-57,-139,l),
(-13,-154,o),
(52,-163,o),
(85,-163,cs),
(268,-163,o),
(259,-20,o),
(259,232,cs),
(259,879,l),
(57,879,l),
(57,1123,l),
(609,1123,l)
);
},
{
closed = 1;
nodes = (
(609,1283,l),
(236,1283,l),
(236,1556,l),
(609,1556,l)
);
}
);
width = 743;
},
{
layerId = "C991CE7E-6C6E-4D0C-9C0C-9C2488C785EC";
shapes = (
{
closed = 1;
nodes = (
(441,-32,ls),
(441,-253,o),
(330,-387,o),
(141,-417,cs),
(114,-421,o),
(86,-423,o),
(56,-423,cs),
(14,-423,o),
(-41,-419,o),
(-90,-411,c),
(-90,-243,l),
(-79,-243,l),
(-50,-249,o),
(-10,-257,o),
(20,-257,cs),
(231,-257,o),
(253,-151,o),
(253,45,cs),
(253,961,l),
(51,961,l),
(51,1117,l),
(441,1117,l)
);
},
{
closed = 1;
nodes = (
(442,1304,l),
(228,1304,l),
(228,1499,l),
(442,1499,l)
);
}
);
width = 577;
},
{
layerId = "9CEFB641-1E07-4D1E-B575-5426CF06F412";
shapes = (
{
closed = 1;
nodes = (
(385,-36,ls),
(385,-246,o),
(293,-375,o),
(120,-415,c),
(93,-420,o),
(63,-423,o),
(31,-424,c),
(7,-425,o),
(-39,-423,o),
(-92,-416,c),
(-92,-278,l),
(-86,-278,l),
(-62,-281,o),
(-31,-288,o),
(-2,-288,cs),
(219,-288,o),
(251,-195,o),
(251,-17,cs),
(251,988,l),
(49,988,l),
(49,1115,l),
(385,1115,l)
);
},
{
closed = 1;
nodes = (
(386,1311,l),
(225,1311,l),
(225,1480,l),
(386,1480,l)
);
}
);
width = 522;
},
{
layerId = "1BB6E906-3DFF-4986-8FED-FA70B47B0561";
shapes = (
{
closed = 1;
nodes = (
(665,-16,ls),
(665,-280,o),
(477,-435,o),
(225,-425,cs),
(199,-424,o),
(177,-422,o),
(155,-420,c),
(43,-415,o),
(-48,-403,o),
(-82,-392,c),
(-82,-104,l),
(-50,-104,l),
(-1,-122,o),
(73,-132,o),
(107,-132,cs),
(280,-132,o),
(261,24,o),
(261,294,cs),
(261,852,l),
(59,852,l),
(59,1125,l),
(665,1125,l)
);
},
{
closed = 1;
nodes = (
(665,1276,l),
(239,1276,l),
(239,1575,l),
(665,1575,l)
);
}
);
width = 798;
}
);
unicode = 106;
},
{
glyphname = k;
layers = (
{
layerId = "0E45D8FB-8EA6-46E4-9786-99D047FDA37D";
shapes = (
{
closed = 1;
nodes = (
(1258,0,l),
(842,0,l),
(538,489,l),
(484,416,l),
(484,0,l),
(134,0,l),
(134,1556,l),
(484,1556,l),
(484,684,l),
(816,1123,l),
(1229,1123,l),
(836,639,l)
);
}
);
width = 1234;
},
{
layerId = "C991CE7E-6C6E-4D0C-9C0C-9C2488C785EC";
shapes = (
{
closed = 1;
nodes = (
(1062,0,l),
(815,0,l),
(398,539,l),
(324,467,l),
(324,0,l),
(136,0,l),
(136,1556,l),
(324,1556,l),
(324,645,l),
(766,1117,l),
(1000,1117,l),
(541,650,l)
);
}
);
width = 1020;
},
{
layerId = "9CEFB641-1E07-4D1E-B575-5426CF06F412";
shapes = (
{
closed = 1;
nodes = (
(997,0,l),
(806,0,l),
(351,556,l),
(271,484,l),
(271,0,l),
(137,0,l),
(137,1556,l),
(271,1556,l),
(271,632,l),
(749,1115,l),
(924,1115,l),
(443,654,l)
);
}
);
width = 949;
},
{
layerId = "1BB6E906-3DFF-4986-8FED-FA70B47B0561";
shapes = (
{
closed = 1;
nodes = (
(1323,0,l),
(851,0,l),
(585,472,l),
(537,399,l),
(537,0,l),
(133,0,l),
(133,1556,l),
(537,1556,l),
(537,697,l),
(833,1125,l),
(1305,1125,l),
(934,635,l)
);
}
);
width = 1305;
}
);
unicode = 107;
},
{
glyphname = l;
layers = (
{
layerId = "0E45D8FB-8EA6-46E4-9786-99D047FDA37D";
shapes = (
{
closed = 1;
nodes = (
(484,0,l),
(134,0,l),
(134,1556,l),
(484,1556,l)
);
}
);
width = 618;
},
{
layerId = "C991CE7E-6C6E-4D0C-9C0C-9C2488C785EC";
shapes = (
{
closed = 1;
nodes = (
(328,0,l),
(140,0,l),
(140,1556,l),
(328,1556,l)
);
}
);
width = 468;
},
{
layerId = "9CEFB641-1E07-4D1E-B575-5426CF06F412";
shapes = (
{
closed = 1;
nodes = (
(276,0,l),
(142,0,l),
(142,1556,l),
(276,1556,l)
);
}
);
width = 418;
},
{
layerId = "1BB6E906-3DFF-4986-8FED-FA70B47B0561";
shapes = (
{
closed = 1;
nodes = (
(536,0,l),
(132,0,l),
(132,1556,l),
(536,1556,l)
);
}
);
width = 668;
}
);
unicode = 108;
},
{
glyphname = m;
layers = (
{
layerId = "0E45D8FB-8EA6-46E4-9786-99D047FDA37D";
shapes = (
{
closed = 1;
nodes = (
(1476,0,l),
(1476,561,ls),
(1476,775,o),
(1475,863,o),
(1320,863,cs),
(1266,863,o),
(1217,839,o),
(1156,796,c),
(1156,755,o),
(1156,715,o),
(1156,674,cs),
(1156,0,l),
(804,0,l),
(804,561,ls),
(804,770,o),
(802,863,o),
(648,863,cs),
(591,863,o),
(532,830,o),
(484,796,c),
(484,0,l),
(134,0,l),
(134,1123,l),
(484,1123,l),
(484,999,l),
(539,1046,o),
(593,1084,o),
(646,1113,cs),
(697,1140,o),
(754,1154,o),
(817,1154,cs),
(953,1154,o),
(1061,1088,o),
(1117,959,c),
(1251,1083,o),
(1365,1154,o),
(1489,1154,cs),
(1707,1154,o),
(1828,1012,o),
(1828,731,cs),
(1828,0,l)
);
}
);
width = 1953;
},
{
layerId = "C991CE7E-6C6E-4D0C-9C0C-9C2488C785EC";
shapes = (
{
closed = 1;
nodes = (
(1404,0,l),
(1404,646,ls),
(1404,859,o),
(1384,969,o),
(1216,969,cs),
(1137,969,o),
(1047,918,o),
(954,831,c),
(954,807,o),
(958,776,o),
(958,735,cs),
(958,0,l),
(770,0,l),
(770,646,ls),
(770,844,o),
(757,969,o),
(582,969,cs),
(499,969,o),
(405,909,o),
(324,834,c),
(324,0,l),
(136,0,l),
(136,1117,l),
(324,1117,l),
(324,993,l),
(422,1091,o),
(513,1148,o),
(630,1148,cs),
(663,1148,o),
(694,1144,o),
(723,1137,cs),
(816,1112,o),
(881,1057,o),
(922,955,c),
(1033,1080,o),
(1135,1148,o),
(1264,1148,cs),
(1449,1148,o),
(1592,1034,o),
(1592,735,cs),
(1592,0,l)
);
}
);
width = 1720;
},
{
layerId = "9CEFB641-1E07-4D1E-B575-5426CF06F412";
shapes = (
{
closed = 1;
nodes = (
(1380,0,l),
(1380,674,ls),
(1380,887,o),
(1354,1004,o),
(1181,1004,cs),
(1094,1004,o),
(990,944,o),
(887,843,c),
(887,824,o),
(892,796,o),
(892,755,cs),
(892,0,l),
(759,0,l),
(759,674,ls),
(759,869,o),
(742,1004,o),
(560,1004,cs),
(468,1004,o),
(363,935,o),
(271,847,c),
(271,0,l),
(137,0,l),
(137,1115,l),
(271,1115,l),
(271,991,l),
(383,1106,o),
(486,1169,o),
(625,1160,c),
(652,1151,o),
(674,1141,o),
(692,1131,c),
(770,1098,o),
(821,1047,o),
(857,954,c),
(960,1079,o),
(1058,1146,o),
(1189,1146,cs),
(1363,1146,o),
(1513,1041,o),
(1513,736,cs),
(1513,0,l)
);
}
);
width = 1642;
},
{
layerId = "1BB6E906-3DFF-4986-8FED-FA70B47B0561";
shapes = (
{
closed = 1;
nodes = (
(1500,0,l),
(1500,533,ls),
(1500,747,o),
(1505,828,o),
(1355,828,cs),
(1309,828,o),
(1274,813,o),
(1223,784,c),
(1223,738,o),
(1222,695,o),
(1222,654,cs),
(1222,0,l),
(815,0,l),
(815,533,ls),
(815,745,o),
(817,828,o),
(670,828,cs),
(622,828,o),
(574,804,o),
(537,783,c),
(537,0,l),
(133,0,l),
(133,1125,l),
(537,1125,l),
(537,1001,l),
(578,1031,o),
(620,1063,o),
(651,1101,c),
(708,1137,o),
(774,1157,o),
(848,1160,c),
(999,1168,o),
(1121,1098,o),
(1182,960,c),
(1324,1084,o),
(1442,1156,o),
(1564,1156,cs),
(1793,1156,o),
(1907,1005,o),
(1907,730,cs),
(1907,0,l)
);
}
);
width = 2031;
}
);
unicode = 109;
},
{
glyphname = n;
layers = (
{
layerId = "0E45D8FB-8EA6-46E4-9786-99D047FDA37D";
shapes = (
{
closed = 1;
nodes = (
(1186,0,l),
(834,0,l),
(834,557,ls),
(834,760,o),
(824,863,o),
(665,863,cs),
(608,863,o),
(551,843,o),
(484,796,c),
(484,0,l),
(134,0,l),
(134,1123,l),
(484,1123,l),
(484,999,l),
(598,1094,o),
(696,1154,o),
(832,1154,cs),
(1062,1154,o),
(1186,1005,o),
(1186,731,cs)
);
}
);
width = 1311;
},
{
layerId = "C991CE7E-6C6E-4D0C-9C0C-9C2488C785EC";
shapes = (
{
closed = 1;
nodes = (
(1014,0,l),
(826,0,l),
(826,636,ls),
(826,851,o),
(799,969,o),
(614,969,cs),
(521,969,o),
(416,912,o),
(324,834,c),
(324,0,l),
(136,0,l),
(136,1117,l),
(324,1117,l),
(324,993,l),
(434,1091,o),
(539,1148,o),
(663,1148,cs),
(882,1148,o),
(1014,999,o),
(1014,725,cs)
);
}
);
width = 1142;
},
{
layerId = "9CEFB641-1E07-4D1E-B575-5426CF06F412";
shapes = (
{
closed = 1;
nodes = (
(957,0,l),
(823,0,l),
(823,662,ls),
(823,881,o),
(791,1004,o),
(597,1004,cs),
(492,1004,o),
(371,935,o),
(271,847,c),
(271,0,l),
(137,0,l),
(137,1115,l),
(271,1115,l),
(271,991,l),
(379,1090,o),
(487,1146,o),
(607,1146,cs),
(822,1146,o),
(957,997,o),
(957,723,cs)
);
}
);
width = 1086;
},
{
layerId = "1BB6E906-3DFF-4986-8FED-FA70B47B0561";
shapes = (
{
closed = 1;
nodes = (
(1243,0,l),
(837,0,l),
(837,531,ls),
(837,730,o),
(832,828,o),
(682,828,cs),
(637,828,o),
(596,820,o),
(537,783,c),
(537,0,l),
(133,0,l),
(133,1125,l),
(537,1125,l),
(537,1001,l),
(653,1095,o),
(748,1156,o),
(888,1156,cs),
(1122,1156,o),
(1243,1007,o),
(1243,733,cs)
);
}
);
width = 1367;
}
);
unicode = 110;
},
{
glyphname = o;
layers = (
{
layerId = "0E45D8FB-8EA6-46E4-9786-99D047FDA37D";
shapes = (
{
closed = 1;
nodes = (
(1212,196,o),
(1004,-35,o),
(632,-35,cs),
(264,-35,o),
(52,193,o),
(52,561,cs),
(52,936,o),
(268,1158,o),
(632,1158,cs),
(995,1158,o),
(1212,934,o),
(1212,561,cs)
);
},
{
closed = 1;
nodes = (
(853,819,o),
(763,907,o),
(632,907,cs),
(513,907,o),
(411,836,o),
(411,559,cs),
(411,279,o),
(511,216,o),
(635,216,cs),
(777,216,o),
(853,330,o),
(853,559,cs)
);
}
);
width = 1264;
},
{
layerId = "C991CE7E-6C6E-4D0C-9C0C-9C2488C785EC";
shapes = (
{
closed = 1;
nodes = (
(1055,180,o),
(856,-31,o),
(557,-31,cs),
(245,-31,o),
(57,196,o),
(57,558,cs),
(57,929,o),
(257,1148,o),
(557,1148,cs),
(855,1148,o),
(1055,933,o),
(1055,558,cs)
);
},
{
closed = 1;
nodes = (
(861,848,o),
(750,986,o),
(557,986,cs),
(361,986,o),
(251,847,o),
(251,558,cs),
(251,277,o),
(360,131,o),
(557,131,cs),
(748,131,o),
(861,271,o),
(861,558,cs)
);
}
);
width = 1112;
},
{
layerId = "9CEFB641-1E07-4D1E-B575-5426CF06F412";
shapes = (
{
closed = 1;
nodes = (
(1003,175,o),
(807,-30,o),
(532,-30,cs),
(239,-30,o),
(59,197,o),
(59,557,cs),
(59,927,o),
(253,1145,o),
(532,1145,cs),
(808,1145,o),
(1003,933,o),
(1003,557,cs)
);
},
{
closed = 1;
nodes = (
(864,858,o),
(746,1012,o),
(532,1012,cs),
(310,1012,o),
(198,851,o),
(198,558,cs),
(198,276,o),
(310,103,o),
(531,103,cs),
(738,103,o),
(864,251,o),
(864,558,cs)
);
}
);
width = 1061;
},
{
layerId = "1BB6E906-3DFF-4986-8FED-FA70B47B0561";
shapes = (
{
closed = 1;
nodes = (
(1264,201,o),
(1053,-36,o),
(657,-36,cs),
(270,-36,o),
(50,192,o),
(50,562,cs),
(50,938,o),
(272,1161,o),
(657,1161,cs),
(1042,1161,o),
(1264,934,o),
(1264,562,cs)
);
},
{
closed = 1;
nodes = (
(850,809,o),
(767,881,o),
(657,881,cs),
(564,881,o),
(464,832,o),
(464,559,cs),
(464,280,o),
(561,244,o),
(661,244,cs),
(787,244,o),
(850,350,o),
(850,559,cs)
);
}
);
width = 1315;
}
);
unicode = 111;
},
{
glyphname = p;
layers = (
{
layerId = "0E45D8FB-8EA6-46E4-9786-99D047FDA37D";
shapes = (
{
closed = 1;
nodes = (
(1235,222,o),
(1027,-22,o),
(762,-22,cs),
(649,-22,o),
(581,0,o),
(484,56,c),
(484,-412,l),
(134,-412,l),
(134,1123,l),
(484,1123,l),
(484,1006,l),
(585,1094,o),
(689,1154,o),
(826,1154,cs),
(1088,1154,o),
(1235,930,o),
(1235,577,cs)
);
},
{
closed = 1;
nodes = (
(877,790,o),
(812,882,o),
(669,882,cs),
(607,882,o),
(543,861,o),
(484,822,c),
(484,257,l),
(522,241,o),
(563,235,o),
(625,235,cs),
(641,235,o),
(655,236,o),
(669,238,cs),
(809,256,o),
(877,368,o),
(877,570,cs)
);
}
);
width = 1289;
},
{
layerId = "C991CE7E-6C6E-4D0C-9C0C-9C2488C785EC";
shapes = (
{
closed = 1;
nodes = (
(1073,218,o),
(873,-22,o),
(602,-22,cs),
(485,-22,o),
(411,2,o),
(324,56,c),
(324,-412,l),
(136,-412,l),
(136,1117,l),
(324,1117,l),
(324,1000,l),
(419,1086,o),
(536,1148,o),
(666,1148,cs),
(923,1148,o),
(1073,923,o),
(1073,588,cs)
);
},
{
closed = 1;
nodes = (
(879,820,o),
(803,969,o),
(620,969,cs),
(513,969,o),
(410,915,o),
(324,842,c),
(324,209,l),
(400,171,o),
(448,156,o),
(506,150,cs),
(526,148,o),
(548,147,o),
(571,147,cs),
(764,147,o),
(879,290,o),
(879,567,cs)
);
}
);
width = 1132;
},
{
layerId = "9CEFB641-1E07-4D1E-B575-5426CF06F412";
shapes = (
{
closed = 1;
nodes = (
(1019,217,o),
(822,-22,o),
(549,-22,cs),
(430,-22,o),
(354,3,o),
(271,56,c),
(271,-412,l),
(137,-412,l),
(137,1115,l),
(271,1115,l),
(271,998,l),
(364,1083,o),
(485,1146,o),
(613,1146,cs),
(868,1146,o),
(1019,921,o),
(1019,592,cs)
);
},
{
closed = 1;
nodes = (
(880,830,o),
(800,998,o),
(604,998,cs),
(482,998,o),
(366,933,o),
(271,849,c),
(271,193,l),
(359,148,o),
(410,130,o),
(466,122,cs),
(488,119,o),
(512,117,o),
(538,117,c),
(749,111,o),
(880,264,o),
(880,566,cs)
);
}
);
width = 1080;
},
{
layerId = "1BB6E906-3DFF-4986-8FED-FA70B47B0561";
shapes = (
{
closed = 1;
nodes = (
(1289,223,o),
(1078,-22,o),
(815,-22,cs),
(704,-22,o),
(638,-1,o),
(537,56,c),
(537,-412,l),
(133,-412,l),
(133,1125,l),
(537,1125,l),
(537,1008,l),
(640,1097,o),
(740,1156,o),
(879,1156,cs),
(1143,1156,o),
(1289,932,o),
(1289,573,cs)
);
},
{
closed = 1;
nodes = (
(876,780,o),
(815,853,o),
(685,853,cs),
(638,853,o),
(587,843,o),
(537,815,c),
(537,273,l),
(563,264,o),
(601,261,o),
(665,263,cs),
(679,264,o),
(691,266,o),
(702,268,cs),
(824,292,o),
(876,394,o),
(876,571,cs)
);
}
);
width = 1341;
}
);
unicode = 112;
},
{
glyphname = q;
layers = (
{
layerId = "0E45D8FB-8EA6-46E4-9786-99D047FDA37D";
shapes = (
{
closed = 1;
nodes = (
(1155,-412,l),
(805,-412,l),
(805,110,l),
(680,8,o),
(598,-31,o),
(470,-31,cs),
(213,-31,o),
(54,202,o),
(54,553,cs),
(54,911,o),
(255,1154,o),
(529,1154,cs),
(640,1154,o),
(713,1124,o),
(803,1073,c),
(816,1123,l),
(1155,1123,l)
);
},
{
closed = 1;
nodes = (
(805,861,l),
(773,878,o),
(701,891,o),
(665,891,cs),
(495,891,o),
(412,766,o),
(412,557,cs),
(412,338,o),
(474,243,o),
(626,243,cs),
(689,243,o),
(754,271,o),
(805,310,c)
);
}
);
width = 1289;
},
{
layerId = "C991CE7E-6C6E-4D0C-9C0C-9C2488C785EC";
shapes = (
{
closed = 1;
nodes = (
(996,-412,l),
(808,-412,l),
(808,122,l),
(697,21,o),
(604,-22,o),
(475,-22,cs),
(220,-22,o),
(59,194,o),
(59,555,cs),
(59,931,o),
(278,1148,o),
(530,1148,cs),
(646,1148,o),
(719,1122,o),
(808,1069,c),
(820,1117,l),
(996,1117,l)
);
},
{
closed = 1;
nodes = (
(808,916,l),
(709,963,o),
(647,979,o),
(561,979,cs),
(361,979,o),
(253,828,o),
(253,564,cs),
(253,304,o),
(334,157,o),
(516,157,cs),
(621,157,o),
(723,207,o),
(808,280,c)
);
}
);
width = 1132;
},
{
layerId = "9CEFB641-1E07-4D1E-B575-5426CF06F412";
shapes = (
{
closed = 1;
nodes = (
(943,-412,l),
(809,-412,l),
(809,126,l),
(703,25,o),
(606,-19,o),
(477,-19,cs),
(222,-19,o),
(61,191,o),
(61,556,cs),
(61,938,o),
(286,1146,o),
(530,1146,cs),
(648,1146,o),
(721,1121,o),
(810,1068,c),
(821,1115,l),
(943,1115,l)
);
},
{
closed = 1;
nodes = (
(809,934,l),
(688,991,o),
(629,1008,o),
(526,1008,cs),
(316,1008,o),
(200,849,o),
(200,566,cs),
(200,293,o),
(287,128,o),
(479,128,cs),
(598,128,o),
(713,186,o),
(809,270,c)
);
}
);
width = 1080;
},
{
layerId = "1BB6E906-3DFF-4986-8FED-FA70B47B0561";
shapes = (
{
closed = 1;
nodes = (
(1208,-412,l),
(804,-412,l),
(804,106,l),
(674,4,o),
(596,-34,o),
(468,-34,cs),
(211,-34,o),
(52,205,o),
(52,552,cs),
(52,904,o),
(247,1156,o),
(529,1156,cs),
(638,1156,o),
(711,1125,o),
(801,1074,c),
(815,1125,l),
(1208,1125,l)
);
},
{
closed = 1;
nodes = (
(804,843,l),
(794,850,o),
(719,862,o),
(700,862,cs),
(540,862,o),
(465,745,o),
(465,555,cs),
(465,349,o),
(521,272,o),
(663,272,cs),
(712,272,o),
(764,292,o),
(804,320,c)
);
}
);
width = 1341;
}
);
unicode = 113;
},
{
glyphname = r;
layers = (
{
layerId = "0E45D8FB-8EA6-46E4-9786-99D047FDA37D";
shapes = (
{
closed = 1;
nodes = (
(888,792,l),
(859,792,l),
(832,801,o),
(778,806,o),
(717,806,cs),
(644,806,o),
(557,781,o),
(484,752,c),
(484,0,l),
(134,0,l),
(134,1123,l),
(484,1123,l),
(484,962,l),
(558,1031,o),
(649,1096,o),
(749,1119,cs),
(771,1124,o),
(792,1127,o),
(812,1127,cs),
(835,1127,o),
(864,1125,o),
(888,1123,c)
);
}
);
width = 888;
},
{
layerId = "C991CE7E-6C6E-4D0C-9C0C-9C2488C785EC";
shapes = (
{
closed = 1;
nodes = (
(728,915,l),
(718,915,l),
(690,923,o),
(660,924,o),
(617,924,cs),
(515,924,o),
(411,878,o),
(324,793,c),
(324,0,l),
(136,0,l),
(136,1117,l),
(324,1117,l),
(324,951,l),
(461,1072,o),
(554,1117,o),
(652,1117,cs),
(661,1117,o),
(670,1116,o),
(677,1116,cs),
(695,1116,o),
(709,1114,o),
(728,1111,c)
);
}
);
width = 738;
},
{
layerId = "9CEFB641-1E07-4D1E-B575-5426CF06F412";
shapes = (
{
closed = 1;
nodes = (
(675,956,l),
(671,956,l),
(643,964,o),
(621,963,o),
(584,963,cs),
(472,963,o),
(362,910,o),
(271,807,c),
(271,0,l),
(137,0,l),
(137,1115,l),
(271,1115,l),
(271,947,l),
(429,1086,o),
(522,1124,o),
(620,1116,c),
(624,1115,o),
(629,1112,o),
(632,1112,cs),
(648,1112,o),
(657,1110,o),
(675,1107,c)
);
}
);
width = 688;
},
{
layerId = "1BB6E906-3DFF-4986-8FED-FA70B47B0561";
shapes = (
{
closed = 1;
nodes = (
(941,751,l),
(906,751,l),
(879,760,o),
(817,767,o),
(750,767,cs),
(687,767,o),
(606,749,o),
(537,738,c),
(537,0,l),
(133,0,l),
(133,1125,l),
(537,1125,l),
(537,966,l),
(590,1017,o),
(681,1089,o),
(781,1120,c),
(808,1126,o),
(833,1131,o),
(857,1131,cs),
(882,1131,o),
(916,1129,o),
(941,1127,c)
);
}
);
width = 938;
}
);
unicode = 114;
},
{
glyphname = s;
layers = (
{
layerId = "0E45D8FB-8EA6-46E4-9786-99D047FDA37D";
shapes = (
{
closed = 1;
nodes = (
(310,-31,o),
(154,12,o),
(59,59,c),
(59,355,l),
(88,355,l),
(132,322,o),
(226,247,o),
(376,219,cs),
(408,213,o),
(442,209,o),
(478,209,cs),
(569,209,o),
(665,235,o),
(665,305,cs),
(665,372,o),
(595,400,o),
(437,423,c),
(191,471,o),
(64,571,o),
(64,783,cs),
(64,984,o),
(257,1154,o),
(588,1154,cs),
(744,1154,o),
(881,1118,o),
(972,1074,c),
(972,790,l),
(944,790,l),
(871,844,o),
(747,914,o),
(601,914,cs),
(504,914,o),
(420,879,o),
(420,819,cs),
(420,714,o),
(511,754,o),
(775,666,c),
(933,615,o),
(1021,519,o),
(1021,351,cs),
(1021,111,o),
(788,-31,o),
(476,-31,cs)
);
}
);
width = 1054;
},
{
layerId = "C991CE7E-6C6E-4D0C-9C0C-9C2488C785EC";
shapes = (
{
closed = 1;
nodes = (
(290,-27,o),
(149,22,o),
(67,67,c),
(67,278,l),
(77,278,l),
(121,242,o),
(193,188,o),
(325,149,cs),
(363,138,o),
(402,132,o),
(445,132,cs),
(622,132,o),
(683,208,o),
(683,296,cs),
(683,404,o),
(626,433,o),
(423,475,cs),
(174,526,o),
(72,617,o),
(72,803,cs),
(72,1002,o),
(237,1144,o),
(489,1144,cs),
(609,1144,o),
(749,1108,o),
(834,1063,c),
(834,862,l),
(824,862,l),
(730,938,o),
(602,985,o),
(485,985,cs),
(362,985,o),
(264,934,o),
(264,828,cs),
(264,683,o),
(367,682,o),
(626,621,c),
(790,579,o),
(875,488,o),
(875,322,cs),
(875,111,o),
(700,-27,o),
(438,-27,cs)
);
}
);
width = 914;
},
{
layerId = "9CEFB641-1E07-4D1E-B575-5426CF06F412";
shapes = (
{
closed = 1;
nodes = (
(283,-26,o),
(147,25,o),
(70,70,c),
(70,252,l),
(73,252,l),
(117,215,o),
(182,168,o),
(308,126,cs),
(348,113,o),
(389,106,o),
(434,106,cs),
(640,106,o),
(689,199,o),
(689,293,cs),
(689,415,o),
(636,444,o),
(418,492,c),
(168,544,o),
(75,632,o),
(75,810,cs),
(75,1008,o),
(230,1141,o),
(456,1141,cs),
(564,1141,o),
(705,1105,o),
(788,1059,c),
(788,886,l),
(784,886,l),
(683,969,o),
(554,1009,o),
(446,1009,cs),
(315,1009,o),
(212,952,o),
(212,831,cs),
(212,673,o),
(319,658,o),
(576,606,c),
(742,567,o),
(826,478,o),
(826,312,cs),
(826,111,o),
(671,-26,o),
(425,-26,cs)
);
}
);
width = 867;
},
{
layerId = "1BB6E906-3DFF-4986-8FED-FA70B47B0561";
shapes = (
{
closed = 1;
nodes = (
(317,-32,o),
(156,9,o),
(56,56,c),
(56,381,l),
(92,381,l),
(136,349,o),
(237,267,o),
(393,242,c),
(423,238,o),
(455,235,o),
(489,235,cs),
(551,235,o),
(659,244,o),
(659,308,cs),
(659,361,o),
(585,389,o),
(442,406,c),
(197,453,o),
(61,556,o),
(61,776,cs),
(61,978,o),
(264,1157,o),
(621,1157,cs),
(789,1157,o),
(925,1121,o),
(1018,1078,c),
(1018,766,l),
(984,766,l),
(918,813,o),
(795,890,o),
(640,890,cs),
(551,890,o),
(472,861,o),
(472,816,cs),
(472,724,o),
(559,778,o),
(825,681,c),
(981,627,o),
(1070,529,o),
(1070,361,cs),
(1070,111,o),
(817,-32,o),
(489,-32,cs)
);
}
);
width = 1101;
}
);
unicode = 115;
},
{
glyphname = t;
layers = (
{
layerId = "0E45D8FB-8EA6-46E4-9786-99D047FDA37D";
shapes = (
{
closed = 1;
nodes = (
(284,-22,o),
(155,81,o),
(155,354,cs),
(155,879,l),
(21,879,l),
(21,1123,l),
(155,1123,l),
(155,1444,l),
(505,1444,l),
(505,1123,l),
(842,1123,l),
(842,879,l),
(505,879,l),
(505,481,ls),
(505,327,o),
(497,223,o),
(675,223,cs),
(708,223,o),
(791,245,o),
(812,257,c),
(842,257,l),
(842,10,l),
(765,-10,o),
(684,-22,o),
(564,-22,cs)
);
}
);
width = 851;
},
{
layerId = "C991CE7E-6C6E-4D0C-9C0C-9C2488C785EC";
shapes = (
{
closed = 1;
nodes = (
(268,-22,o),
(148,89,o),
(148,342,cs),
(148,961,l),
(21,961,l),
(21,1117,l),
(148,1117,l),
(148,1438,l),
(336,1438,l),
(336,1117,l),
(682,1117,l),
(682,961,l),
(336,961,l),
(336,430,ls),
(336,230,o),
(338,143,o),
(520,143,cs),
(578,143,o),
(645,167,o),
(671,179,c),
(682,179,l),
(682,10,l),
(611,-10,o),
(533,-22,o),
(474,-22,cs)
);
}
);
width = 685;
},
{
layerId = "9CEFB641-1E07-4D1E-B575-5426CF06F412";
shapes = (
{
closed = 1;
nodes = (
(263,-22,o),
(146,92,o),
(146,338,cs),
(146,988,l),
(21,988,l),
(21,1115,l),
(146,1115,l),
(146,1436,l),
(280,1436,l),
(280,1115,l),
(629,1115,l),
(629,988,l),
(280,988,l),
(280,413,ls),
(280,198,o),
(285,116,o),
(468,116,cs),
(535,116,o),
(596,141,o),
(624,153,c),
(629,153,l),
(629,10,l),
(560,-10,o),
(483,-22,o),
(444,-22,cs)
);
}
);
width = 630;
},
{
layerId = "1BB6E906-3DFF-4986-8FED-FA70B47B0561";
shapes = (
{
closed = 1;
nodes = (
(289,-22,o),
(157,78,o),
(157,358,cs),
(157,852,l),
(21,852,l),
(21,1125,l),
(157,1125,l),
(157,1446,l),
(561,1446,l),
(561,1125,l),
(895,1125,l),
(895,852,l),
(561,852,l),
(561,498,ls),
(561,359,o),
(550,250,o),
(727,250,cs),
(751,250,o),
(840,271,o),
(859,283,c),
(895,283,l),
(895,10,l),
(816,-10,o),
(734,-22,o),
(594,-22,cs)
);
}
);
width = 906;
}
);
unicode = 116;
},
{
glyphname = u;
layers = (
{
layerId = "0E45D8FB-8EA6-46E4-9786-99D047FDA37D";
shapes = (
{
closed = 1;
nodes = (
(1177,0,l),
(827,0,l),
(827,124,l),
(725,38,o),
(650,-12,o),
(546,-27,cs),
(525,-30,o),
(502,-31,o),
(479,-31,cs),
(258,-31,o),
(125,108,o),
(125,392,cs),
(125,1123,l),
(477,1123,l),
(477,566,ls),
(477,350,o),
(486,260,o),
(646,260,cs),
(696,260,o),
(771,286,o),
(827,327,c),
(827,1123,l),
(1177,1123,l)
);
}
);
width = 1311;
},
{
layerId = "C991CE7E-6C6E-4D0C-9C0C-9C2488C785EC";
shapes = (
{
closed = 1;
nodes = (
(1006,0,l),
(818,0,l),
(818,124,l),
(696,17,o),
(603,-31,o),
(479,-31,cs),
(454,-31,o),
(431,-29,o),
(408,-25,cs),
(244,3,o),
(128,128,o),
(128,392,cs),
(128,1117,l),
(316,1117,l),
(316,481,ls),
(316,254,o),
(338,148,o),
(528,148,cs),
(620,148,o),
(732,209,o),
(818,283,c),
(818,1117,l),
(1006,1117,l)
);
}
);
width = 1142;
},
{
layerId = "9CEFB641-1E07-4D1E-B575-5426CF06F412";
shapes = (
{
closed = 1;
nodes = (
(949,0,l),
(815,0,l),
(815,124,l),
(686,10,o),
(587,-37,o),
(457,-32,cs),
(430,-31,o),
(407,-28,o),
(384,-23,c),
(239,14,o),
(129,135,o),
(129,392,cs),
(129,1115,l),
(262,1115,l),
(262,453,ls),
(262,222,o),
(289,111,o),
(489,111,cs),
(595,111,o),
(719,183,o),
(815,268,c),
(815,1115,l),
(949,1115,l)
);
}
);
width = 1086;
},
{
layerId = "1BB6E906-3DFF-4986-8FED-FA70B47B0561";
shapes = (
{
closed = 1;
nodes = (
(1234,0,l),
(830,0,l),
(830,124,l),
(735,45,o),
(666,-6,o),
(568,-26,cs),
(549,-30,o),
(526,-32,o),
(503,-33,cs),
(263,-42,o),
(124,101,o),
(124,392,cs),
(124,1125,l),
(531,1125,l),
(531,594,ls),
(531,382,o),
(535,297,o),
(685,297,cs),
(721,297,o),
(784,312,o),
(830,342,c),
(830,1125,l),
(1234,1125,l)
);
}
);
width = 1367;
}
);
unicode = 117;
},
{
glyphname = v;
layers = (
{
layerId = "0E45D8FB-8EA6-46E4-9786-99D047FDA37D";
shapes = (
{
closed = 1;
nodes = (
(1185,1123,l),
(782,0,l),
(400,0,l),
(0,1123,l),
(368,1123,l),
(598,380,l),
(825,1123,l)
);
}
);
width = 1185;
},
{
layerId = "C991CE7E-6C6E-4D0C-9C0C-9C2488C785EC";
shapes = (
{
closed = 1;
nodes = (
(1014,1117,l),
(593,0,l),
(424,0,l),
(6,1117,l),
(209,1117,l),
(515,255,l),
(818,1117,l)
);
}
);
width = 1020;
},
{
layerId = "9CEFB641-1E07-4D1E-B575-5426CF06F412";
shapes = (
{
closed = 1;
nodes = (
(957,1115,l),
(530,0,l),
(432,0,l),
(8,1115,l),
(156,1115,l),
(487,213,l),
(816,1115,l)
);
}
);
width = 965;
},
{
layerId = "1BB6E906-3DFF-4986-8FED-FA70B47B0561";
shapes = (
{
closed = 1;
nodes = (
(1242,1125,l),
(845,0,l),
(392,0,l),
(-2,1125,l),
(421,1125,l),
(626,422,l),
(827,1125,l)
);
}
);
width = 1240;
}
);
unicode = 118;
},
{
glyphname = w;
layers = (
{
layerId = "0E45D8FB-8EA6-46E4-9786-99D047FDA37D";
shapes = (
{
closed = 1;
nodes = (
(1807,1123,l),
(1479,0,l),
(1107,0,l),
(910,726,l),
(712,0,l),
(340,0,l),
(15,1123,l),
(383,1123,l),
(555,380,l),
(768,1123,l),
(1077,1123,l),
(1278,380,l),
(1447,1123,l)
);
}
);
width = 1822;
},
{
layerId = "C991CE7E-6C6E-4D0C-9C0C-9C2488C785EC";
shapes = (
{
closed = 1;
nodes = (
(1490,1117,l),
(1207,0,l),
(1033,0,l),
(760,861,l),
(489,0,l),
(316,0,l),
(30,1117,l),
(226,1117,l),
(423,252,l),
(688,1117,l),
(843,1117,l),
(1115,252,l),
(1301,1117,l)
);
}
);
width = 1520;
},
{
layerId = "9CEFB641-1E07-4D1E-B575-5426CF06F412";
shapes = (
{
closed = 1;
nodes = (
(1384,1115,l),
(1116,0,l),
(1008,0,l),
(710,906,l),
(415,0,l),
(308,0,l),
(35,1115,l),
(174,1115,l),
(379,209,l),
(661,1115,l),
(765,1115,l),
(1061,209,l),
(1252,1115,l)
);
}
);
width = 1419;
},
{
layerId = "1BB6E906-3DFF-4986-8FED-FA70B47B0561";
shapes = (
{
closed = 1;
nodes = (
(1913,1125,l),
(1570,0,l),
(1132,0,l),
(960,681,l),
(786,0,l),
(348,0,l),
(10,1125,l),
(435,1125,l),
(599,423,l),
(795,1125,l),
(1155,1125,l),
(1332,423,l),
(1496,1125,l)
);
}
);
width = 1923;
}
);
unicode = 119;
},
{
glyphname = x;
layers = (
{
layerId = "0E45D8FB-8EA6-46E4-9786-99D047FDA37D";
shapes = (
{
closed = 1;
nodes = (
(1242,0,l),
(832,0,l),
(618,323,l),
(398,0,l),
(-4,0,l),
(409,561,l),
(3,1123,l),
(413,1123,l),
(623,806,l),
(834,1123,l),
(1237,1123,l),
(830,570,l)
);
}
);
width = 1238;
},
{
layerId = "C991CE7E-6C6E-4D0C-9C0C-9C2488C785EC";
shapes = (
{
closed = 1;
nodes = (
(1004,0,l),
(773,0,l),
(502,422,l),
(223,0,l),
(10,0,l),
(398,554,l),
(14,1117,l),
(245,1117,l),
(514,699,l),
(790,1117,l),
(1004,1117,l),
(618,567,l)
);
}
);
width = 1014;
},
{
layerId = "9CEFB641-1E07-4D1E-B575-5426CF06F412";
shapes = (
{
closed = 1;
nodes = (
(925,0,l),
(753,0,l),
(463,455,l),
(165,0,l),
(15,0,l),
(394,552,l),
(18,1115,l),
(189,1115,l),
(478,663,l),
(775,1115,l),
(926,1115,l),
(547,566,l)
);
}
);
width = 939;
},
{
layerId = "1BB6E906-3DFF-4986-8FED-FA70B47B0561";
shapes = (
{
closed = 1;
nodes = (
(1321,0,l),
(852,0,l),
(657,290,l),
(456,0,l),
(-9,0,l),
(413,563,l),
(-1,1125,l),
(469,1125,l),
(659,842,l),
(849,1125,l),
(1315,1125,l),
(901,571,l)
);
}
);
width = 1313;
}
);
unicode = 120;
},
{
glyphname = y;
layers = (
{
layerId = "0E45D8FB-8EA6-46E4-9786-99D047FDA37D";
shapes = (
{
closed = 1;
nodes = (
(1182,1123,l),
(615,-412,l),
(239,-412,l),
(409,27,l),
(-3,1123,l),
(365,1123,l),
(601,419,l),
(822,1123,l)
);
}
);
width = 1179;
},
{
layerId = "C991CE7E-6C6E-4D0C-9C0C-9C2488C785EC";
shapes = (
{
closed = 1;
nodes = (
(1014,1117,l),
(413,-412,l),
(212,-412,l),
(412,54,l),
(6,1117,l),
(209,1117,l),
(514,290,l),
(818,1117,l)
);
}
);
width = 1020;
},
{
layerId = "9CEFB641-1E07-4D1E-B575-5426CF06F412";
shapes = (
{
closed = 1;
nodes = (
(958,1115,l),
(346,-412,l),
(203,-412,l),
(413,63,l),
(9,1115,l),
(157,1115,l),
(485,247,l),
(817,1115,l)
);
}
);
width = 967;
},
{
layerId = "1BB6E906-3DFF-4986-8FED-FA70B47B0561";
shapes = (
{
closed = 1;
nodes = (
(1238,1125,l),
(682,-412,l),
(248,-412,l),
(408,18,l),
(-6,1125,l),
(417,1125,l),
(630,462,l),
(823,1125,l)
);
}
);
width = 1232;
}
);
unicode = 121;
},
{
glyphname = z;
layers = (
{
layerId = "0E45D8FB-8EA6-46E4-9786-99D047FDA37D";
shapes = (
{
closed = 1;
nodes = (
(1030,0,l),
(48,0,l),
(48,231,l),
(584,860,l),
(72,860,l),
(72,1123,l),
(1019,1123,l),
(1019,896,l),
(482,268,l),
(1030,268,l)
);
}
);
width = 1077;
},
{
layerId = "C991CE7E-6C6E-4D0C-9C0C-9C2488C785EC";
shapes = (
{
closed = 1;
nodes = (
(870,0,l),
(49,0,l),
(49,139,l),
(633,962,l),
(73,962,l),
(73,1117,l),
(859,1117,l),
(859,983,l),
(272,157,l),
(870,157,l)
);
}
);
width = 910;
},
{
layerId = "9CEFB641-1E07-4D1E-B575-5426CF06F412";
shapes = (
{
closed = 1;
nodes = (
(817,0,l),
(49,0,l),
(49,108,l),
(649,996,l),
(73,996,l),
(73,1115,l),
(806,1115,l),
(806,1012,l),
(202,120,l),
(817,120,l)
);
}
);
width = 854;
},
{
layerId = "1BB6E906-3DFF-4986-8FED-FA70B47B0561";
shapes = (
{
closed = 1;
nodes = (
(1083,0,l),
(48,0,l),
(48,262,l),
(568,826,l),
(72,826,l),
(72,1125,l),
(1072,1125,l),
(1072,867,l),
(552,305,l),
(1083,305,l)
);
}
);
width = 1133;
}
);
unicode = 122;
},
{
glyphname = braceleft;
layers = (
{
layerId = "0E45D8FB-8EA6-46E4-9786-99D047FDA37D";
shapes = (
{
closed = 1;
nodes = (
(1139,-392,l),
(1007,-392,ls),
(705,-392,o),
(455,-352,o),
(455,-5,cs),
(455,114,ls),
(455,342,o),
(400,461,o),
(121,461,cs),
(56,461,l),
(56,703,l),
(121,703,ls),
(363,703,o),
(455,792,o),
(455,1020,cs),
(455,1139,ls),
(455,1452,o),
(626,1556,o),
(941,1556,cs),
(1139,1556,l),
(1139,1336,l),
(1030,1336,ls),
(867,1336,o),
(772,1300,o),
(772,1090,cs),
(772,1005,ls),
(772,820,o),
(698,673,o),
(470,594,c),
(470,570,l),
(633,514,o),
(772,385,o),
(772,187,cs),
(772,74,ls),
(772,-128,o),
(854,-172,o),
(1030,-172,cs),
(1139,-172,l)
);
}
);
width = 1276;
},
{
layerId = "C991CE7E-6C6E-4D0C-9C0C-9C2488C785EC";
shapes = (
{
closed = 1;
nodes = (
(886,-392,l),
(770,-392,ls),
(532,-392,o),
(388,-258,o),
(388,-5,cs),
(388,144,ls),
(388,322,o),
(340,504,o),
(81,504,cs),
(60,504,l),
(60,660,l),
(81,660,ls),
(301,660,o),
(388,783,o),
(388,1020,cs),
(388,1169,ls),
(388,1421,o),
(530,1556,o),
(770,1556,cs),
(886,1556,l),
(886,1418,l),
(806,1418,ls),
(638,1418,o),
(567,1349,o),
(567,1152,cs),
(567,977,ls),
(567,771,o),
(460,659,o),
(296,594,c),
(296,570,l),
(463,499,o),
(567,381,o),
(567,187,cs),
(567,12,ls),
(567,-181,o),
(635,-254,o),
(806,-254,cs),
(886,-254,l)
);
}
);
width = 984;
},
{
layerId = "9CEFB641-1E07-4D1E-B575-5426CF06F412";
shapes = (
{
closed = 1;
nodes = (
(802,-392,l),
(691,-392,ls),
(474,-392,o),
(366,-227,o),
(366,-5,cs),
(366,154,ls),
(366,315,o),
(320,518,o),
(68,518,cs),
(61,518,l),
(61,646,l),
(68,646,ls),
(280,646,o),
(366,780,o),
(366,1020,cs),
(366,1179,ls),
(366,1411,o),
(498,1556,o),
(713,1556,cs),
(802,1556,l),
(802,1445,l),
(731,1445,ls),
(562,1445,o),
(499,1365,o),
(499,1173,cs),
(499,968,ls),
(499,755,o),
(381,654,o),
(238,594,c),
(238,570,l),
(406,494,o),
(499,380,o),
(499,187,cs),
(499,-9,ls),
(499,-199,o),
(562,-281,o),
(731,-281,cs),
(802,-281,l)
);
}
);
width = 887;
},
{
layerId = "1BB6E906-3DFF-4986-8FED-FA70B47B0561";
shapes = (
{
closed = 1;
nodes = (
(1223,-392,l),
(1086,-392,ls),
(763,-392,o),
(477,-383,o),
(477,-5,cs),
(477,104,ls),
(477,349,o),
(420,447,o),
(134,447,cs),
(55,447,l),
(55,717,l),
(134,717,ls),
(384,717,o),
(477,795,o),
(477,1020,cs),
(477,1129,ls),
(477,1462,o),
(658,1556,o),
(998,1556,cs),
(1223,1556,l),
(1223,1309,l),
(1105,1309,ls),
(943,1309,o),
(840,1284,o),
(840,1069,cs),
(840,1014,ls),
(840,836,o),
(777,678,o),
(528,594,c),
(528,570,l),
(690,519,o),
(840,386,o),
(840,187,cs),
(840,95,ls),
(840,-110,o),
(927,-145,o),
(1105,-145,cs),
(1223,-145,l)
);
}
);
width = 1373;
}
);
unicode = 123;
},
{
glyphname = bar;
layers = (
{
layerId = "0E45D8FB-8EA6-46E4-9786-99D047FDA37D";
shapes = (
{
closed = 1;
nodes = (
(792,-392,l),
(511,-392,l),
(511,1556,l),
(792,1556,l)
);
}
);
width = 1304;
},
{
layerId = "C991CE7E-6C6E-4D0C-9C0C-9C2488C785EC";
shapes = (
{
closed = 1;
nodes = (
(475,-392,l),
(308,-392,l),
(308,1556,l),
(475,1556,l)
);
}
);
width = 783;
},
{
layerId = "9CEFB641-1E07-4D1E-B575-5426CF06F412";
shapes = (
{
closed = 1;
nodes = (
(369,-392,l),
(240,-392,l),
(240,1556,l),
(369,1556,l)
);
}
);
width = 609;
},
{
layerId = "1BB6E906-3DFF-4986-8FED-FA70B47B0561";
shapes = (
{
closed = 1;
nodes = (
(898,-392,l),
(579,-392,l),
(579,1556,l),
(898,1556,l)
);
}
);
width = 1478;
}
);
unicode = 124;
},
{
glyphname = braceright;
layers = (
{
layerId = "0E45D8FB-8EA6-46E4-9786-99D047FDA37D";
shapes = (
{
closed = 1;
nodes = (
(1220,461,l),
(1155,461,ls),
(909,461,o),
(821,368,o),
(821,144,cs),
(821,-5,ls),
(821,-284,o),
(637,-392,o),
(363,-392,cs),
(137,-392,l),
(137,-172,l),
(246,-172,ls),
(410,-172,o),
(504,-136,o),
(504,74,cs),
(504,149,ls),
(504,335,o),
(567,487,o),
(806,570,c),
(806,594,l),
(618,659,o),
(504,790,o),
(504,977,cs),
(504,1090,ls),
(504,1279,o),
(434,1336,o),
(246,1336,cs),
(137,1336,l),
(137,1556,l),
(288,1556,ls),
(570,1556,o),
(821,1512,o),
(821,1169,cs),
(821,1020,ls),
(821,797,o),
(910,703,o),
(1155,703,cs),
(1220,703,l)
);
}
);
width = 1276;
},
{
layerId = "C991CE7E-6C6E-4D0C-9C0C-9C2488C785EC";
shapes = (
{
closed = 1;
nodes = (
(924,504,l),
(903,504,ls),
(666,504,o),
(596,359,o),
(596,144,cs),
(596,-5,ls),
(596,-252,o),
(456,-392,o),
(214,-392,cs),
(98,-392,l),
(98,-254,l),
(178,-254,ls),
(329,-254,o),
(417,-200,o),
(417,12,cs),
(417,187,ls),
(417,374,o),
(501,491,o),
(688,570,c),
(688,594,l),
(511,664,o),
(417,792,o),
(417,977,cs),
(417,1152,ls),
(417,1349,o),
(342,1418,o),
(178,1418,cs),
(98,1418,l),
(98,1556,l),
(214,1556,ls),
(450,1556,o),
(596,1421,o),
(596,1169,cs),
(596,1020,ls),
(596,832,o),
(647,660,o),
(903,660,cs),
(924,660,l)
);
}
);
width = 984;
},
{
layerId = "9CEFB641-1E07-4D1E-B575-5426CF06F412";
shapes = (
{
closed = 1;
nodes = (
(825,518,l),
(819,518,ls),
(585,518,o),
(521,356,o),
(521,144,cs),
(521,-5,ls),
(521,-241,o),
(396,-392,o),
(164,-392,cs),
(85,-392,l),
(85,-281,l),
(155,-281,ls),
(302,-281,o),
(388,-221,o),
(388,-9,cs),
(388,200,ls),
(388,387,o),
(479,492,o),
(649,570,c),
(649,594,l),
(475,666,o),
(388,793,o),
(388,977,cs),
(388,1173,ls),
(388,1372,o),
(311,1445,o),
(155,1445,cs),
(85,1445,l),
(85,1556,l),
(189,1556,ls),
(410,1556,o),
(521,1391,o),
(521,1169,cs),
(521,1020,ls),
(521,844,o),
(559,646,o),
(819,646,cs),
(825,646,l)
);
}
);
width = 887;
},
{
layerId = "1BB6E906-3DFF-4986-8FED-FA70B47B0561";
shapes = (
{
closed = 1;
nodes = (
(1319,447,l),
(1239,447,ls),
(990,447,o),
(896,371,o),
(896,144,cs),
(896,-5,ls),
(896,-295,o),
(697,-392,o),
(413,-392,cs),
(150,-392,l),
(150,-145,l),
(269,-145,ls),
(437,-145,o),
(533,-115,o),
(533,95,cs),
(533,136,ls),
(533,322,o),
(589,486,o),
(845,570,c),
(845,594,l),
(654,657,o),
(533,789,o),
(533,977,cs),
(533,1069,ls),
(533,1256,o),
(465,1309,o),
(269,1309,cs),
(150,1309,l),
(150,1556,l),
(313,1556,ls),
(610,1556,o),
(896,1542,o),
(896,1169,cs),
(896,1020,ls),
(896,785,o),
(998,717,o),
(1239,717,cs),
(1319,717,l)
);
}
);
width = 1373;
}
);
unicode = 125;
},
{
glyphname = asciitilde;
layers = (
{
layerId = "0E45D8FB-8EA6-46E4-9786-99D047FDA37D";
shapes = (
{
closed = 1;
nodes = (
(1545,989,l),
(1545,583,o),
(1411,335,o),
(1128,335,cs),
(827,335,o),
(774,599,o),
(627,697,c),
(604,712,o),
(582,723,o),
(558,723,cs),
(547,723,o),
(537,723,o),
(528,721,cs),
(405,701,o),
(401,525,o),
(395,333,c),
(135,333,l),
(135,753,o),
(274,987,o),
(552,987,cs),
(833,987,o),
(829,785,o),
(1055,624,cs),
(1076,609,o),
(1098,599,o),
(1122,599,cs),
(1132,599,o),
(1142,599,o),
(1151,601,cs),
(1279,623,o),
(1280,808,o),
(1285,989,c)
);
}
);
width = 1676;
},
{
layerId = "C991CE7E-6C6E-4D0C-9C0C-9C2488C785EC";
shapes = (
{
closed = 1;
nodes = (
(1356,927,l),
(1348,671,o),
(1268,396,o),
(1014,396,cs),
(796,396,o),
(708,585,o),
(603,704,c),
(576,731,o),
(548,753,o),
(515,762,cs),
(504,765,o),
(493,766,o),
(481,766,cs),
(343,766,o),
(310,609,o),
(302,395,c),
(134,395,l),
(138,668,o),
(233,926,o),
(476,926,cs),
(711,926,o),
(811,696,o),
(888,618,cs),
(917,588,o),
(943,569,o),
(977,560,cs),
(987,557,o),
(998,556,o),
(1009,556,cs),
(1148,556,o),
(1180,718,o),
(1188,927,c)
);
}
);
width = 1490;
},
{
layerId = "9CEFB641-1E07-4D1E-B575-5426CF06F412";
shapes = (
{
closed = 1;
nodes = (
(1293,906,l),
(1282,700,o),
(1220,416,o),
(976,416,cs),
(786,416,o),
(686,580,o),
(595,706,c),
(567,737,o),
(537,763,o),
(501,775,cs),
(490,779,o),
(478,780,o),
(465,781,cs),
(322,788,o),
(280,637,o),
(271,416,c),
(134,416,l),
(139,640,o),
(219,906,o),
(451,906,cs),
(670,906,o),
(805,666,o),
(832,616,c),
(864,581,o),
(891,559,o),
(929,547,c),
(939,543,o),
(950,542,o),
(962,541,cs),
(1104,534,o),
(1147,688,o),
(1156,906,c)
);
}
);
width = 1428;
},
{
layerId = "1BB6E906-3DFF-4986-8FED-FA70B47B0561";
shapes = (
{
closed = 1;
nodes = (
(1608,1010,l),
(1611,554,o),
(1459,315,o),
(1166,315,cs),
(837,315,o),
(796,604,o),
(635,695,c),
(613,706,o),
(593,713,o),
(572,710,cs),
(561,709,o),
(552,709,o),
(544,706,c),
(426,679,o),
(431,497,o),
(426,312,c),
(135,312,l),
(134,781,o),
(288,1007,o),
(577,1007,cs),
(874,1007,o),
(835,815,o),
(1111,626,c),
(1129,616,o),
(1150,609,o),
(1170,612,cs),
(1180,613,o),
(1190,613,o),
(1198,616,c),
(1323,645,o),
(1313,838,o),
(1317,1010,c)
);
}
);
width = 1738;
}
);
unicode = 126;
},
{
glyphname = Aring;
layers = (
{
layerId = "0E45D8FB-8EA6-46E4-9786-99D047FDA37D";
shapes = (
{
closed = 1;
nodes = (
(1029,1545,o),
(990,1464,o),
(930,1410,c),
(1408,0,l),
(1023,0,l),
(930,304,l),
(462,304,l),
(369,0,l),
(-6,0,l),
(473,1412,l),
(413,1466,o),
(375,1544,o),
(375,1626,cs),
(375,1796,o),
(529,1935,o),
(702,1935,cs),
(875,1935,o),
(1029,1795,o),
(1029,1626,cs)
);
},
{
closed = 1;
nodes = (
(848,574,l),
(696,1065,l),
(544,574,l)
);
},
{
closed = 1;
nodes = (
(838,1714,o),
(784,1780,o),
(702,1780,cs),
(624,1780,o),
(566,1718,o),
(566,1635,cs),
(566,1553,o),
(620,1489,o),
(702,1489,cs),
(782,1489,o),
(838,1551,o),
(838,1635,cs)
);
}
);
width = 1402;
},
{
layerId = "C991CE7E-6C6E-4D0C-9C0C-9C2488C785EC";
shapes = (
{
closed = 1;
nodes = (
(920,1574,o),
(851,1474,o),
(758,1425,c),
(1238,0,l),
(1029,0,l),
(894,416,l),
(325,416,l),
(190,0,l),
(-10,0,l),
(469,1422,l),
(373,1474,o),
(308,1569,o),
(308,1685,cs),
(308,1853,o),
(443,1986,o),
(614,1986,cs),
(785,1986,o),
(920,1854,o),
(920,1685,cs)
);
},
{
closed = 1;
nodes = (
(839,584,l),
(609,1289,l),
(380,584,l)
);
},
{
closed = 1;
nodes = (
(773,1779,o),
(707,1853,o),
(614,1853,cs),
(520,1853,o),
(455,1778,o),
(455,1683,cs),
(455,1584,o),
(522,1512,o),
(614,1512,cs),
(706,1512,o),
(773,1584,o),
(773,1683,cs)
);
}
);
width = 1228;
},
{
layerId = "9CEFB641-1E07-4D1E-B575-5426CF06F412";
shapes = (
{
closed = 1;
nodes = (
(884,1584,o),
(805,1477,o),
(701,1430,c),
(1181,0,l),
(1031,0,l),
(882,453,l),
(279,453,l),
(130,0,l),
(-11,0,l),
(468,1425,l),
(360,1477,o),
(286,1577,o),
(286,1705,cs),
(286,1872,o),
(414,2003,o),
(585,2003,cs),
(755,2003,o),
(884,1874,o),
(884,1705,cs)
);
},
{
closed = 1;
nodes = (
(836,587,l),
(580,1364,l),
(325,587,l)
);
},
{
closed = 1;
nodes = (
(751,1801,o),
(681,1877,o),
(585,1877,cs),
(485,1877,o),
(418,1798,o),
(418,1699,cs),
(418,1594,o),
(489,1520,o),
(585,1520,cs),
(681,1520,o),
(751,1595,o),
(751,1699,cs)
);
}
);
width = 1170;
},
{
layerId = "1BB6E906-3DFF-4986-8FED-FA70B47B0561";
shapes = (
{
closed = 1;
nodes = (
(1065,1535,o),
(1036,1461,o),
(987,1405,c),
(1465,0,l),
(1021,0,l),
(942,267,l),
(508,267,l),
(429,0,l),
(-5,0,l),
(474,1409,l),
(426,1463,o),
(397,1536,o),
(397,1606,cs),
(397,1777,o),
(558,1918,o),
(731,1918,cs),
(905,1918,o),
(1065,1775,o),
(1065,1606,cs)
);
},
{
closed = 1;
nodes = (
(851,571,l),
(725,990,l),
(599,571,l)
);
},
{
closed = 1;
nodes = (
(860,1692,o),
(810,1756,o),
(731,1756,cs),
(659,1756,o),
(603,1698,o),
(603,1619,cs),
(603,1543,o),
(653,1481,o),
(731,1481,cs),
(807,1481,o),
(860,1540,o),
(860,1619,cs)
);
}
);
width = 1460;
}
);
unicode = 197;
},
{
glyphname = Ccedilla;
layers = (
{
layerId = "0E45D8FB-8EA6-46E4-9786-99D047FDA37D";
shapes = (
{
closed = 1;
nodes = (
(796,-27,ls),
(362,-27,o),
(67,237,o),
(67,743,cs),
(67,1179,o),
(308,1518,o),
(797,1518,cs),
(1000,1518,o),
(1140,1478,o),
(1301,1394,c),
(1301,1039,l),
(1263,1039,l),
(1187,1106,o),
(1033,1239,o),
(857,1239,cs),
(669,1239,o),
(453,1121,o),
(453,742,cs),
(453,392,o),
(652,250,o),
(859,250,cs),
(1070,250,o),
(1216,404,o),
(1267,449,c),
(1301,449,l),
(1301,99,l),
(1231,66,o),
(1145,27,o),
(1065,6,cs),
(1054,3,o),
(1043,1,o),
(1031,-2,c),
(1031,-26,o),
(1034,-63,o),
(1034,-86,cs),
(1034,-302,o),
(893,-423,o),
(689,-423,cs),
(642,-423,o),
(526,-411,o),
(486,-399,c),
(486,-199,l),
(505,-199,l),
(536,-213,o),
(606,-234,o),
(657,-234,cs),
(730,-234,o),
(786,-206,o),
(807,-143,cs),
(814,-122,o),
(818,-98,o),
(818,-70,c),
(818,-56,o),
(818,-41,o),
(818,-27,c)
);
}
);
width = 1367;
},
{
layerId = "C991CE7E-6C6E-4D0C-9C0C-9C2488C785EC";
shapes = (
{
closed = 1;
nodes = (
(345,-27,o),
(66,233,o),
(66,743,cs),
(66,1203,o),
(312,1516,o),
(736,1516,cs),
(927,1516,o),
(1064,1462,o),
(1196,1390,c),
(1196,1151,l),
(1180,1151,l),
(1114,1209,o),
(970,1347,o),
(734,1347,cs),
(468,1347,o),
(272,1127,o),
(272,743,cs),
(272,343,o),
(481,144,o),
(734,144,cs),
(947,144,o),
(1098,254,o),
(1181,337,c),
(1196,337,l),
(1196,101,l),
(1122,65,o),
(1073,37,o),
(975,8,cs),
(965,5,o),
(958,3,o),
(954,3,c),
(954,-17,o),
(959,-50,o),
(959,-89,cs),
(959,-286,o),
(842,-423,o),
(650,-423,cs),
(601,-423,o),
(521,-414,o),
(473,-399,c),
(473,-239,l),
(482,-239,l),
(512,-252,o),
(572,-273,o),
(624,-273,cs),
(746,-273,o),
(806,-225,o),
(806,-107,cs),
(806,-81,o),
(804,-55,o),
(804,-24,c),
(778,-24,o),
(762,-27,o),
(733,-27,c)
);
}
);
width = 1230;
},
{
layerId = "9CEFB641-1E07-4D1E-B575-5426CF06F412";
shapes = (
{
closed = 1;
nodes = (
(712,-27,l),
(339,-27,o),
(66,232,o),
(66,743,cs),
(66,1211,o),
(313,1515,o),
(716,1515,cs),
(903,1515,o),
(1039,1457,o),
(1161,1389,c),
(1161,1188,l),
(1152,1188,l),
(1090,1243,o),
(949,1383,o),
(693,1383,cs),
(401,1383,o),
(212,1129,o),
(212,743,cs),
(212,327,o),
(424,109,o),
(692,109,cs),
(906,109,o),
(1059,204,o),
(1152,300,c),
(1161,300,l),
(1161,102,l),
(1086,65,o),
(1049,40,o),
(945,9,cs),
(935,6,o),
(930,4,o),
(928,5,c),
(928,-14,o),
(934,-46,o),
(934,-90,cs),
(934,-281,o),
(825,-423,o),
(637,-423,cs),
(587,-423,o),
(519,-415,o),
(469,-399,c),
(469,-252,l),
(474,-252,l),
(504,-265,o),
(561,-286,o),
(613,-286,cs),
(751,-286,o),
(813,-231,o),
(806,-95,c),
(803,-67,o),
(799,-41,o),
(799,-9,c),
(765,-13,o),
(743,-22,o),
(705,-27,c)
);
}
);
width = 1184;
},
{
layerId = "1BB6E906-3DFF-4986-8FED-FA70B47B0561";
shapes = (
{
closed = 1;
nodes = (
(817,-27,ls),
(368,-27,o),
(67,238,o),
(67,743,cs),
(67,1171,o),
(307,1519,o),
(817,1519,cs),
(1024,1519,o),
(1165,1483,o),
(1336,1395,c),
(1336,1002,l),
(1291,1002,l),
(1211,1072,o),
(1054,1203,o),
(898,1203,cs),
(736,1203,o),
(513,1119,o),
(513,742,cs),
(513,408,o),
(709,285,o),
(901,285,cs),
(1111,285,o),
(1255,454,o),
(1296,486,c),
(1336,486,l),
(1336,98,l),
(1267,66,o),
(1169,24,o),
(1095,5,cs),
(1084,2,o),
(1071,0,o),
(1057,-4,c),
(1057,-29,o),
(1059,-67,o),
(1059,-85,cs),
(1059,-307,o),
(910,-423,o),
(702,-423,cs),
(656,-423,o),
(528,-410,o),
(490,-399,c),
(490,-186,l),
(513,-186,l),
(544,-200,o),
(617,-221,o),
(668,-221,cs),
(725,-221,o),
(779,-200,o),
(807,-155,c),
(817,-136,o),
(823,-112,o),
(823,-85,c),
(831,-67,o),
(837,-46,o),
(846,-27,c)
);
}
);
width = 1413;
}
);
unicode = 199;
},
{
glyphname = aring;
layers = (
{
layerId = "0E45D8FB-8EA6-46E4-9786-99D047FDA37D";
shapes = (
{
closed = 1;
nodes = (
(753,527,l),
(638,513,o),
(581,513,o),
(501,486,c),
(441,466,o),
(404,422,o),
(404,351,cs),
(404,247,o),
(460,213,o),
(572,213,cs),
(633,213,o),
(702,242,o),
(753,293,c)
);
},
{
closed = 1;
nodes = (
(753,119,l),
(725,97,o),
(702,75,o),
(675,55,cs),
(595,-3,o),
(495,-30,o),
(396,-30,cs),
(220,-30,o),
(50,93,o),
(50,322,cs),
(50,583,o),
(226,677,o),
(509,716,cs),
(585,726,o),
(668,732,o),
(755,738,c),
(755,744,ls),
(755,841,o),
(700,886,o),
(580,903,cs),
(551,907,o),
(518,908,o),
(481,908,cs),
(398,908,o),
(271,870,o),
(174,828,c),
(144,828,l),
(144,1099,l),
(212,1119,o),
(324,1143,o),
(458,1152,c),
(368,1204,o),
(310,1302,o),
(310,1411,cs),
(310,1580,o),
(448,1712,o),
(618,1712,cs),
(788,1712,o),
(926,1582,o),
(926,1411,cs),
(926,1289,o),
(857,1185,o),
(752,1138,c),
(966,1106,o),
(1101,998,o),
(1101,764,cs),
(1101,0,l),
(753,0,l)
);
},
{
closed = 1;
nodes = (
(754,1485,o),
(700,1558,o),
(618,1558,cs),
(538,1558,o),
(482,1492,o),
(482,1410,cs),
(482,1328,o),
(536,1264,o),
(618,1264,cs),
(698,1264,o),
(754,1326,o),
(754,1410,cs)
);
}
);
width = 1226;
},
{
layerId = "C991CE7E-6C6E-4D0C-9C0C-9C2488C785EC";
shapes = (
{
closed = 1;
nodes = (
(760,585,l),
(678,578,o),
(502,561,o),
(425,539,c),
(325,507,o),
(252,449,o),
(252,336,cs),
(252,207,o),
(326,142,o),
(464,142,cs),
(582,142,o),
(676,199,o),
(760,275,c)
);
},
{
closed = 1;
nodes = (
(760,119,l),
(731,97,o),
(668,46,o),
(624,23,cs),
(550,-16,o),
(498,-31,o),
(397,-31,cs),
(213,-31,o),
(58,111,o),
(58,324,cs),
(58,542,o),
(187,672,o),
(484,710,cs),
(569,721,o),
(661,729,o),
(760,735,c),
(760,771,ls),
(760,950,o),
(640,978,o),
(489,978,cs),
(454,978,o),
(419,975,o),
(384,968,cs),
(263,945,o),
(207,920,o),
(160,902,c),
(149,902,l),
(149,1093,l),
(210,1111,o),
(307,1131,o),
(426,1139,c),
(307,1186,o),
(220,1289,o),
(220,1421,cs),
(220,1589,o),
(355,1722,o),
(526,1722,cs),
(697,1722,o),
(832,1590,o),
(832,1421,cs),
(832,1288,o),
(739,1177,o),
(614,1134,c),
(853,1100,o),
(947,977,o),
(947,764,cs),
(947,0,l),
(760,0,l)
);
},
{
closed = 1;
nodes = (
(685,1516,o),
(619,1590,o),
(526,1590,cs),
(432,1590,o),
(367,1515,o),
(367,1420,cs),
(367,1320,o),
(435,1248,o),
(526,1248,cs),
(617,1248,o),
(685,1320,o),
(685,1420,cs)
);
}
);
width = 1075;
},
{
layerId = "9CEFB641-1E07-4D1E-B575-5426CF06F412";
shapes = (
{
closed = 1;
nodes = (
(762,604,l),
(691,600,o),
(476,577,o),
(400,557,c),
(286,521,o),
(201,458,o),
(201,331,cs),
(201,194,o),
(281,118,o),
(428,118,cs),
(565,118,o),
(667,185,o),
(762,269,c)
);
},
{
closed = 1;
nodes = (
(762,119,l),
(733,97,o),
(657,36,o),
(607,12,c),
(535,-20,o),
(499,-31,o),
(397,-31,cs),
(211,-31,o),
(61,117,o),
(61,325,cs),
(61,528,o),
(174,670,o),
(476,708,cs),
(564,719,o),
(659,728,o),
(762,734,c),
(762,780,ls),
(762,986,o),
(620,1009,o),
(459,1003,cs),
(422,1002,o),
(386,997,o),
(352,988,c),
(218,957,o),
(186,937,o),
(155,927,c),
(151,927,l),
(151,1091,l),
(209,1108,o),
(301,1127,o),
(415,1135,c),
(287,1180,o),
(190,1285,o),
(190,1424,cs),
(190,1592,o),
(324,1725,o),
(495,1725,cs),
(667,1725,o),
(801,1593,o),
(801,1424,cs),
(801,1288,o),
(700,1174,o),
(568,1133,c),
(815,1098,o),
(896,970,o),
(896,764,cs),
(896,0,l),
(762,0,l)
);
},
{
closed = 1;
nodes = (
(662,1526,o),
(592,1601,o),
(495,1601,cs),
(397,1601,o),
(329,1523,o),
(329,1423,cs),
(329,1317,o),
(401,1243,o),
(495,1243,cs),
(590,1243,o),
(662,1318,o),
(662,1423,cs)
);
}
);
width = 1025;
},
{
layerId = "1BB6E906-3DFF-4986-8FED-FA70B47B0561";
shapes = (
{
closed = 1;
nodes = (
(751,508,l),
(625,491,o),
(607,497,o),
(526,468,cs),
(480,452,o),
(455,413,o),
(455,356,cs),
(455,260,o),
(505,237,o),
(608,237,cs),
(650,237,o),
(711,256,o),
(751,299,c)
);
},
{
closed = 1;
nodes = (
(751,119,l),
(723,97,o),
(713,85,o),
(692,66,c),
(610,1,o),
(494,-30,o),
(396,-30,cs),
(222,-30,o),
(47,87,o),
(47,321,cs),
(47,597,o),
(239,679,o),
(517,718,cs),
(590,728,o),
(670,733,o),
(753,739,c),
(753,735,l),
(753,805,o),
(720,855,o),
(610,878,cs),
(583,883,o),
(551,886,o),
(513,888,c),
(443,896,o),
(292,853,o),
(179,803,c),
(142,803,l),
(142,1101,l),
(213,1122,o),
(330,1147,o),
(469,1156,c),
(388,1210,o),
(340,1306,o),
(340,1408,cs),
(340,1577,o),
(479,1709,o),
(649,1709,cs),
(818,1709,o),
(957,1579,o),
(957,1408,cs),
(957,1289,o),
(896,1188,o),
(798,1139,c),
(1004,1108,o),
(1152,1005,o),
(1152,764,cs),
(1152,0,l),
(751,0,l)
);
},
{
closed = 1;
nodes = (
(777,1475,o),
(727,1547,o),
(649,1547,cs),
(573,1547,o),
(520,1484,o),
(520,1407,cs),
(520,1331,o),
(570,1269,o),
(649,1269,cs),
(725,1269,o),
(777,1328,o),
(777,1407,cs)
);
}
);
width = 1276;
}
);
unicode = 229;
},
{
glyphname = ccedilla;
layers = (
{
layerId = "0E45D8FB-8EA6-46E4-9786-99D047FDA37D";
shapes = (
{
closed = 1;
nodes = (
(298,-28,o),
(52,175,o),
(52,557,cs),
(52,977,o),
(333,1154,o),
(675,1154,cs),
(801,1154,o),
(925,1126,o),
(1048,1064,c),
(1048,764,l),
(1003,764,l),
(939,828,o),
(829,902,o),
(692,902,cs),
(513,902,o),
(411,767,o),
(411,557,cs),
(411,333,o),
(522,220,o),
(698,220,cs),
(869,220,o),
(951,305,o),
(1003,357,c),
(1048,357,l),
(1048,57,l),
(1007,42,o),
(944,12,o),
(889,-3,c),
(889,-22,o),
(891,-53,o),
(891,-86,cs),
(891,-302,o),
(750,-423,o),
(546,-423,cs),
(505,-423,o),
(383,-411,o),
(343,-399,c),
(343,-199,l),
(362,-199,l),
(393,-213,o),
(463,-234,o),
(514,-234,cs),
(588,-234,o),
(644,-203,o),
(665,-143,cs),
(676,-110,o),
(676,-69,o),
(676,-28,c),
(673,-28,o),
(671,-28,o),
(668,-28,cs)
);
}
);
width = 1080;
},
{
layerId = "C991CE7E-6C6E-4D0C-9C0C-9C2488C785EC";
shapes = (
{
closed = 1;
nodes = (
(271,-25,o),
(59,163,o),
(59,557,cs),
(59,946,o),
(283,1143,o),
(580,1143,cs),
(701,1143,o),
(821,1100,o),
(910,1057,c),
(910,846,l),
(899,846,l),
(857,879,o),
(736,980,o),
(577,980,cs),
(382,980,o),
(254,824,o),
(254,557,cs),
(254,307,o),
(361,138,o),
(577,138,cs),
(697,138,o),
(812,193,o),
(899,274,c),
(910,274,l),
(910,63,l),
(873,45,o),
(814,19,o),
(777,8,c),
(777,-11,o),
(782,-49,o),
(782,-89,cs),
(782,-286,o),
(665,-423,o),
(473,-423,cs),
(424,-423,o),
(344,-414,o),
(296,-399,c),
(296,-239,l),
(305,-239,l),
(335,-252,o),
(395,-273,o),
(447,-273,cs),
(569,-273,o),
(629,-225,o),
(629,-107,cs),
(629,-83,o),
(627,-55,o),
(627,-23,c),
(607,-23,o),
(601,-25,o),
(580,-25,cs)
);
}
);
width = 945;
},
{
layerId = "9CEFB641-1E07-4D1E-B575-5426CF06F412";
shapes = (
{
closed = 1;
nodes = (
(262,-24,o),
(61,159,o),
(61,557,cs),
(61,936,o),
(266,1139,o),
(548,1139,cs),
(668,1139,o),
(786,1091,o),
(864,1055,c),
(864,873,l),
(858,873,l),
(824,896,o),
(705,1006,o),
(539,1006,cs),
(338,1006,o),
(202,843,o),
(202,557,cs),
(202,298,o),
(307,111,o),
(537,111,cs),
(640,111,o),
(760,156,o),
(858,246,c),
(864,246,l),
(864,65,l),
(828,46,o),
(771,21,o),
(740,12,c),
(740,-7,o),
(746,-48,o),
(746,-90,cs),
(746,-281,o),
(637,-423,o),
(449,-423,cs),
(397,-423,o),
(331,-415,o),
(280,-399,c),
(280,-252,l),
(286,-252,l),
(316,-265,o),
(372,-286,o),
(425,-286,cs),
(563,-286,o),
(624,-232,o),
(617,-95,c),
(613,-74,o),
(611,-50,o),
(611,-21,c),
(585,-21,o),
(578,-24,o),
(551,-24,cs)
);
}
);
width = 900;
},
{
layerId = "1BB6E906-3DFF-4986-8FED-FA70B47B0561";
shapes = (
{
closed = 1;
nodes = (
(302,-30,o),
(50,179,o),
(50,557,cs),
(50,987,o),
(350,1158,o),
(707,1158,cs),
(834,1158,o),
(960,1135,o),
(1094,1066,c),
(1094,737,l),
(1038,737,l),
(966,811,o),
(860,876,o),
(730,876,cs),
(557,876,o),
(463,748,o),
(463,557,cs),
(463,342,o),
(576,247,o),
(738,247,cs),
(926,247,o),
(997,342,o),
(1038,385,c),
(1094,385,l),
(1094,55,l),
(1052,41,o),
(987,10,o),
(926,-7,c),
(926,-26,o),
(927,-54,o),
(927,-85,cs),
(927,-307,o),
(778,-423,o),
(570,-423,cs),
(532,-423,o),
(396,-410,o),
(359,-399,c),
(359,-186,l),
(381,-186,l),
(412,-200,o),
(486,-221,o),
(536,-221,cs),
(594,-221,o),
(649,-196,o),
(677,-155,c),
(692,-119,o),
(692,-74,o),
(692,-30,c),
(695,-30,o),
(689,-30,o),
(692,-30,c)
);
}
);
width = 1125;
}
);
unicode = 231;
},
{
glyphname = icircumflex;
layers = (
{
layerId = "0E45D8FB-8EA6-46E4-9786-99D047FDA37D";
shapes = (
{
closed = 1;
nodes = (
(484,0,l),
(134,0,l),
(134,1123,l),
(484,1123,l)
);
},
{
closed = 1;
nodes = (
(659,1283,l),
(430,1283,l),
(305,1496,l),
(181,1283,l),
(-44,1283,l),
(190,1676,l),
(425,1676,l)
);
}
);
width = 618;
},
{
layerId = "C991CE7E-6C6E-4D0C-9C0C-9C2488C785EC";
shapes = (
{
closed = 1;
nodes = (
(328,0,l),
(140,0,l),
(140,1117,l),
(328,1117,l)
);
},
{
closed = 1;
nodes = (
(521,1297,l),
(370,1297,l),
(231,1560,l),
(93,1297,l),
(-54,1297,l),
(120,1676,l),
(347,1676,l)
);
}
);
width = 468;
},
{
layerId = "9CEFB641-1E07-4D1E-B575-5426CF06F412";
shapes = (
{
closed = 1;
nodes = (
(276,0,l),
(142,0,l),
(142,1115,l),
(276,1115,l)
);
},
{
closed = 1;
nodes = (
(475,1302,l),
(350,1302,l),
(206,1581,l),
(64,1302,l),
(-57,1302,l),
(97,1676,l),
(321,1676,l)
);
}
);
width = 418;
},
{
layerId = "1BB6E906-3DFF-4986-8FED-FA70B47B0561";
shapes = (
{
closed = 1;
nodes = (
(536,0,l),
(132,0,l),
(132,1125,l),
(536,1125,l)
);
},
{
closed = 1;
nodes = (
(705,1278,l),
(450,1278,l),
(330,1475,l),
(210,1278,l),
(-41,1278,l),
(213,1676,l),
(451,1676,l)
);
}
);
width = 668;
}
);
unicode = 238;
},
{
glyphname = idieresis;
layers = (
{
layerId = "0E45D8FB-8EA6-46E4-9786-99D047FDA37D";
shapes = (
{
closed = 1;
nodes = (
(484,0,l),
(134,0,l),
(134,1123,l),
(484,1123,l)
);
},
{
closed = 1;
nodes = (
(658,1283,l),
(378,1283,l),
(378,1556,l),
(658,1556,l)
);
},
{
closed = 1;
nodes = (
(244,1283,l),
(-36,1283,l),
(-36,1556,l),
(244,1556,l)
);
}
);
width = 618;
},
{
layerId = "C991CE7E-6C6E-4D0C-9C0C-9C2488C785EC";
shapes = (
{
closed = 1;
nodes = (
(328,0,l),
(140,0,l),
(140,1117,l),
(328,1117,l)
);
},
{
closed = 1;
nodes = (
(506,1304,l),
(317,1304,l),
(317,1499,l),
(506,1499,l)
);
},
{
closed = 1;
nodes = (
(151,1304,l),
(-38,1304,l),
(-38,1499,l),
(151,1499,l)
);
}
);
width = 468;
},
{
layerId = "9CEFB641-1E07-4D1E-B575-5426CF06F412";
shapes = (
{
closed = 1;
nodes = (
(276,0,l),
(142,0,l),
(142,1115,l),
(276,1115,l)
);
},
{
closed = 1;
nodes = (
(455,1311,l),
(297,1311,l),
(297,1480,l),
(455,1480,l)
);
},
{
closed = 1;
nodes = (
(120,1311,l),
(-39,1311,l),
(-39,1480,l),
(120,1480,l)
);
}
);
width = 418;
},
{
layerId = "1BB6E906-3DFF-4986-8FED-FA70B47B0561";
shapes = (
{
closed = 1;
nodes = (
(536,0,l),
(132,0,l),
(132,1125,l),
(536,1125,l)
);
},
{
closed = 1;
nodes = (
(709,1276,l),
(398,1276,l),
(398,1575,l),
(709,1575,l)
);
},
{
closed = 1;
nodes = (
(275,1276,l),
(-35,1276,l),
(-35,1575,l),
(275,1575,l)
);
}
);
width = 668;
}
);
unicode = 239;
},
{
glyphname = dagger;
layers = (
{
layerId = "0E45D8FB-8EA6-46E4-9786-99D047FDA37D";
shapes = (
{
closed = 1;
nodes = (
(1136,943,l),
(772,948,l),
(777,135,l),
(527,135,l),
(532,948,l),
(168,943,l),
(168,1163,l),
(532,1158,l),
(527,1556,l),
(777,1556,l),
(772,1158,l),
(1136,1163,l)
);
}
);
width = 1304;
},
{
layerId = "C991CE7E-6C6E-4D0C-9C0C-9C2488C785EC";
shapes = (
{
closed = 1;
nodes = (
(983,1034,l),
(620,1039,l),
(625,135,l),
(493,135,l),
(498,1039,l),
(135,1034,l),
(135,1163,l),
(498,1158,l),
(493,1556,l),
(625,1556,l),
(620,1158,l),
(983,1163,l)
);
}
);
width = 1118;
},
{
layerId = "9CEFB641-1E07-4D1E-B575-5426CF06F412";
shapes = (
{
closed = 1;
nodes = (
(932,1064,l),
(569,1069,l),
(574,135,l),
(482,135,l),
(487,1069,l),
(124,1064,l),
(124,1163,l),
(487,1158,l),
(482,1556,l),
(574,1556,l),
(569,1158,l),
(932,1163,l)
);
}
);
width = 1056;
},
{
layerId = "1BB6E906-3DFF-4986-8FED-FA70B47B0561";
shapes = (
{
closed = 1;
nodes = (
(1187,913,l),
(823,918,l),
(828,135,l),
(538,135,l),
(543,918,l),
(179,913,l),
(179,1163,l),
(543,1158,l),
(538,1556,l),
(828,1556,l),
(823,1158,l),
(1187,1163,l)
);
}
);
width = 1366;
}
);
unicode = 8224;
},
{
glyphname = degree;
layers = (
{
layerId = "0E45D8FB-8EA6-46E4-9786-99D047FDA37D";
shapes = (
{
closed = 1;
nodes = (
(938,894,o),
(761,714,o),
(532,714,cs),
(313,714,o),
(126,886,o),
(126,1117,cs),
(126,1344,o),
(308,1520,o),
(532,1520,cs),
(752,1520,o),
(938,1350,o),
(938,1117,cs)
);
},
{
closed = 1;
nodes = (
(719,1221,o),
(639,1308,o),
(532,1308,cs),
(425,1308,o),
(345,1220,o),
(345,1117,cs),
(345,1009,o),
(426,926,o),
(532,926,cs),
(631,926,o),
(719,1002,o),
(719,1117,cs)
);
}
);
width = 1064;
},
{
layerId = "C991CE7E-6C6E-4D0C-9C0C-9C2488C785EC";
shapes = (
{
closed = 1;
nodes = (
(863,921,o),
(693,755,o),
(482,755,cs),
(272,755,o),
(101,919,o),
(101,1135,cs),
(101,1344,o),
(266,1515,o),
(482,1515,cs),
(694,1515,o),
(863,1346,o),
(863,1135,cs)
);
},
{
closed = 1;
nodes = (
(706,1262,o),
(609,1363,o),
(482,1363,cs),
(353,1363,o),
(258,1261,o),
(258,1135,cs),
(258,1003,o),
(360,907,o),
(482,907,cs),
(609,907,o),
(706,1008,o),
(706,1135,cs)
);
}
);
width = 964;
},
{
layerId = "9CEFB641-1E07-4D1E-B575-5426CF06F412";
shapes = (
{
closed = 1;
nodes = (
(838,930,o),
(670,769,o),
(465,769,cs),
(258,769,o),
(93,930,o),
(93,1141,cs),
(93,1344,o),
(252,1513,o),
(465,1513,cs),
(675,1513,o),
(838,1345,o),
(838,1141,cs)
);
},
{
closed = 1;
nodes = (
(702,1276,o),
(599,1381,o),
(465,1381,cs),
(329,1381,o),
(229,1275,o),
(229,1141,cs),
(229,1001,o),
(338,901,o),
(465,901,cs),
(602,901,o),
(702,1010,o),
(702,1141,cs)
);
}
);
width = 931;
},
{
layerId = "1BB6E906-3DFF-4986-8FED-FA70B47B0561";
shapes = (
{
closed = 1;
nodes = (
(963,885,o),
(784,700,o),
(549,700,cs),
(327,700,o),
(134,875,o),
(134,1111,cs),
(134,1344,o),
(322,1522,o),
(549,1522,cs),
(771,1522,o),
(963,1351,o),
(963,1111,cs)
);
},
{
closed = 1;
nodes = (
(723,1207,o),
(649,1290,o),
(549,1290,cs),
(449,1290,o),
(374,1206,o),
(374,1111,cs),
(374,1011,o),
(448,932,o),
(549,932,cs),
(638,932,o),
(723,1000,o),
(723,1111,cs)
);
}
);
width = 1097;
}
);
unicode = 176;
},
{
glyphname = cent;
layers = (
{
layerId = "0E45D8FB-8EA6-46E4-9786-99D047FDA37D";
shapes = (
{
closed = 1;
nodes = (
(712,-16,l),
(363,7,o),
(150,207,o),
(150,567,cs),
(150,959,o),
(399,1137,o),
(712,1160,c),
(712,1475,l),
(876,1475,l),
(876,1156,l),
(1006,1143,o),
(1122,1090,o),
(1156,1074,c),
(1156,779,l),
(1111,779,l),
(1070,818,o),
(972,888,o),
(872,909,c),
(872,233,l),
(965,248,o),
(1055,299,o),
(1111,362,c),
(1156,362,l),
(1156,67,l),
(1095,39,o),
(983,-3,o),
(876,-13,c),
(876,-361,l),
(712,-361,l)
);
},
{
closed = 1;
nodes = (
(716,908,l),
(580,876,o),
(500,740,o),
(500,567,cs),
(500,381,o),
(581,267,o),
(716,236,c)
);
}
);
width = 1304;
},
{
layerId = "C991CE7E-6C6E-4D0C-9C0C-9C2488C785EC";
shapes = (
{
closed = 1;
nodes = (
(557,2,l),
(271,34,o),
(114,235,o),
(114,557,cs),
(114,870,o),
(279,1083,o),
(557,1115,c),
(557,1475,l),
(671,1475,l),
(671,1116,l),
(784,1112,o),
(901,1074,o),
(975,1037,c),
(975,837,l),
(965,837,l),
(880,906,o),
(793,959,o),
(671,977,c),
(671,141,l),
(826,156,o),
(940,259,o),
(965,281,c),
(975,281,l),
(975,83,l),
(885,42,o),
(803,7,o),
(671,1,c),
(671,-361,l),
(557,-361,l)
);
},
{
closed = 1;
nodes = (
(557,971,l),
(401,943,o),
(307,799,o),
(307,557,cs),
(307,303,o),
(407,174,o),
(557,146,c)
);
}
);
width = 1118;
},
{
layerId = "9CEFB641-1E07-4D1E-B575-5426CF06F412";
shapes = (
{
closed = 1;
nodes = (
(505,8,l),
(240,43,o),
(102,244,o),
(102,554,cs),
(102,840,o),
(239,1065,o),
(505,1100,c),
(505,1475,l),
(603,1475,l),
(603,1103,l),
(710,1102,o),
(827,1069,o),
(915,1025,c),
(915,856,l),
(916,856,l),
(817,935,o),
(733,983,o),
(604,1000,c),
(604,110,l),
(780,125,o),
(902,246,o),
(916,254,c),
(915,254,l),
(915,88,l),
(815,43,o),
(743,10,o),
(603,6,c),
(603,-361,l),
(505,-361,l)
);
},
{
closed = 1;
nodes = (
(504,992,l),
(341,965,o),
(243,819,o),
(243,554,cs),
(243,277,o),
(349,143,o),
(504,116,c)
);
}
);
width = 1056;
},
{
layerId = "1BB6E906-3DFF-4986-8FED-FA70B47B0561";
shapes = (
{
closed = 1;
nodes = (
(764,-22,l),
(394,-2,o),
(162,198,o),
(162,570,cs),
(162,989,o),
(439,1155,o),
(764,1175,c),
(764,1475,l),
(944,1475,l),
(944,1169,l),
(1080,1153,o),
(1196,1095,o),
(1216,1086,c),
(1216,760,l),
(1160,760,l),
(1133,789,o),
(1032,864,o),
(939,886,c),
(939,264,l),
(1011,279,o),
(1093,312,o),
(1160,389,c),
(1216,389,l),
(1216,62,l),
(1165,38,o),
(1043,-6,o),
(944,-18,c),
(944,-361,l),
(764,-361,l)
);
},
{
closed = 1;
nodes = (
(769,887,l),
(640,854,o),
(564,720,o),
(564,570,cs),
(564,407,o),
(639,298,o),
(769,266,c)
);
}
);
width = 1366;
}
);
unicode = 162;
},
{
glyphname = sterling;
layers = (
{
layerId = "A417CD05-194C-4445-84A4-F7DDCEBB9456";
name = "#instance";
shapes = (
{
closed = 1;
nodes = (
(1207,0,l),
(120,0,l),
(120,277,l),
(268,319,o),
(318,415,o),
(318,603,c),
(152,603,l),
(152,816,l),
(318,816,l),
(318,1081,ls),
(318,1343,o),
(527,1518,o),
(811,1518,cs),
(978,1518,o),
(1088,1488,o),
(1149,1470,c),
(1149,1164,l),
(1114,1164,l),
(1049,1213,o),
(958,1248,o),
(872,1248,cs),
(753,1248,o),
(669,1167,o),
(669,1022,cs),
(669,816,l),
(1042,816,l),
(1042,603,l),
(669,603,l),
(669,554,o),
(649,467,o),
(628,422,c),
(601,369,o),
(562,320,o),
(510,292,c),
(510,281,l),
(1207,281,l)
);
}
);
width = 1304;
},
{
layerId = "0E45D8FB-8EA6-46E4-9786-99D047FDA37D";
shapes = (
{
closed = 1;
nodes = (
(1207,0,l),
(120,0,l),
(120,277,l),
(268,319,o),
(318,415,o),
(318,603,c),
(152,603,l),
(152,816,l),
(318,816,l),
(318,1081,ls),
(318,1343,o),
(527,1518,o),
(811,1518,cs),
(978,1518,o),
(1088,1488,o),
(1149,1470,c),
(1149,1164,l),
(1114,1164,l),
(1049,1213,o),
(958,1248,o),
(872,1248,cs),
(753,1248,o),
(669,1167,o),
(669,1022,cs),
(669,816,l),
(1042,816,l),
(1042,603,l),
(669,603,l),
(669,554,o),
(649,467,o),
(628,422,c),
(601,369,o),
(562,320,o),
(510,292,c),
(510,281,l),
(1207,281,l)
);
}
);
width = 1304;
},
{
layerId = "C991CE7E-6C6E-4D0C-9C0C-9C2488C785EC";
shapes = (
{
closed = 1;
nodes = (
(1031,0,l),
(89,0,l),
(89,207,l),
(236,251,o),
(291,367,o),
(291,613,c),
(130,613,l),
(130,751,l),
(291,751,l),
(291,1071,ls),
(291,1336,o),
(460,1518,o),
(708,1518,cs),
(837,1518,o),
(921,1492,o),
(1001,1470,c),
(1001,1264,l),
(991,1264,l),
(914,1317,o),
(810,1351,o),
(727,1351,cs),
(560,1351,o),
(483,1242,o),
(483,1052,cs),
(483,751,l),
(847,751,l),
(847,613,l),
(483,613,l),
(483,502,o),
(476,424,o),
(424,339,cs),
(385,275,o),
(331,223,o),
(261,182,c),
(261,171,l),
(1031,171,l)
);
}
);
width = 1118;
},
{
layerId = "9CEFB641-1E07-4D1E-B575-5426CF06F412";
shapes = (
{
closed = 1;
nodes = (
(972,0,l),
(79,0,l),
(79,184,l),
(225,228,o),
(282,351,o),
(282,616,c),
(123,616,l),
(123,729,l),
(282,729,l),
(282,1068,ls),
(282,1334,o),
(438,1518,o),
(674,1518,cs),
(790,1518,o),
(865,1493,o),
(952,1470,c),
(952,1297,l),
(950,1297,l),
(869,1352,o),
(761,1385,o),
(679,1385,cs),
(496,1385,o),
(421,1267,o),
(421,1062,cs),
(421,729,l),
(782,729,l),
(782,616,l),
(421,616,l),
(421,485,o),
(418,410,o),
(356,311,cs),
(313,244,o),
(254,191,o),
(178,145,c),
(178,134,l),
(972,134,l)
);
}
);
width = 1056;
},
{
layerId = "1BB6E906-3DFF-4986-8FED-FA70B47B0561";
shapes = (
{
closed = 1;
nodes = (
(1266,0,l),
(130,0,l),
(130,300,l),
(279,342,o),
(327,431,o),
(327,600,c),
(159,600,l),
(159,838,l),
(327,838,l),
(327,1084,ls),
(327,1345,o),
(549,1518,o),
(845,1518,cs),
(1025,1518,o),
(1144,1487,o),
(1198,1470,c),
(1198,1131,l),
(1155,1131,l),
(1094,1178,o),
(1007,1214,o),
(920,1214,cs),
(817,1214,o),
(731,1142,o),
(731,1012,cs),
(731,838,l),
(1107,838,l),
(1107,600,l),
(731,600,l),
(731,571,o),
(707,481,o),
(696,450,c),
(673,400,o),
(639,352,o),
(593,329,c),
(593,318,l),
(1266,318,l)
);
}
);
width = 1366;
}
);
unicode = 163;
},
{
glyphname = section;
layers = (
{
layerId = "0E45D8FB-8EA6-46E4-9786-99D047FDA37D";
shapes = (
{
closed = 1;
nodes = (
(836,474,o),
(848,508,o),
(848,547,cs),
(848,619,o),
(799,664,o),
(708,701,c),
(658,719,ls),
(630,729,o),
(596,740,o),
(557,752,c),
(513,716,o),
(462,653,o),
(462,581,cs),
(462,505,o),
(516,460,o),
(602,427,cs),
(657,407,ls),
(687,396,o),
(722,384,o),
(754,375,c),
(774,391,o),
(795,412,o),
(815,442,c)
);
},
{
closed = 1;
nodes = (
(197,-49,l),
(265,-87,o),
(411,-138,o),
(530,-138,cs),
(660,-138,o),
(731,-111,o),
(756,-61,cs),
(763,-47,o),
(766,-32,o),
(766,-15,cs),
(766,73,o),
(678,101,o),
(560,138,c),
(329,214,o),
(106,290,o),
(106,526,cs),
(106,660,o),
(179,767,o),
(310,850,c),
(310,857,l),
(183,929,o),
(134,1026,o),
(134,1148,cs),
(134,1345,o),
(351,1520,o),
(715,1520,cs),
(847,1520,o),
(1021,1496,o),
(1122,1463,c),
(1122,1177,l),
(1100,1177,l),
(1041,1213,o),
(892,1266,o),
(777,1266,cs),
(644,1266,o),
(541,1219,o),
(541,1143,cs),
(541,1050,o),
(634,1028,o),
(781,980,c),
(1053,886,o),
(1204,806,o),
(1204,602,cs),
(1204,467,o),
(1126,356,o),
(1000,278,c),
(1000,271,l),
(1124,202,o),
(1173,108,o),
(1173,-10,cs),
(1173,-246,o),
(933,-392,o),
(592,-392,cs),
(472,-392,o),
(260,-364,o),
(175,-335,c),
(175,-49,l)
);
}
);
width = 1304;
},
{
layerId = "C991CE7E-6C6E-4D0C-9C0C-9C2488C785EC";
shapes = (
{
closed = 1;
nodes = (
(791,448,o),
(810,483,o),
(810,555,cs),
(810,688,o),
(726,734,o),
(626,766,c),
(549,788,ls),
(519,796,o),
(486,806,o),
(450,819,c),
(413,798,o),
(308,724,o),
(308,579,cs),
(308,470,o),
(346,414,o),
(492,369,cs),
(569,345,ls),
(598,336,o),
(631,326,o),
(667,315,c),
(691,331,o),
(727,357,o),
(759,401,c)
);
},
{
closed = 1;
nodes = (
(182,-133,l),
(283,-181,o),
(394,-220,o),
(509,-220,cs),
(657,-220,o),
(776,-157,o),
(776,-36,cs),
(776,0,o),
(769,29,o),
(757,51,cs),
(718,122,o),
(618,146,o),
(460,192,c),
(235,252,o),
(119,338,o),
(119,533,cs),
(119,656,o),
(181,774,o),
(318,858,c),
(318,865,l),
(196,931,o),
(148,1026,o),
(148,1147,cs),
(148,1369,o),
(328,1519,o),
(628,1519,cs),
(744,1519,o),
(823,1503,o),
(946,1462,c),
(946,1268,l),
(936,1268,l),
(815,1328,o),
(720,1355,o),
(607,1355,cs),
(460,1355,o),
(340,1294,o),
(340,1176,cs),
(340,1022,o),
(460,991,o),
(657,942,c),
(906,867,o),
(998,782,o),
(998,601,cs),
(998,457,o),
(918,348,o),
(799,277,c),
(799,270,l),
(915,208,o),
(969,113,o),
(969,-10,cs),
(969,-227,o),
(785,-385,o),
(490,-385,cs),
(383,-385,o),
(281,-367,o),
(172,-327,c),
(172,-133,l)
);
}
);
width = 1118;
},
{
layerId = "9CEFB641-1E07-4D1E-B575-5426CF06F412";
shapes = (
{
closed = 1;
nodes = (
(776,439,o),
(797,475,o),
(797,558,cs),
(797,711,o),
(702,757,o),
(599,788,c),
(513,811,l),
(482,818,o),
(449,828,o),
(414,841,c),
(380,825,o),
(257,748,o),
(257,578,cs),
(257,458,o),
(289,399,o),
(455,350,cs),
(540,324,ls),
(568,316,o),
(601,307,o),
(638,295,c),
(663,311,o),
(704,339,o),
(740,387,c)
);
},
{
closed = 1;
nodes = (
(177,-161,l),
(289,-212,o),
(388,-247,o),
(502,-247,cs),
(656,-247,o),
(791,-172,o),
(783,-28,cs),
(780,16,o),
(770,49,o),
(754,73,c),
(702,138,o),
(598,161,o),
(427,210,c),
(204,265,o),
(123,354,o),
(123,535,cs),
(123,655,o),
(182,776,o),
(321,861,c),
(321,868,l),
(200,932,o),
(153,1026,o),
(153,1147,cs),
(153,1377,o),
(320,1519,o),
(599,1519,cs),
(710,1519,o),
(757,1505,o),
(887,1462,c),
(887,1298,l),
(881,1298,l),
(740,1366,o),
(663,1385,o),
(550,1385,cs),
(399,1385,o),
(273,1319,o),
(273,1187,cs),
(273,1013,o),
(402,979,o),
(616,929,c),
(857,861,o),
(929,774,o),
(929,601,cs),
(929,454,o),
(849,345,o),
(732,277,c),
(732,270,l),
(845,210,o),
(901,115,o),
(901,-10,cs),
(901,-221,o),
(736,-383,o),
(456,-383,cs),
(353,-383,o),
(288,-368,o),
(171,-324,c),
(171,-161,l)
);
}
);
width = 1056;
},
{
layerId = "1BB6E906-3DFF-4986-8FED-FA70B47B0561";
shapes = (
{
closed = 1;
nodes = (
(851,483,o),
(861,516,o),
(861,544,cs),
(861,596,o),
(823,641,o),
(735,679,c),
(694,696,ls),
(667,707,o),
(633,718,o),
(593,730,c),
(546,689,o),
(513,629,o),
(513,582,cs),
(513,517,o),
(573,475,o),
(639,446,c),
(686,428,ls),
(717,416,o),
(752,403,o),
(783,395,c),
(802,411,o),
(818,430,o),
(834,456,cs)
);
},
{
closed = 1;
nodes = (
(202,-21,l),
(259,-56,o),
(417,-111,o),
(537,-111,cs),
(661,-111,o),
(716,-96,o),
(749,-69,c),
(759,-63,o),
(765,-52,o),
(769,-37,c),
(782,57,o),
(698,86,o),
(593,120,c),
(360,201,o),
(102,274,o),
(102,524,cs),
(102,661,o),
(178,765,o),
(307,847,c),
(307,854,l),
(179,928,o),
(129,1026,o),
(129,1148,cs),
(129,1337,o),
(359,1520,o),
(744,1520,cs),
(881,1520,o),
(1087,1494,o),
(1181,1463,c),
(1181,1147,l),
(1155,1147,l),
(1116,1175,o),
(949,1236,o),
(834,1236,cs),
(705,1236,o),
(608,1194,o),
(608,1132,cs),
(608,1059,o),
(692,1040,o),
(822,993,cs),
(1102,892,o),
(1273,814,o),
(1273,602,cs),
(1273,470,o),
(1195,359,o),
(1067,278,c),
(1067,271,l),
(1194,200,o),
(1241,106,o),
(1241,-10,cs),
(1241,-252,o),
(982,-394,o),
(626,-394,cs),
(502,-394,o),
(253,-363,o),
(176,-338,c),
(176,-21,l)
);
}
);
width = 1366;
}
);
unicode = 167;
},
{
glyphname = bullet;
layers = (
{
layerId = "0E45D8FB-8EA6-46E4-9786-99D047FDA37D";
shapes = (
{
closed = 1;
nodes = (
(1139,402,o),
(917,181,o),
(651,181,cs),
(385,181,o),
(164,402,o),
(164,668,cs),
(164,934,o),
(388,1155,o),
(651,1155,cs),
(911,1155,o),
(1139,944,o),
(1139,668,cs)
);
}
);
width = 1304;
},
{
layerId = "C991CE7E-6C6E-4D0C-9C0C-9C2488C785EC";
shapes = (
{
closed = 1;
nodes = (
(817,469,o),
(655,311,o),
(465,311,cs),
(272,311,o),
(114,469,o),
(114,662,cs),
(114,851,o),
(271,1013,o),
(465,1013,cs),
(656,1013,o),
(817,852,o),
(817,662,cs)
);
}
);
width = 931;
},
{
layerId = "9CEFB641-1E07-4D1E-B575-5426CF06F412";
shapes = (
{
closed = 1;
nodes = (
(710,491,o),
(568,354,o),
(403,354,cs),
(234,354,o),
(97,491,o),
(97,660,cs),
(97,823,o),
(232,966,o),
(403,966,cs),
(571,966,o),
(710,821,o),
(710,660,cs)
);
}
);
width = 807;
},
{
layerId = "1BB6E906-3DFF-4986-8FED-FA70B47B0561";
shapes = (
{
closed = 1;
nodes = (
(1246,380,o),
(1004,138,o),
(713,138,cs),
(423,138,o),
(181,380,o),
(181,670,cs),
(181,962,o),
(427,1202,o),
(713,1202,cs),
(996,1202,o),
(1246,975,o),
(1246,670,cs)
);
}
);
width = 1428;
}
);
unicode = 8226;
},
{
glyphname = paragraph;
layers = (
{
layerId = "0E45D8FB-8EA6-46E4-9786-99D047FDA37D";
shapes = (
{
closed = 1;
nodes = (
(1173,-363,l),
(973,-363,l),
(973,1309,l),
(828,1309,l),
(828,-363,l),
(618,-363,l),
(618,593,l),
(254,601,o),
(66,767,o),
(66,1049,cs),
(66,1306,o),
(252,1489,o),
(641,1489,cs),
(1173,1489,l)
);
}
);
width = 1304;
},
{
layerId = "C991CE7E-6C6E-4D0C-9C0C-9C2488C785EC";
shapes = (
{
closed = 1;
nodes = (
(982,-363,l),
(842,-363,l),
(842,1359,l),
(655,1359,l),
(655,-363,l),
(515,-363,l),
(515,593,l),
(242,599,o),
(57,778,o),
(57,1050,cs),
(57,1323,o),
(234,1489,o),
(560,1489,cs),
(982,1489,l)
);
}
);
width = 1118;
},
{
layerId = "9CEFB641-1E07-4D1E-B575-5426CF06F412";
shapes = (
{
closed = 1;
nodes = (
(918,-363,l),
(798,-363,l),
(798,1376,l),
(597,1376,l),
(597,-363,l),
(481,-363,l),
(481,593,l),
(238,598,o),
(54,782,o),
(54,1050,cs),
(54,1329,o),
(228,1489,o),
(533,1489,cs),
(918,1489,l)
);
}
);
width = 1056;
},
{
layerId = "1BB6E906-3DFF-4986-8FED-FA70B47B0561";
shapes = (
{
closed = 1;
nodes = (
(1237,-363,l),
(1017,-363,l),
(1017,1292,l),
(886,1292,l),
(886,-363,l),
(652,-363,l),
(652,593,l),
(258,602,o),
(69,763,o),
(69,1049,cs),
(69,1300,o),
(258,1489,o),
(668,1489,cs),
(1237,1489,l)
);
}
);
width = 1366;
}
);
unicode = 182;
},
